<svg id="jacks2" xmlns="http://www.w3.org/2000/svg" viewBox="0 0 572.14 400.84"><defs><style>.cls-1{fill:#fefefe;}.cls-2{fill:#fcfaf9;}.cls-3{fill:#f7f1ee;}.cls-4{fill:#f8f3f0;}.cls-5{fill:#f9f5f2;}.cls-6{fill:#c88763;}.cls-7{fill:#d8ac95;}.cls-8{fill:#5b5358;}.cls-9{fill:#d3a288;}.cls-10{fill:#cc9476;}.cls-11{fill:#c98a68;}.cls-12{fill:#d6a991;}.cls-13{fill:#ecd8ce;}.cls-14{fill:#cb9171;}.cls-15{fill:#bd7c54;}.cls-16{fill:#c2805a;}.cls-17{fill:#544c50;}.cls-18{fill:#efdfd7;}.cls-19{fill:#ce9c82;}.cls-20{fill:#f4eae8;}.cls-21{fill:#715951;}.cls-22{fill:#ddb9a6;}.cls-23{fill:#c58561;}.cls-24{fill:#42424c;}.cls-25{fill:#846352;}.cls-26{fill:#fefdfd;}.cls-27{fill:#595156;}.cls-28{fill:#3c4c62;}.cls-29{fill:#a27052;}.cls-30{fill:#e7cdbf;}</style></defs><title>jacks1</title><path class="cls-1" d="M84.53,401.33q0-200.42,0-400.84H656.67q0,200.42,0,400.84Z" transform="translate(-84.53 -0.48)"/><path class="cls-2" d="M451.12,336.8a6.66,6.66,0,0,1,1.85,1.13c.72.87.48,1.7-.77,1.69a89,89,0,0,1-9.66-.31c-5.32-.63-10.6-1.6-15.9-2.4-1.13-.17-1.35.47-1,1.38a5.37,5.37,0,0,0,.82,1.49c3.72,4.53,7.53,9,11.19,13.56,3.36,4.2,6.67,8.46,9.82,12.82,2.51,3.48,1.7,5.9-2.43,8.18a8.31,8.31,0,0,0-1.51.71c-2.37,2.08-2.47,2.24-4.84.4-4.93-3.81-9.76-7.76-14.58-11.71-3.8-3.12-7.52-6.33-11.28-9.5-3.4-2.86-6.79-5.73-10.22-8.55-2.13-1.75-3.1-1.51-5,.43-3.55,3.65-7,7.48-11,10.61-2.13,1.67-4.39,3.12-6.13,5.24a2.21,2.21,0,0,1-.85.75c-3.82,1.28-3.88,4.28-3.38,7.46a7.7,7.7,0,0,1-1.32,5.64c-2,2.9-4.33,5.56-7.58,7a24.5,24.5,0,0,1-5.45,1.3c-.64.13-1.41-.18-2,.05-3.23,1.34-5.57-.55-7.61-2.4-2.28-2.07-4.85-4.33-6-7.06-2.81-6.85,1-15.17,7.68-18.34,1.55-.74,3-1.71,4.77-1.34,4,.81,6-1.67,7.84-4.55.75-1.18,1.79-2.19,2.53-3.37s1.41-2.73,2.17-4.06c.95-1.66-.31-2.78-.78-4.17a13.58,13.58,0,0,1,.51-10.21c1-2.13,2.41-2.3,4.73-1.55,5.48,1.77,10.91,3.78,16.51,5.06,5.85,1.34,11.87,1.95,17.83,2.86,1.49.23,3,.44,4.48.54.45,0,.93-.38,1.4-.59-.37-.39-.67-.93-1.12-1.13-2.16-1-4.39-1.77-6.54-2.75-.68-.31-1.61-.93-1.68-1.51s.69-1.51,1.31-1.8c1.75-.8,1.24-1.78.56-3-.54-.94-1-1.95-1.45-2.93,1.8-.2,3.06.94,4.22,2,1.87,1.64,4.07,2.77,6,4.26a3.89,3.89,0,0,0,4.77.05c2.78-1.74,4.82-2,7.31.14,4.14,3.5,9.14,4.85,14.13,6.32C446.09,335.43,448.25,337.37,451.12,336.8Z" transform="translate(-84.53 -0.48)"/><path class="cls-3" d="M474.4,278.89c1.29,1.62,2.46,3.36,3.9,4.83,5.39,5.51,5.05,13.35-.69,18.5a18.3,18.3,0,0,1-10.76,5c-5,.5-7.52,5.25-5.94,10,.55,1.64.34,3.54.47,5.32a1.93,1.93,0,0,0-.57,1.71l-.57,1.14a2.38,2.38,0,0,1-3.55.3c-1.8-1.31-2.46-.27-3.11,1.24a7.92,7.92,0,0,0-.42,3.9c.18,2.28-1.05,3.21-2.88,1.89-3.71-2.68-8.47-4.14-10.67-8.69-.6-1.24-1.46-1.34-2.53-.56-.63.46-1.46,1-2.11.57-2.57-1.52-5.72-1.22-8.25-2.79a18.23,18.23,0,0,0-7.43-2.68c-3-.38-5.43-2.15-7.71-4.05-5.84-4.84-11.75-9.57-18.44-13.25-1.74-1-3.8-.41-5.4-1.58-1.83-2.1-3.78-4.12-5.46-6.33s-1.57-4,.71-5.34c1.29-.77,1.3-1.61,1.37-2.7a1,1,0,0,1,1.43.5c-.69,3.36.81,5.24,3.92,6.41a15.67,15.67,0,0,1,5.67,3.74c2.59,2.7,5.79,3.42,9.21,3.76a3.87,3.87,0,0,1,2.77,1.23c1.89,2.26,4.52,2.53,7.17,2.77a4.73,4.73,0,0,1,3.26,1.53c2.71,2.67,6.14,4.38,8.93,6.92,1.81,1.65,3.64,1.91,5.48.1,2.21-2.16,5.06-3.55,7-6,1.21-.38,2.17.35,3.2.76a8.2,8.2,0,0,0,6.81.21c4.39-.38,7-3.47,9.62-6.43s2.47-6.54,2.36-10.12a8.46,8.46,0,0,0-1.56-5.05,4.08,4.08,0,0,1-1-2.58c.52-1.77.84-3.69,3-4.33,3.81.82,7.61,1.17,11.41-.08A1.72,1.72,0,0,1,474.4,278.89Z" transform="translate(-84.53 -0.48)"/><path class="cls-4" d="M597.22,231.58a37.08,37.08,0,0,0,3.24,4.63c3.15,3.34,3,7.16,2,11.16-.6,2.36-1.25,2.57-3.3,1.43-.43-.24-1.36-.4-1.48-.21a4.57,4.57,0,0,0-.88,2.29c0,2.9-.59,3.66-3.38,3.7a35.39,35.39,0,0,1-5.13,0c-2.93-.38-5,1.22-7.1,2.78-4.5,3.42-8.89,7-13.28,10.55a45.6,45.6,0,0,0-3.47,3.31c-.32.32-.81.86-.73,1.15.88,2.86-1.17,2.21-2.62,2.24-1.23,0-2.47-.19-3.11,1.35-.19.45-1,.7-1.54,1-2.3,1-4.62,2.07-6.93,3.1-.08,0-.21.11-.22.17-.41,3.15-2.74,1.74-4.41,1.84-1.38.09-2.85-.31-3.8,1.29-.16.26-1.41.13-2-.16-2-1-3.81-2.11-5.75-3.09a8.16,8.16,0,0,0-2.66-.86c-1.91-.22-2.71-1.58-3.38-3.07a1.33,1.33,0,0,1,.15-1.24,1.41,1.41,0,0,1,1.27.06c1.32.78,2.68,1.84,2-1.07a1.52,1.52,0,0,1,0-.53c2.84-.32,1.73-3.49,3.51-4.81,1.62-1.2,1.8-3.36.81-5.43s-1.91-4.51-2.86-6.78c.08-.05.16-.15.24-.15,2.57-.1,3.43,2.76,5.76,3.25,2.52.53,3.63,2.35,3.82,5,.19,2.79,2.7,3.05,4.78,3.72,1.85.6,2.55-.49,3.25-1.87s2.24-2,3.83-2.07c4.31-.27,8-2.26,11.58-4.36,1.86-1.09,1.63-3,1.21-4.6-.5-1.92-2.1-1-3.35-.84-1.1.15-2.33.62-2.85-1,.2-1.41,1.39-1.64,2.43-2,3.88-1.46,7.61-3.28,11.47-4.79,2.1-.82,3.49-2.09,3.37-4.61-.06-1.2.05-2.56,1.81-2.65,5.66,2.35,11.29,1.85,16.84-.3,2.36-.91,2.47-1.47,1-3.5-.79-1.1-1.65-2.13-1-3.61A.75.75,0,0,1,597.22,231.58Z" transform="translate(-84.53 -0.48)"/><path class="cls-4" d="M222.44,231.62a6.29,6.29,0,0,1,2.5,6.16,5.35,5.35,0,0,1-.34,1.08c-1.39,4.25-1,8,3,10.71a8.69,8.69,0,0,1,1.85,2.14c1.2,1.61.82,2.69-.92,3.48a4.54,4.54,0,0,0-1.88,1.69,4,4,0,0,1-3.88,2.32c-1.78-.07-3.57.21-5.36.29a4,4,0,0,1-1.34-.24c-2.15-.67-4.33-1.27-6.43-2.09-2.26-.88-4.4-2-6.64-3-3.39-1.43-6.81-2.78-10.22-4.16-.09,0-.2,0-.28-.07-3.59-2.57-7.33-1.57-11.32-1-5.11.68-11.38-4.75-9.66-10.6.29-1,1.35-1.73,2.05-2.59,2.15,3.27,5.11,3.75,8.66,2.67,2.25-.69,4.58-1.27,6.95-.35,3.83,2.32,8.22,2.09,12.41,2.53,6.28.66,6.23.44,8.78-5.43.85-1.95.82-4.7,3.81-5.11a1.66,1.66,0,0,1,1.08.29c1.8,1.77,3.75,2.41,6.09,1C221.69,231.19,222.12,231.38,222.44,231.62Z" transform="translate(-84.53 -0.48)"/><path class="cls-3" d="M560.75,253.43a12.78,12.78,0,0,0,3.09,0c2.94-.75,3.63-.2,3.79,2.84.14,2.44-.26,4-3,4.84-2.53.72-4.8,2.36-7.26,3.41a8.2,8.2,0,0,1-3.06.35c-2,0-3.49.47-4,2.69-.42,1.67-1.48,2.27-3.22,1.42a21.11,21.11,0,0,0-3-.8c-1.69-.53-3.4-2.69-2.93-4.28a2.42,2.42,0,0,0-1.56-3.2c-2.52-.94-4.83-2-6.51-4.21-.13-.17-.54-.12-.81-.16a6.81,6.81,0,0,1-1.46-7.5,3.69,3.69,0,0,0-3.09-5c-4.45-.32-9-7.34-9.22-11a11.62,11.62,0,0,1,3.84-9.61,15.22,15.22,0,0,0,1.95-3c2.63.13,5.12,1.06,7.71,1.43a3.4,3.4,0,0,1,2.55,2.78,4,4,0,0,1,.09.91,4.7,4.7,0,0,1-.09.89c-1,4.92-2.58,9.72-3.13,14.73,0,3.7.55,4.37,4.16,5,.74.13,1.47.31,2.22.37,1.39.07,1.93-.86,2.39-2s.75-2.55,2.12-3.15a2.7,2.7,0,0,1,1.54.45c2.25,1.8,3.86,4.17,5.62,6.39a57.21,57.21,0,0,0,5.44,6.19c1.62,1.22,3,1.06,4-.77A1.31,1.31,0,0,1,560.75,253.43Z" transform="translate(-84.53 -0.48)"/><path class="cls-5" d="M387.74,299.69c3-.38,5.34.89,7.92,2.31,6.25,3.46,11.5,8.14,17,12.53a14.82,14.82,0,0,0,8.17,3.58c2.22.18,4.32,1.76,6.51,2.62,1.06.42,2.23.56,3.33.9a8.9,8.9,0,0,1,2.52,1c1.53,1.08,2.83,1.37,4.15-.31,1.06-1.34,1.94-.91,2.47.5,1.18,3.15,3.69,4.91,6.48,6.48,1.47.83,2.76,2,4.2,2.87a6.17,6.17,0,0,0,1.85.46,5.36,5.36,0,0,0,.06-1.77c-.78-2.46.57-4.4,1.51-6.41.63-1.36,1.54-.71,2.25,0a3.35,3.35,0,0,0,4.07.91c.33,2.14-1,3.63-2.28,4.92-1.52,1.59-3.5,2.74-5.18,4.2a12.37,12.37,0,0,0-1.67,2.3c-.19,1.49-1.18,1.26-2.11.91-1.41-.53-2.79-1.17-4.17-1.77-.52-.23-1.12-.81-1.52-.68-2.57.78-4.12-1-5.92-2.16-.47-.31-1.15-.81-1.52-.67-2.7,1-3.8-1.41-5.54-2.42a44.21,44.21,0,0,0-3.82-2.25c-1.37-.62-2.78-1.25-3.59,1-.4,1.13-4.22,1.23-5.37.42L407.15,322a35,35,0,0,0-4.57-5.14l-13.4-15.4C388.69,300.85,388.22,300.27,387.74,299.69Z" transform="translate(-84.53 -0.48)"/><path class="cls-6" d="M531.73,196.19l-14.38-10.71c-1.58-1.31-2.53-2.71-1.06-4.74.63-.87.09-2,.31-3,2.13-2.21,3.67.36,5.5.68,3.5.89,6.92,2,9.75,4.36a8.41,8.41,0,0,0,3.62,1.54,16,16,0,0,1,7.32,3.55,12.06,12.06,0,0,1,2.4,7.34c.11,2.16,3.24,5.5,5.31,5.68.27,0,.16-.65.33-1a.94.94,0,0,1,.63-.4c1.65.15,2.8.79,2.8,2.7,0,.61.57.9,1,1.24a33.8,33.8,0,0,0,3.18,2.38,6.37,6.37,0,0,0,2.73,1.4c2.76.59,4.53,3.22,4.26,6.36-1.88.94-3.42-.5-5.1-.83a8.14,8.14,0,0,0-4.67,0c-2.74-.44-3.91.23-4.08,3.12a10.59,10.59,0,0,1-2.58,6.29c-1.23,1.56-2.37,1.95-4.07,1.27-1.39-2.53.87-4.22,1.51-6.26.93-3,3-5.5,3.36-8.71-.34-2.44-2.44-2.49-4.15-3.05-.93-.31-2.16.28-2.81-.9-.18-2-.93-3.31-3.34-3.16-2,.12-3.25-1.77-5-2.35C533.23,198.39,532,197.78,531.73,196.19Z" transform="translate(-84.53 -0.48)"/><path class="cls-7" d="M450.13,245.86l9.51,7.15c2.43.83,3.7,3.3,6,4.29,1.86,2,.69,2.86-1.33,3.35a2.43,2.43,0,0,1-1.27-.5c-2.47-1.7-2.53-1.67-3.08,1.38a4.29,4.29,0,0,0-.3,1.07c0,3.37,0,3.4-3.56,2.53a2.81,2.81,0,0,0-2.63.41,3.4,3.4,0,0,1-2.9-.81,3,3,0,0,0-4,.17c-1.34-1.92-1.35-4.12-1.32-6.33a3.85,3.85,0,0,1,2.55-2.76c1.3-.6,1.36-1.39.32-2.35a8.06,8.06,0,0,0-4.38-2.35,3.85,3.85,0,0,1-1.39-.69,14.08,14.08,0,0,0-1.83-1.31,17.47,17.47,0,0,1-3.54-2.9,1.77,1.77,0,0,1-.41-1.84,1,1,0,0,1,.67-.34,9.7,9.7,0,0,1,3.08,1.43,5.06,5.06,0,0,0,2.07.56,3.17,3.17,0,0,1,.71.24,3.28,3.28,0,0,1,.61.45,7,7,0,0,1,.53.56c1,1.15,1.76.1,2.29-.47A3.23,3.23,0,0,1,450.13,245.86Z" transform="translate(-84.53 -0.48)"/><path class="cls-8" d="M555,168.19a.35.35,0,0,1,.11-.3,3.51,3.51,0,0,0,.4-.85l1.86-3.8c1.5-1,3.28-1.35,4.83-2.32s2.74.6,3.86,1.58c.68,3.1-1.12,5.7-1.73,8.53a6.79,6.79,0,0,1-.29.74c-.2.47-.4.94-.62,1.39a4.7,4.7,0,0,0-.71,2.39c-1,2.35-1.54,4.83-2.4,7.22a5.33,5.33,0,0,1-1.61,2.89,2.68,2.68,0,0,1-1.61.39,3.7,3.7,0,0,1-.81-.15,6.65,6.65,0,0,1-1.11-.51,6.08,6.08,0,0,1-.69-.43c-1.08-.73-2.47-.75-3.53-1.5s-2.15-1.21-1.74-2.75a.3.3,0,0,1,.12-.31c.4-.93,1.18-1.64,1.55-2.6a.26.26,0,0,1,.13-.27c1-2.3,1.89-4.63,2.86-6.93l0,0c.41-.32.31-.88.57-1.27a.37.37,0,0,1,.12-.34C554.66,168.74,554.89,168.5,555,168.19Z" transform="translate(-84.53 -0.48)"/><path class="cls-9" d="M558.42,185.42l1.26-2.78a1.33,1.33,0,0,1,1.1-.42c1.49.38,2.35,1.66,3.55,2.46a5.87,5.87,0,0,0,2.81,1.7c.56.45,1.12,1.31.64,1.68-2.71,2.13.28,2.85.93,4.11.52,1,2.34,1.18,1.76,2.86l-2.31.71c-1.9-2.35-3.9-4.63-5-6.28,1.8,1.74,2.45,4.36-.59,7-.39.94.08,2.06-.59,2.95-1.14.82-2.4,1.68-2.85,3-.85,2.41-2.22,2.59-4.18,1.46-1-.42-2.71-.48-1.2-2.25l-2.13-1.8c.8-1,2.48-1.32,2.53-3a2.23,2.23,0,0,0-.79-3.38c-1.67-1-3.09-2.46-5-3a3.62,3.62,0,0,1-1.5-4.26,1.18,1.18,0,0,1,1.15-.38,1.46,1.46,0,0,1,.7.42c1.36,1.77,3,2.75,5.24,1.74.24,0,.37.5.47.33s-.35-.23-.47-.44c-.76-.54-1.71-1.08-1.23-2.16a1.75,1.75,0,0,1,2.54-.87,2.11,2.11,0,0,1,.43.07.8.8,0,0,0,.71.49,1.34,1.34,0,0,1,.41.08C557.3,185.69,557.87,186.62,558.42,185.42Z" transform="translate(-84.53 -0.48)"/><path class="cls-6" d="M223.87,186c-2.49-1.09-3.73.44-5,2.24-1.51,2.17-3.19,4.23-4.8,6.34a11.89,11.89,0,0,1-2.41,3.85,12.31,12.31,0,0,0-2,3.16,1.53,1.53,0,0,1-.74.26c-2-.54-3.11-2.24-4.31-3.73a8.84,8.84,0,0,0-2.87-2.55,2,2,0,0,1-.72-1.9,2.1,2.1,0,0,1,.35-.75c2.81-1.22,4.64-3.73,7-5.56,2.12-1.66,4.32-3.31,6.34-5.13a8.36,8.36,0,0,1,1.11-.87c.9-.56.52-2.32,1.81-2.28s2.24,1.3,3.3,2,1.66,1.8,2.66,2.52C224.21,184.35,224.58,185.11,223.87,186Z" transform="translate(-84.53 -0.48)"/><path class="cls-10" d="M516.77,178.06c.12,1.06.74,2.66.28,3.08-1.55,1.42-.78,2.37.14,3.51.16.19.11.55.16.82a10,10,0,0,0-2,.91c-6.4,4.79-17,.88-19-7.21,0-1.63.94-2.23,2.47-2.09,1.15.37,1.77,1.47,2.78,2,.35.11.43-.1.43-.41a4,4,0,0,1,0-.66,6.44,6.44,0,0,1,.93-2.82c1.19-.29,1.34.81,1.79,1.41a4.93,4.93,0,0,0,5.08,2.26c1.52.31,2.75-.76,4.17-.91C514.92,177.91,515.88,177.32,516.77,178.06Z" transform="translate(-84.53 -0.48)"/><path class="cls-11" d="M385.49,285.89l-1.14-.57c-.76-1.07-1.52-2.14-2.29-3.2-1.23-1.7-1.13-2.78.52-4.06,1.31-1,2.69-1.95,4-2.91.61-.59,1.56-.34,2.17-.9a1.84,1.84,0,0,0,1.21-1.54c1-2.32,2.26-1.18,3.53-.31,1.62,1.82,2.69,1,3.53-.76a2.68,2.68,0,0,1,1-1.22c.09,0,.2-.06.28,0,1.65.61,3.68-.2,5.09,1.25,1.68,1.72-1.07,3-.49,4.69a1.86,1.86,0,0,1-1.87,1.33c-1.29-.92-2.31-1-2.65.89a2,2,0,0,1-.89.75c-.81-.35-1.1-.06-.94.78-1.34,2.22-3.68,3.13-5.76,4.37C389.14,285.31,387.85,287.58,385.49,285.89Z" transform="translate(-84.53 -0.48)"/><path class="cls-12" d="M415.14,218c-6.12-1.46-9.17-5.87-11-11.46a5.1,5.1,0,0,1-.26-2.22c.69-4.71,2.49-8.9,6.43-11.81,3.43-2.54,7.79-1.58,10.41,2.12a17.07,17.07,0,0,0-8.31,1.5c-1.87-.13-1.84,2.72-4,2.52-.41,0,.43,1.32.86,2,.69,1.05,2.67,1.38,1.85,3.29-1.11.68-2.14,1.53-1,2.83,1.43,1.6,1.92-.33,2.74-.94,2.14.12,2.32,1.7,2.48,3.31-2,2.89-1.74,3.73,2,6.52l1.26.88a2.79,2.79,0,0,1,.55.55,1.65,1.65,0,0,1,.23.74,2.56,2.56,0,0,1-.94,2.07C417.06,219.81,416.18,218.79,415.14,218Z" transform="translate(-84.53 -0.48)"/><path class="cls-13" d="M415.14,218l3.38,1.76c1.76.67,1.75,2.25,1.92,3.74a20.36,20.36,0,0,0,.62,4.18,3.62,3.62,0,0,0,2.6,3.06c2.46.68,4.28,2.3,6.17,3.84a13.09,13.09,0,0,1,1.4,1.47,2.12,2.12,0,0,1,.31.76c0,.78-.22,1.36-1.08,1.49-3-1.22-6.36-1.65-9.2-3.49-1.36-.88-2.39.05-2.22,2.25a8.72,8.72,0,0,1-1.59,5.56c-1.48.63-2.42-.42-3.48-1.1a1.28,1.28,0,0,1-.18-1.18c.35-.5,1.14-1.25,0-1.5-3.15-.7-3.68-3.48-4.9-5.74.15-2.45-.14-5,1.63-7.09l5,1.88c1.56.59,2.22.18,1.87-1.44C416.77,223.64,417.24,220.48,415.14,218Z" transform="translate(-84.53 -0.48)"/><path class="cls-14" d="M474.4,278.89a49.8,49.8,0,0,1-5.49,1.4,11.57,11.57,0,0,1-7.43-1.32,2.16,2.16,0,0,1-2.09-2.3c.24-.88,1.08-1.28,1.57-2a4.67,4.67,0,0,0,.27-5.56c-1.14-1.84-.83-2.94,1.34-3.48,1-.25,1.74-1.11,2.71-1.52.29,0,.63,0,.79.16a9.27,9.27,0,0,0,7.33,3.85c.43.82,0,1.61-.08,2.4-.45,1.57.37,2.65,1.35,3.72s2,2.07,1,3.64Z" transform="translate(-84.53 -0.48)"/><path class="cls-15" d="M456.19,220.87l10.2-6.88a7.63,7.63,0,0,1,2.71-1.08,1.8,1.8,0,0,1,1.34.28c1.62,1.69,3.63,1.95,5.81,1.71a1.85,1.85,0,0,1,.84.89c.26,2.5-2.61,3.1-3.1,5.14h0c-3,1.49-4.94,4.36-7.72,6.21-1.39.93-2.5,1.61-4.11.91C460.87,225.07,458.14,223.3,456.19,220.87Z" transform="translate(-84.53 -0.48)"/><path class="cls-11" d="M222.44,231.62c-.19,0-.43-.06-.55,0-2.71,2.06-5,1.39-6.93-1.12-2.07-1-3.22-2.88-4.63-4.5-4.16-4.78-7.9-10-12.86-14-.89-1.41-2.74-2.34-2.27-4.45a3.43,3.43,0,0,1,.44-1.12c1-1.16,2.45-1.53,3.67-2.29a1.54,1.54,0,0,1,1.4.64c.74,1.83,2.13,3.22,3.29,4.76a13.57,13.57,0,0,0,1.18,1.76l.7.75a5.5,5.5,0,0,1,.46.51,5.63,5.63,0,0,1,.4.56,11.33,11.33,0,0,0,1.3,1.65,5.2,5.2,0,0,1,.43.59,23.83,23.83,0,0,0,1.88,2.74,8.12,8.12,0,0,1,.66.87,8.08,8.08,0,0,0,1.25,1.71,7.2,7.2,0,0,1,.7.87c1.15,1.56,2.29,3.13,3.36,4.74.16.19.31.39.47.58s.31.38.45.58l.22.29.47.57c1.86,2,2.75-.56,4.11-.89a1.11,1.11,0,0,1,1.17.9Z" transform="translate(-84.53 -0.48)"/><path class="cls-7" d="M223.28,183.74l-5.25-4a30.4,30.4,0,0,1-2.57,2.72c-3.21,2.67-6.51,5.24-9.73,7.91a5.71,5.71,0,0,0-1.79,2.15c-.57,1.53-1.43.78-2.27.54a.87.87,0,0,1,0-1.45c1.87-1.61,3.69-3.28,5.62-4.81,2.54-2,5.23-3.84,7.71-5.93.61-.51.72-1.67.94-2.56a12.87,12.87,0,0,1,3.71-6.85c2.39-2.31,5.33-1.08,7.41-2.84.09-.07.36,0,.54.1a10.71,10.71,0,0,1,6.48,5.95,6.81,6.81,0,0,1-1.63,8.06c-1.23-1.42-1.44-3.66-3.52-4.4a4.23,4.23,0,0,1-.74-3.72,2.64,2.64,0,0,0-.77-2.81c-2.45-1-4.88-.22-6.9,2.3-.56,1.42.83,1.43,1.45,2a1.68,1.68,0,0,1,.61,1.43C222,179.65,224.08,181.54,223.28,183.74Z" transform="translate(-84.53 -0.48)"/><path class="cls-3" d="M223.19,228.33l-1-.63a81.53,81.53,0,0,1-6.78-12.6,1.56,1.56,0,0,1,.82-1.44c2.6-.09,4.55-2,7-2.49,1.28,1.36,2.54,2.74,3.84,4.08a9.12,9.12,0,0,1,.94,11.38C226.83,228.27,225,228.42,223.19,228.33Z" transform="translate(-84.53 -0.48)"/><path class="cls-8" d="M419.81,223.71l-1.29-3.91.65-2.32a1.35,1.35,0,0,1,1.53-.32,2,2,0,0,1,.9,1c.78,1.71,1.73,2.21,2.88.34a1.74,1.74,0,0,1,2.06-.9c.15-.13.29.56.5,0a1.16,1.16,0,0,1,.6-.43.27.27,0,0,0,.06-.45c-.26-.78-.62-1.55.06-2.29.83-.36,1.26.2,1.71.73h0a1.35,1.35,0,0,0,.59.56h0a1.81,1.81,0,0,0,.59.62l5.72,12.47a2.7,2.7,0,0,1,.19,1.31c-.94,1.74-2.38,1-3.72.74s-2.1-1.24-3.2-1.78c-3,.06-4.79-2.62-7.51-3.2A6.36,6.36,0,0,1,419.81,223.71Z" transform="translate(-84.53 -0.48)"/><path class="cls-16" d="M444.89,229c.08-.27.07-.67.25-.79,3.52-2.42,7.06-4.81,10.59-7.21,2,2.25,4.88,3.67,5.82,6.79a4.32,4.32,0,0,1-1.87,2.55c-3-.36-4.75,2.13-7.19,3a3.5,3.5,0,0,1-.78-.07,1.3,1.3,0,0,0-1.76,1c-.69,2-2.65,3.3-2.73,5.73,0,1.52-1.59,2.23-3.17,2.28-.91-.3-1.4-.85-1.13-1.86-.8-.92,1.74.62.62-.93-1.56-2.18.15-4.37.58-6.55,1.11-.61,3.37-.88.74-2.57A.92.92,0,0,1,444.89,229Z" transform="translate(-84.53 -0.48)"/><path class="cls-10" d="M451.69,232.87h.57a1.86,1.86,0,0,0,2.36.2c1.62-1.14,3.59-1.7,5.07-3.06l1.72-2.29.23.06.13.19v-.23l.24,0c1.35-.21,2.56.22,3.8-1.46,1.59-2.16,4.27-3.52,6.55-5.15.4-.29,1.08-.18,1.64-.25q-8,7.8-16,15.6c-2.52,2.43-5,4.86-7.67,7.17-.93.82-.57,1.42-.18,2.18a8.94,8.94,0,0,0-4.06,2.32c-1.52,1.27-2.11.53-2.36-1,1.11-1.18.38-3,1.43-4.18s3.52-1.56,2.53-4.07a.41.41,0,0,1,.27-.46c2.24-.58,2-2.68,2.68-4.25A2.71,2.71,0,0,1,451.69,232.87Z" transform="translate(-84.53 -0.48)"/><path class="cls-14" d="M401.37,238.17c-2.73,1.06-5.51,1.79-8.47,1.14-1.9-2.16-2.42-5-3.41-7.53-.47-1.22.49-2.31,1.5-3.11a8.29,8.29,0,0,1,5-.61,4.81,4.81,0,0,0,2-.17,3.59,3.59,0,0,1,.81-.09,2,2,0,0,1,1.14.43c.73,3.24,3.84,4.8,5.33,7.51C405.06,238.29,403,237.81,401.37,238.17Z" transform="translate(-84.53 -0.48)"/><path class="cls-9" d="M475.65,277.92a16.5,16.5,0,0,0-1.72-3.32c-1-1.24-2.09-2.31-1.11-4,3.49.1,5.9-2.63,4.78-5.4-2.46-2.12-3.12-2.09-6.29.37-1.34-1.27-1-2.61-.17-4a1.7,1.7,0,0,1,.73-.4c1-.08,2.09.81,2.94-.17s-.21-1.51-.62-2.19a1.61,1.61,0,0,1-.31-1.57c1.51-1.64,2.92-.68,4.18.3,2,1.51,3.12,3.69,4.36,5.77-.08,2.26,0,4.53-.28,6.77C481.72,274.09,479.22,276.48,475.65,277.92Z" transform="translate(-84.53 -0.48)"/><path class="cls-17" d="M412.25,195.74c2.71-1.34,5.45-2.39,8.49-1.06l.06.07a5.16,5.16,0,0,1,.67.4l1.49.7a3.81,3.81,0,0,1,1.8,1.79c.37,1.32,1.4,2.75-.59,3.7a8.9,8.9,0,0,1-1.37,0c-.51,0-1.25-.28-1.45.33s.55.88.84,1.33a4.4,4.4,0,0,1,.52,1.47c.1.39.21.78.29,1.17a2.82,2.82,0,0,1,0,.83,1.44,1.44,0,0,1-1.57,1.14c-3.36-.65-5.37-3.51-8.24-5-.62-1.24-1.29-2.45-2-3.66S410.37,196.34,412.25,195.74Z" transform="translate(-84.53 -0.48)"/><path class="cls-18" d="M548.21,186.09l-1.14.06c-.62.48-.57,1.06-.32,1.73a1.75,1.75,0,0,1-.83,2.35,4.29,4.29,0,0,1-3.38-2c-2.83-1.13-5.67-2.23-8.48-3.4-.94-.39-1.78-1-2.71-1.46-3.08-1.45-6.19-2.86-9.28-4.28-1.3-1-2.43-2.09-1.23-3.9,2.85,1.07,5.74,2.06,8.55,3.24,4.39,1.84,8.79,3.67,13.07,5.76,3,1.46,3.38,1.45,4.7-1.55.3-.67,1.06-1.14,1.6-1.71C549.54,182.75,550.55,184.6,548.21,186.09Z" transform="translate(-84.53 -0.48)"/><path class="cls-14" d="M570.48,195l-5.63-6.29c.83-.8,3.79.83,2.21-2.07a1.84,1.84,0,1,1,2.75-2.42,2.24,2.24,0,0,0,2.58.41c2.24,1.07,3.63.38,4.18-2a1.06,1.06,0,0,1,.78-.21,2.52,2.52,0,0,1,1.54,1.92,9.48,9.48,0,0,0-.2,6.24,3.65,3.65,0,0,1-1.39,4Z" transform="translate(-84.53 -0.48)"/><path class="cls-17" d="M186.74,176.37q4.81,5.56,9.62,11.12c.41.47.88.89,1.32,1.33.1.61.63.9,1,1.31h0a.42.42,0,0,1,.2.41c0,.16-.07.24-.11.24-1.69.54-3.73.44-4.64,2.47a2.27,2.27,0,0,1-.59.53c-1.43.46-2.31-.22-2.94-1.42a4.56,4.56,0,0,0-.62-1.69,11.28,11.28,0,0,0-1-1.49,3.57,3.57,0,0,1-.39-.65,23.76,23.76,0,0,0-5.35-7.43,3,3,0,0,1-.38-.7c-.1-1-1-1.88-.64-3a1.34,1.34,0,0,1,1-.31C185.1,177.41,185.77,177.29,186.74,176.37Z" transform="translate(-84.53 -0.48)"/><path class="cls-12" d="M603.61,216.88c1.38,5.39-.4,10.51-4.58,13.19-1-.77-1.47-1.93-2.33-2.81-1.4-1.43-2.73-2.79-1-5,.74-.94.29-2.56.05-3.86a2.69,2.69,0,0,1,1-2.47,4,4,0,0,1,.56-.47c1.14-1.45-1.63-2.46-.45-3.91,3-.33,4.29,2.12,6.05,3.79a1,1,0,0,0,.07.46A1.69,1.69,0,0,1,603.61,216.88Z" transform="translate(-84.53 -0.48)"/><path class="cls-12" d="M398,270.55l-.55,1.17c-1.43,0-3.05-.62-4,1.13-.4-.2-.82-.38-1.2-.6-1.4-.82-1.73-.12-1.67,1.16-.42.6-1.27.57-1.69,1.17-.44,1.43-1.47.55-2.27.58.13-.55.07-1.32.42-1.6,4.92-4.05,9.95-8,14.82-12.06,2.51-2.11,4.75-4.52,7.13-6.77,1-.9,1.82-2.07,3-2.57a5.08,5.08,0,0,0,2.73-3.32c1.57-.52,2.12.41,2.41,1.71a5.15,5.15,0,0,1-3.54,3.67c-3.33,1.3-5.16,4-5.84,7.45-.24,1.21-.55,2.1-2,1.65s-2.33.19-3.12,1.27a10.16,10.16,0,0,1-1.87,1.73C399.4,267.42,398.16,268.64,398,270.55Z" transform="translate(-84.53 -0.48)"/><path class="cls-19" d="M391.14,228.89c-1.47,1.85-1.24,3.51.08,5.48.93,1.4,1.15,3.27,1.68,4.93-5.85-.51-11.38-5.26-12.55-10.84-.25-1.17-.35-2.37-.52-3.56,2.39-1.55,3.37,1,5,1.72a20.08,20.08,0,0,0,2.31,1.86c.49.1.81-.22,1.16-.46a3,3,0,0,1,1.3-.52A1.66,1.66,0,0,1,391.14,228.89Z" transform="translate(-84.53 -0.48)"/><path class="cls-12" d="M577.3,194.61c1-2.28,1.3-4.53-.13-6.79-.2-.32,0-1,.18-1.45a21.93,21.93,0,0,1,1.18-2.13,2.16,2.16,0,0,1,1.31-.4c1.79-.24,1.75-1.12.74-2.27-.49-.56-1.17-1-1.44-1.71a43.89,43.89,0,0,0,0-4.88c2-.7,3,.52,3.91,1.94l.54.56a15.67,15.67,0,0,1,2.29,5.73C586.53,188.32,582.88,194,577.3,194.61Z" transform="translate(-84.53 -0.48)"/><path class="cls-12" d="M183.25,180.58a.33.33,0,0,0,.09.35A35.3,35.3,0,0,1,189,189h0a2,2,0,0,1,.84,1.14,1.63,1.63,0,0,0,.51.84,1.22,1.22,0,0,1,.47.8c.76.94,1.26,2.28,2.89,1.92a2,2,0,0,1,2.66,1.53c-.86,2.91-2.41,3.93-4.9,2.79-1.41-.65-2.33-.14-3.41.42a2.29,2.29,0,0,1-2.55-2.33,11.66,11.66,0,0,0-1.3-3.29,1.33,1.33,0,0,1,1.09-1.55c.68-.27,1.77.21,2.06-.46.38-.87-.6-1.43-1.18-2-1.05-1-2.36-1.82-3-3.25-1.91-3.43-3.89-6.82-5.66-10.31-.38-.75,0-1.91.1-2.88,1.31-.18,1.28,1.1,1.88,1.7l.39.53.2.25c.14.16.28.33.41.49a4.16,4.16,0,0,1,.35.52c.11.18.21.36.32.54l.36.53a2.41,2.41,0,0,1,.33.59,2.65,2.65,0,0,0,.23.68A8.31,8.31,0,0,1,183.25,180.58Z" transform="translate(-84.53 -0.48)"/><path class="cls-13" d="M381.55,218.12a2.22,2.22,0,0,1,.07-.84c1.73-3.18,8.11-6,11.68-5.33a5.68,5.68,0,0,0,3.08-.51,3.87,3.87,0,0,1,3.91-.09c4.26,2.24,7.74,5,8.78,10a41,41,0,0,0,1.34,4.22c-2,.19-3.1-.58-3.09-2.68a3,3,0,0,0-1.64-2.5,17,17,0,0,0-3.47-2.34c-.93-.5-1.92-.93-2.25-2.08-.63-2.35-2-2.63-4-1.5-4.64-.31-8.35,2.27-12.33,4A2,2,0,0,1,381.55,218.12Z" transform="translate(-84.53 -0.48)"/><path class="cls-20" d="M482.41,263.32c-.83-.83-1.67-1.64-2.47-2.5-.95-1-1.76-2.17-2.79-3.09a2.48,2.48,0,0,0-3.33-.23c-1.77.54-2.71-1.9-4.5-1.25-1.4.09-2.33,1.7-3.9,1.2-2.7-.48-4-2.74-5.77-4.44.56-.43,1.06-1.09,1.68-1.25,7.67-1.94,13.7.22,18.77,6.65C481.2,259.81,482.93,261.08,482.41,263.32Z" transform="translate(-84.53 -0.48)"/><path class="cls-21" d="M565.89,162.66c-.35-.1-.84-.09-1-.32-1.22-1.4-2.16-1.4-3.63-.07-.86.78-2.54.67-3.85,1,1.65-3.44,3.25-6.9,5-10.32,1.44-2.9,3.34-3.19,5.79-1,.28.25.52.54.78.82C569.69,155.76,568.06,161.16,565.89,162.66Z" transform="translate(-84.53 -0.48)"/><path class="cls-12" d="M406,219.71c1.11,1,2.7,1.63,2,3.77-.13.4,1.53,1.36,2.37,2.07a1.86,1.86,0,0,1,.14.49l-1.15,7.41a1.78,1.78,0,0,1-.67.51c-3.61.76-3.68.79-5.29-2.42-.77-1.54-2.42-2.13-3.31-3.48a8.71,8.71,0,0,0-2.09-2.87,2,2,0,0,1-.37-2c.46-.74.94-1.45,2-1.18,1,.8,1.24,2.1,2.11,3a1.57,1.57,0,0,0,1.79.45.83.83,0,0,0,.54-.89,1.74,1.74,0,0,0-1-1.24c-1.06-.62-2.45-.35-3.37-1.31.81-1.9,2.73-1.42,4.18-1.93C404.57,219.84,405.39,220.3,406,219.71Z" transform="translate(-84.53 -0.48)"/><path class="cls-22" d="M583.05,176.92l-4.1-1.67c-.26,1.39-1,1.43-2,.72-3.62-2.61-6.94-1.52-10.18.78a3.71,3.71,0,0,1-1.15.63c-1.7.17-3.15,0-3.2-2.23l.69-2.22c.28-.33.18-.83.5-1.15h0c1.49-1.13,1.75-2.91,2.22-4.51,1.4-4.75,3.09-9.44,3.55-14.42,1.56.74,1.81,2.06,1.48,3.56-.64,2.93-1.4,5.84-2,8.78a25.28,25.28,0,0,0-.34,4.67c0,.82.18,2.25.54,2.34a17.69,17.69,0,0,0,3.85.12,10.53,10.53,0,0,1,2.85.13c1.33.41,2.09,1.83,4.15.86C581,172.79,582.86,174.89,583.05,176.92Z" transform="translate(-84.53 -0.48)"/><path class="cls-18" d="M586.44,209.45l1.13,0c1.07-.19.93.59,1,1.22a2.07,2.07,0,0,1-.3.72,4.73,4.73,0,0,1-1.48,1.29,2.52,2.52,0,0,1-1.6,0c-5.84-3.13-11.42-6.68-17-10.22a7.58,7.58,0,0,1-2.58-2.6,2.4,2.4,0,0,1-.07-1.68c.58-1,1.21-2,2.59-1.92,1.92,1.46,3.83,2.95,5.77,4.38,3.79,2.78,7.6,5.53,11.41,8.3A1.5,1.5,0,0,0,586.44,209.45Z" transform="translate(-84.53 -0.48)"/><path class="cls-20" d="M189,238.59c-2.77-.71-5.36.24-8,.85-2.18.51-4.4.74-6.11-1.05a9.77,9.77,0,0,1-1.31-2.66l-.45-1.46a2.77,2.77,0,0,1,2.15-.94c2.32-.18,4.25-1.37,6.22-2.45a2.33,2.33,0,0,1,.83-.08c2.91,1.07,4.53,3.62,6.5,5.74A1.42,1.42,0,0,1,189,238.59Z" transform="translate(-84.53 -0.48)"/><path class="cls-7" d="M422,204.86l-.14-1.64c.05-1.07.77-1,1.53-.93,1.47.63,0,3.49,1.89,3.15,1.26-.23-.22-2.42.53-3.6,1-1.18,2.54-1.06,3.71-1.81,1.48-.15,2,.84,2.27,2s.27,2.45.91,3.55c-.42,1.73-.85,3.45-1.26,5.18s-1.08,2.59-3.41,1.14l1.4,3.23-1.71-.72c-1.72-.45-1.66-2.41-2.84-3.32a2.78,2.78,0,0,1-.41-.61,8.15,8.15,0,0,0-.73-2,6.3,6.3,0,0,1-1.19-2.54,1.28,1.28,0,0,0-.16-.51A2.36,2.36,0,0,0,422,204.86Z" transform="translate(-84.53 -0.48)"/><path class="cls-6" d="M596.19,218c.71,2,1.24,3.89-.42,5.71a1.34,1.34,0,0,0,0,1.26c.58.85,1.41,1.53,2,2.39a20.65,20.65,0,0,1,1.27,2.68l-1.81,1.51a1.3,1.3,0,0,0-.5.21.63.63,0,0,1-.74,0c-1-2.91-3.41-4.39-6.05-5.54-1.37-.59-2.52-.85-2.61,1.38-.06,1.42-.9,2.5-2.66,2-.85-2.17-2.4-4.2.1-6.5,1.2-1.11-1.44-2-1-3.41.3-1.07.22-2.42,1.84-2.53a2.93,2.93,0,0,1,1.69,1.25c.53.77.76,1.7,1.25,2.49.74,1.19,1.68,2.07,3.21,1.56,1.32-.44,3.15-.28,3-2.54A1.9,1.9,0,0,1,596.19,218Z" transform="translate(-84.53 -0.48)"/><path class="cls-7" d="M518.64,211.79c-.48-3.3.12-6.25,2.72-8.57a2.2,2.2,0,0,1,2.49-.43,9.09,9.09,0,0,1,4,7.44,1.39,1.39,0,0,1-1.74.78c-.85-.22-1.32-1-2.19-1.51,0,1.74,1,1.93,2.27,1.87a1.25,1.25,0,0,1,1.23,1.39,3.23,3.23,0,0,1-1.44,2,2.18,2.18,0,0,1-1.24.2C522.35,214.68,520.56,213.1,518.64,211.79Z" transform="translate(-84.53 -0.48)"/><path class="cls-10" d="M223.28,183.74c-.52-1.59-1.09-3.16-1.52-4.77-.12-.44.19-1,.3-1.5.48-.37.95-.14,1.41,0a4.16,4.16,0,0,1,1.14.84,2.4,2.4,0,0,0,1,.72,2.2,2.2,0,0,0,.89,0,5.38,5.38,0,0,0,.55-.29l.26-.2a5.38,5.38,0,0,1,.54-.42c.42-.22.83-.52,1.29-.09,3,.19,2.86,2.63,3.29,4.65-2.26,2.67-5,4-8.58,3.28Z" transform="translate(-84.53 -0.48)"/><path class="cls-13" d="M497.87,170a3.43,3.43,0,0,1,2.31-3.16c2.77-1.36,5.52-2.82,8.66-2.69a8.5,8.5,0,0,1,4.39,1.42,51.9,51.9,0,0,1,6.58,5.76c.6.6.5,1.89.73,2.86-1.79.24-2.87-.86-3.87-2.08-4-2.94-8.05-5.56-13.35-3.49C501.28,168.22,499.87,170.29,497.87,170Z" transform="translate(-84.53 -0.48)"/><path class="cls-18" d="M170.68,218.53c1.13-.73,2.22-1.52,3.4-2.16.88-.48,2.06-.52,2.79-1.14a52.35,52.35,0,0,0,6.08-5.84c1.84-2.19,1.67-2.34.37-5.75,2-2.24,3.37-2.18,5.83.25a2.37,2.37,0,0,1,.34.81,2.5,2.5,0,0,1,0,.85c-2.17,4.17-6,6.93-9,10.43-.48.57-1,1.1-1.54,1.65a7,7,0,0,1-2,1.29c-1.25.25-2.53-.42-3.78.08a3.65,3.65,0,0,1-1.94,0A1.22,1.22,0,0,1,170.68,218.53Z" transform="translate(-84.53 -0.48)"/><path class="cls-11" d="M189.15,204.28c-1.8-1.59-3.68-2.35-5.83-.63l-1.12.05c-2.47-1.65-3.37-4.44-4.89-6.78a1.55,1.55,0,0,1,.14-1.2,1.68,1.68,0,0,1,.7-.38c1.94.41,3.89,1.09,5.68-.44.27-.05.4.3.68.22-.09-.17-.38-.08-.43-.32-.51-.76-1-1.52.35-1.93,1,.68,1.84,1.3,1.63,2.88-.09.68,1.16,1.54,1.8,2.32a2.38,2.38,0,0,1,.84,2.11c-.43,1,.37,1.69.79,2.47C189.8,203.22,190.38,204,189.15,204.28Z" transform="translate(-84.53 -0.48)"/><path class="cls-6" d="M223.24,211.17c-1.95,1.72-3.93,3.35-6.81,2.85-2.94-3-3.4-5.56-1.49-8.38a6.31,6.31,0,0,1,1.29-2.25,2.15,2.15,0,0,1,2.46-.44,32.75,32.75,0,0,0,3.8,5.49,2.19,2.19,0,0,1,.85,2.24A2.05,2.05,0,0,0,223.24,211.17Z" transform="translate(-84.53 -0.48)"/><path class="cls-23" d="M534,224.94c-.41-1.86-1.5-2.67-3.45-3a48.09,48.09,0,0,1-6.33-1.74l-1.23-1.5a.8.8,0,0,1-.05-.86c1.65-1.81,3.93-2.18,6.15-2.64a3.07,3.07,0,0,1,3.26,1.27c.9,1.23,2.15,2.14,3.06,3.35C535.81,221.8,536.07,223.7,534,224.94Z" transform="translate(-84.53 -0.48)"/><path class="cls-12" d="M223.35,210.68a44.84,44.84,0,0,1-3.39-4.1,15.53,15.53,0,0,1-1.26-3.39c-.3-1.35-2.33-2-1.62-3.75,1.43-1.56,2.94-1.33,4.49-.19a17.5,17.5,0,0,1,2.91,3.3C225.94,205.42,225.91,208.27,223.35,210.68Z" transform="translate(-84.53 -0.48)"/><path class="cls-9" d="M517.32,171.73l3.21,2.46.31,1,1.23,3.9a9.07,9.07,0,0,0-2.12-.93,21.84,21.84,0,0,0-3.18-.09l-3,.53c-3.15-2.3-3.44-4.07-1.3-6.66C514.14,170,515.7,171.23,517.32,171.73Z" transform="translate(-84.53 -0.48)"/><path class="cls-18" d="M432.72,205.6a16.09,16.09,0,0,1-1.56-3.21c-.26-1.07-.4-2-1.69-2.1a1.64,1.64,0,0,1-.56-.49c-.5-1.31-2-1.77-2.61-3-.21-.08-.06-.35-.23-.45-.09.26.26.36.21.61a.9.9,0,0,1-.57.86,1.51,1.51,0,0,1-1.48-.29l-1.29-1.7.75-.08h0c-.74-1.14-1.5-2.28-2.22-3.44-.36-.57-.68-1.18-1-1.76.78-.11,1.79-.58,2.31-.26,1.84,1.13,3.91,2.23,5.18,3.89C430.5,197.52,433.61,200.77,432.72,205.6Z" transform="translate(-84.53 -0.48)"/><path class="cls-19" d="M178.54,195.58l-.87.18c-1.43.46-2-.95-3.06-1.36-1.17-1-2.33-2-1.25-3.69.64-1.69,1.93-2.36,3.65-2.76,2.14-.49,4.71-.08,6.14-2.42,1.41,1.18,2.89,2.28,4.19,3.57.48.48.53,1.39.77,2.11-.63.18-1.25.39-1.89.52a2.79,2.79,0,0,1-.83-.08c-1.65-1.84-3.49-3.18-6.18-2.5-1.8.46-2.68,1.31-1.71,3.25C178,193.4,178.75,194.35,178.54,195.58Z" transform="translate(-84.53 -0.48)"/><path class="cls-15" d="M444.27,232.86c.31,1,1.69,2-.46,2.79-.38.14.08,2.5.16,3.83a6.65,6.65,0,0,0,.14.79l-1.13.09c-1.22.77-1.94.09-2.56-.89-.08-2.44-2.84-3.26-3.31-5.46.43-1.24,1.73-1.49,2.58-2.25a23.71,23.71,0,0,1,2.47-1.75,21.37,21.37,0,0,1,2.72-1l-.06,1.06C444.47,230.94,444.67,232,444.27,232.86Z" transform="translate(-84.53 -0.48)"/><path class="cls-9" d="M177.65,196.91l4.54,6.79c-5.78.53-9.31-2-10.25-7.36a2.27,2.27,0,0,1,2.5-.43c1.18.65,1.75,1.85,2.66,2.67C177.36,198.22,175.82,196.95,177.65,196.91Z" transform="translate(-84.53 -0.48)"/><path class="cls-21" d="M179.26,174.71l-1.66-2.36c1.41-2.12,2.88-2.45,4.54-.84s3.07,3.24,4.6,4.87c-.51,2.71-.5,2.69-3.19,1.29a4.18,4.18,0,0,0-1.35-.19q-.28.49-.64.06h0a1.74,1.74,0,0,0-.58-.58h0c-.28-.34-.18-.88-.58-1.16l0,0a1.74,1.74,0,0,0-.59-.59v0C179.69,175,179.72,174.6,179.26,174.71Z" transform="translate(-84.53 -0.48)"/><path class="cls-20" d="M524.13,203.13l-2.77.1c.76-1.22,1.46-2.49,2.33-3.62.22-.29,1-.24,1.54-.16,3.8.62,4.61.23,6.5-3.26l2.95,2.36c.5,1.56-.61,2.22-1.63,2.9-.87.58-1.95.71-2.84,1.26s-2.48-1.09-2.95.9a1,1,0,0,1-.54.45,2.35,2.35,0,0,1-1.65-.39c-.26-.12-.28-.55-.66-.52Z" transform="translate(-84.53 -0.48)"/><path class="cls-7" d="M401.37,238.17a9.42,9.42,0,0,0,1.61-.77,24.82,24.82,0,0,0,1.91-1.68c.79-.67,1.5-.15,2.22.15a4.24,4.24,0,0,1,.65.45l.29.26a11.29,11.29,0,0,1,1.61,2.15c.15.22.28.44.41.66.68,1.29,2.15,2.12,2.2,3.78-.05.58-.1,1.17-.8,1.37l-.1-.14c-.31-.3-.62-.36-.92,0-2.14-1.61-4.25-3.26-6.43-4.82A22.9,22.9,0,0,0,401.37,238.17Z" transform="translate(-84.53 -0.48)"/><path class="cls-22" d="M474.43,208.07c2.93-2,3.51-1.92,5.58.47.43.49.75,1.07,1.14,1.59,2.35,3.12,1.72,4.9-2.13,6.06a1.47,1.47,0,0,1-.71-1.25,2.12,2.12,0,0,0-.28-2.07C477.29,210.92,475.27,209.94,474.43,208.07Z" transform="translate(-84.53 -0.48)"/><path class="cls-7" d="M166.27,225.47c-.78-2.28.52-4,1.67-5.67.68-.86,1.74-.52,2.6-.82,1.24.93-.28,2,.11,2.92.07.2.13.41.21.61l.16.28c.13.17.25.35.37.53a4.24,4.24,0,0,1,.34.56,9.2,9.2,0,0,1,.42.91,2.71,2.71,0,0,1,.15.67,6.16,6.16,0,0,0,.31,2.1c0,2.35-.41,2.66-2.21,1.7A15.46,15.46,0,0,1,166.27,225.47Z" transform="translate(-84.53 -0.48)"/><path class="cls-20" d="M588.16,211.1l-.58-1.64a5.47,5.47,0,0,1,4.53-.83c1,.42,2,1.13,3.06,0,.23-.23,1.1,0,1.54.21a13,13,0,0,1,6.23,6.43c-1.29-.88-2.54-1.83-3.89-2.6a12.26,12.26,0,0,0-2.5-.8c-1.59.54-3.06-.29-4.59-.41a6.72,6.72,0,0,0-1.15.2,4.84,4.84,0,0,1-.8.13A2,2,0,0,1,588.16,211.1Z" transform="translate(-84.53 -0.48)"/><path class="cls-7" d="M381.55,218.12l2-.15c2,.31,2.31,1.91,2.57,3.52a3.53,3.53,0,0,0-.78,3.1,2.43,2.43,0,0,1-.51,2.59,19.93,19.93,0,0,0-2.07-1.21c-1-.42-2-.72-3-1.06Z" transform="translate(-84.53 -0.48)"/><path class="cls-9" d="M166.27,225.47c1.32,1,2.61,1.94,4,2.85a12.76,12.76,0,0,0,1.88.87l-.18-2.08a1.59,1.59,0,0,1,2.34,1.53c-.16,1.92.81,3.45,1.12,5.18l-2.23.45C169.92,232.07,167,229.6,166.27,225.47Z" transform="translate(-84.53 -0.48)"/><path class="cls-15" d="M548.21,186.09l.56-5.17a1.91,1.91,0,0,1,.45-.21c.72,1.81,2.31,2.45,4,3a13.63,13.63,0,0,1,2,1,6.26,6.26,0,0,0-.82.2c-1.2.47-2.2,1-.45,2.13.31.21.36.81.53,1.23h0a3.56,3.56,0,0,0-1.37,0c-.63.3-1.56,1.24-1.67,1.14C550.28,188.47,549.26,187.26,548.21,186.09Z" transform="translate(-84.53 -0.48)"/><path class="cls-9" d="M569.36,152.85c1.32,2.2-.07,4.33-.46,6.35a83.94,83.94,0,0,1-3.26,11.14c-.22.64-1.34,1-2.05,1.44l2.29-9.12,3-9.92A.82.82,0,0,1,569.36,152.85Z" transform="translate(-84.53 -0.48)"/><path class="cls-10" d="M568.1,196.26l-2.1,1.91a29.24,29.24,0,0,0-4.12-1.84c0-.09,0-.21,0-.28.77-1.16,2.22-2.35,2.17-3.47-.06-1.3-1.44-2.53-2.24-3.79a3.82,3.82,0,0,1-.75-2,4.8,4.8,0,0,1,1.42.8c1.82,2.14,3.61,4.32,5.33,6.55.3.39.23,1.07.33,1.62Q568.15,196,568.1,196.26Z" transform="translate(-84.53 -0.48)"/><path class="cls-22" d="M439.7,231.77c.43,2-1.73,1.28-2.32,2.21-1.56,1.79-3.2,1.53-4.57-.09a33.27,33.27,0,0,1-3.64-4.33,1.07,1.07,0,0,1,.31-1.21,22.1,22.1,0,0,0,3.67,1.76,13.56,13.56,0,0,0,3.41.1v-.49l.39.29Z" transform="translate(-84.53 -0.48)"/><path class="cls-20" d="M221.56,199.25a5.57,5.57,0,0,0-4.57.55,1.65,1.65,0,0,1-1.55.45c-.42.19-.43-.65-1-.33-2.05,1.13-2.43-.62-3.07-1.88l2.74-3.5a4.69,4.69,0,0,0,3.81,2.5C219.19,197.19,220.35,198.47,221.56,199.25Z" transform="translate(-84.53 -0.48)"/><path class="cls-22" d="M497.87,170c1.67-.46,2.68-2.87,4.92-1.68a.54.54,0,0,1,.58.45,1.49,1.49,0,0,1-.16.79c-.72.67-1.75.62-2.57,1.07s-.4.85.05,1.25,1,.91.76,1.68c-1.95,2.12,0,3.47,1,5l.08.62a.71.71,0,0,1-.59.6l-2.87-2.3a20.38,20.38,0,0,0-2.78-4Z" transform="translate(-84.53 -0.48)"/><path class="cls-23" d="M416.88,250.58l-2.21-1.76-1.22-1.67c.15-.36.48-.88.73-.74,1.5.84,1-.87,1.57-1.16,3.31.12,4.93,2.73,6.92,4.75.4.41.22,1.07-.32,1.48A6,6,0,0,1,416.88,250.58Z" transform="translate(-84.53 -0.48)"/><path class="cls-10" d="M523.07,218l-.08.7c-2.81-1.47-3.73-4.11-4.35-7a10.4,10.4,0,0,1,2.12.56c1.37.68,2.68,1.5,4,2.26C525.47,216.38,523.74,216.95,523.07,218Z" transform="translate(-84.53 -0.48)"/><path class="cls-16" d="M478.62,212.78c1.4.87.91,1.65-.12,2.4-.36.78-.86,1.14-1.68.57l-.59-.58a7.94,7.94,0,0,0-6.66-3.17l-.25-.31,4-2.84C475.13,210.13,476.22,212.35,478.62,212.78Z" transform="translate(-84.53 -0.48)"/><path class="cls-22" d="M174.69,196.34h-2.74a5.51,5.51,0,0,1,1.43-5.62c-.28,1.45.77,2.35,1.39,3.42.54.61,1.47,1.06,1.08,2.07C175.65,196.72,175.12,196.69,174.69,196.34Z" transform="translate(-84.53 -0.48)"/><path class="cls-12" d="M496.29,173.51a3.36,3.36,0,0,1,2.78,4c-1.44-.3-2.07.72-2.74,1.67A6,6,0,0,1,496.29,173.51Z" transform="translate(-84.53 -0.48)"/><path class="cls-24" d="M478.62,212.78c-.46.11-1.15.47-1.33.3-1.37-1.35-2.64-2.81-3.94-4.23l0,0c.25-.14.43-.37.67-.53a1.64,1.64,0,0,1,.42-.29Z" transform="translate(-84.53 -0.48)"/><path class="cls-25" d="M461.4,227.74c-1.41-1.5-2.85-3-4.2-4.5a18.25,18.25,0,0,1-1.47-2.26.9.9,0,0,1,.47-.11c2.6,1.75,5.59,3.16,5.81,6.91h0a.45.45,0,0,1-.58-.05Z" transform="translate(-84.53 -0.48)"/><path class="cls-10" d="M415.71,245.44c.43,2.13-1.74.83-2.26,1.71l-1.38-1.56c.16-.08.37-.19.37-.34,0-.32-.32-.24-.51-.33l-.46-.37.29-2c1.2-.74,1.91.36,2.82.75a4.78,4.78,0,0,1,.63.48l.28.28a2.69,2.69,0,0,1,.42.67A.72.72,0,0,1,415.71,245.44Z" transform="translate(-84.53 -0.48)"/><path class="cls-2" d="M402.58,316.82a6.48,6.48,0,0,1,4.57,5.14C404.89,320.89,402.93,319.57,402.58,316.82Z" transform="translate(-84.53 -0.48)"/><path class="cls-10" d="M476.83,215.76l1.68-.57.52,1-5,4.74c.4-.89.74-1.81,1.21-2.67S476.28,216.59,476.83,215.76Z" transform="translate(-84.53 -0.48)"/><path class="cls-22" d="M585.88,183.21l-2.29-5.73C585.75,178.83,586.24,180.85,585.88,183.21Z" transform="translate(-84.53 -0.48)"/><path class="cls-22" d="M198.37,190.56a.7.7,0,0,0,.28-.44l3,1.44V193l-.3,1.2C199.21,194,197.94,193,198.37,190.56Z" transform="translate(-84.53 -0.48)"/><path class="cls-15" d="M553.88,170.6c-.42,2.53-.93,5-2.86,6.93Z" transform="translate(-84.53 -0.48)"/><path class="cls-16" d="M469.42,213.46l-3,.53,2.93-2.29.14.14A1.2,1.2,0,0,1,469.42,213.46Z" transform="translate(-84.53 -0.48)"/><path class="cls-18" d="M170.76,219.11l-2.82.69c.19-2,1.84-.82,2.74-1.27l.25.26Z" transform="translate(-84.53 -0.48)"/><path class="cls-15" d="M550.89,177.8l-1.55,2.6Z" transform="translate(-84.53 -0.48)"/><path class="cls-5" d="M460.82,324.24c-1-1-.68-1.49.57-1.71Z" transform="translate(-84.53 -0.48)"/><path class="cls-20" d="M586.44,209.45c-.9,1-1,.21-1.16-.51Z" transform="translate(-84.53 -0.48)"/><path class="cls-20" d="M603.61,216.88l-.6-1.13C603.71,215.86,604.49,215.93,603.61,216.88Z" transform="translate(-84.53 -0.48)"/><path class="cls-22" d="M198.68,190.13l-1-1.31Z" transform="translate(-84.53 -0.48)"/><path class="cls-15" d="M554.43,169.37l-.57,1.27Z" transform="translate(-84.53 -0.48)"/><path class="cls-15" d="M436.94,230a.8.8,0,0,0-.38.19l-.21-1.41Z" transform="translate(-84.53 -0.48)"/><path class="cls-15" d="M555,168.19l-.46.84Z" transform="translate(-84.53 -0.48)"/><path class="cls-16" d="M474,208.35l-.67.53Z" transform="translate(-84.53 -0.48)"/><path class="cls-15" d="M555.51,167l-.4.85Z" transform="translate(-84.53 -0.48)"/><path class="cls-23" d="M411.94,244.92l.49.15-.35.52Z" transform="translate(-84.53 -0.48)"/><path class="cls-10" d="M410.45,244.43l.92,0Z" transform="translate(-84.53 -0.48)"/><path class="cls-7" d="M430,215.7l-.59-.56Z" transform="translate(-84.53 -0.48)"/><path class="cls-7" d="M430.63,216.32l-.59-.62Z" transform="translate(-84.53 -0.48)"/><path class="cls-12" d="M421.47,195.14l-.67-.4Z" transform="translate(-84.53 -0.48)"/><path class="cls-26" d="M400.84,277.33l1.72-1.08c2.08-2.47,5.1-3.53,7.81-5,4.72-2.56,9.21-5.54,14-8a2.9,2.9,0,0,1,2.86.64,11.38,11.38,0,0,1,1.6,2.5c1.9,3.7,3.87,7.37,6,10.94.53,1.42,2,2.44,1.83,4.16a6.45,6.45,0,0,1-1.73,2.57c-2.47,3-3.66,6.4-2.81,10.32a14,14,0,0,0,5.4,9.79c.69.59,1.61,1,1.66,2.13a4.13,4.13,0,0,1-2.87,3.44c-1.48.62-2.58,2.1-3.89,3.15-2.74,2.18-3.39,2.15-6.13,0-3-2.41-6-4.85-9.05-7.2a16.85,16.85,0,0,0-2.71-1.41c-2.36-.59-3.56-2.73-5.36-4.07-5.7-4.24-11.45-8.41-16.87-13-1-.82-2.55-1.59-1.73-3.42l5.82-3.77c.06-.72.72-.58,1.13-.79l.43-.26A4.1,4.1,0,0,1,400.84,277.33Z" transform="translate(-84.53 -0.48)"/><path class="cls-23" d="M439.22,306.33c-2.67-2.08-5.34-4.2-6.6-7.48a31,31,0,0,1-1-4.3c1.95-.85,2.66.92,3.71,1.82,2.3,2,3,2,5.33.2.15-.06.28.07.39.08s.17-.12-.06-.21a2.24,2.24,0,0,1-1.19-1.12c-.3-2.27-2-4.17-1.73-6.58a2.28,2.28,0,0,1,2.06-.41,2,2,0,0,1,1,.7c.68,1.31,1.55,2.5,2.32,3.76a3.12,3.12,0,0,0,2.66,2.12c1.34.25,2.78.36,3.84,1.43-.14,1.06-.14,1.89,1.07,2.57,3.56,2,3.68,4.44.67,7.31-.7.67-1.8.68-2.25,1.61-2.51,1.32-5,.78-7.41-.2C441.1,307.24,440.17,306.76,439.22,306.33Z" transform="translate(-84.53 -0.48)"/><path class="cls-20" d="M390.6,283.76a75.79,75.79,0,0,0,5.28,5.65c2.17,1.91,4.62,3.51,6.94,5.25,1.81,1.35,3.65,2.66,5.39,4.09,2.17,1.78,4.24,3.67,6.36,5.51-2.47.1-4.87,0-6.79-1.9a6.22,6.22,0,0,0-3.95-1.93c-2.73-.38-5.85-.57-8.19-3.18-1.88-2.1-4.65-3.49-7.2-4.88-4.1-2.24-4.16-2.13-3-6.48C387.77,286.56,388.88,284.42,390.6,283.76Z" transform="translate(-84.53 -0.48)"/><path class="cls-5" d="M459.6,277l1.89,2-2.4,4.21c-1.53.19-2.39-1-3.4-1.78a17.53,17.53,0,0,0-4-2.63,5.87,5.87,0,0,1-3.89-4.85c-.22-.86-.4-1.72-.66-2.57-.19-2.11-1.51-4.23,0-6.34.18-2.56.19-2.59,2.3-1.54,1.33.66,2.61,1.4,3.91,2.1a1.47,1.47,0,0,1,.7,1.16c.36,3.36,2.1,6,4.35,8.36A4.11,4.11,0,0,1,459.6,277Z" transform="translate(-84.53 -0.48)"/><path class="cls-12" d="M461.91,290.62c.26,3.33.14,6.6-1.7,9.55a8.67,8.67,0,0,1-1.11,1.21c-1.44-.73-2.6-1.91-4.42-2.06-1.22-.1-1.84-1.44-2.26-2.61a2,2,0,0,1,.2-1.57c1.51-.79,4,.24,4.52-2.32s-2.32-2.23-3.29-3.55c.33-1.22,1.41-1.26,2.36-1.51a15,15,0,0,1,3.39.51C460.85,288.57,461.28,289.69,461.91,290.62Z" transform="translate(-84.53 -0.48)"/><path class="cls-13" d="M461.91,290.62l-2.05-1.8a3.91,3.91,0,0,1-2.06-1.88,5,5,0,0,0-4.37-2.71c-2-.73-3.08-2.68-4.85-3.71-.92-1.07-2-2.07-1.77-3.68.52-1,.6-2.17,1.58-2.87.5,2.29,2.05,3.46,4.07,4.53a60.16,60.16,0,0,1,6.64,4.69c.8,1.56,1.69,3.09,2.36,4.7A11.79,11.79,0,0,1,461.91,290.62Z" transform="translate(-84.53 -0.48)"/><path class="cls-10" d="M452.81,296.83c1.09,1.15,1.77,2.94,4.07,2,.34-.14,1.46,1.65,2.22,2.55-2.51,3.19-5.22,6.09-9.62,6.45a24.78,24.78,0,0,1,2.21-2.88c2.48-2.43,2.19-4.13-1-5.31a4.1,4.1,0,0,1-.76-.35c-1.65-1-1.66-1.84,0-3.09l.34-.22A2.74,2.74,0,0,1,452.81,296.83Z" transform="translate(-84.53 -0.48)"/><path class="cls-26" d="M555.52,212.29a3,3,0,0,1,3.76-.65,56.31,56.31,0,0,0,6,1.85c2.85.24,5.34,1.76,8.11,2.25,1.94.88,4.23,1,5.79,2.72.78,1.36.53,2.93.91,4.38a14.14,14.14,0,0,0,4.1,6.28c.53,1.07,2.26.58,2.57,2,.12,2-1.63,2.36-2.8,3.23a6,6,0,0,0-1.85,1.33c-1.26,1.11-1.54,2.84-2.57,4.1-1.66.23-1.23,1.57-1.08,2.44.42,2.56-.92,3.89-3,4.74-4.5,1.84-9,3.61-13.53,5.45-.47.19-.82.71-1.22,1.07L559,254c-1.42,1-2.89,1.6-4.57.58-2.81-3.15-5.64-6.29-8.43-9.46-.87-1-1.62-2.07-2.42-3.1a4.07,4.07,0,0,1-1-1.4c-.27-3,1.74-5.16,2.8-7.64,2.58-6,5.54-11.89,8.18-17.89A8.17,8.17,0,0,1,555.52,212.29Z" transform="translate(-84.53 -0.48)"/><path class="cls-20" d="M579.58,239.73a5,5,0,0,1,2.3-4.56c.53-.44,1.27-.57,1.71-1.14l2.86-2.87a25.19,25.19,0,0,0,9.69.56l.58.07c-.25,1.47.47,2.46,1.46,3.47,2.16,2.17,1.88,2.83-.79,4.2-4.79,2.46-9.9,2.05-15,1.91C581.46,241.33,580.53,240.3,579.58,239.73Z" transform="translate(-84.53 -0.48)"/><path class="cls-26" d="M189,238.59c-1.39-1.83-2.7-3.72-4.2-5.45a14.64,14.64,0,0,0-2.72-2c.8-3,2.37-5.79,1.28-9a3.9,3.9,0,0,1,2-3.24c3.48-1.61,6.35-4.14,9.47-6.3.82-.57,1.49-1.58,2.73-.93a13.88,13.88,0,0,1,3,2c4.85,5.57,9.61,11.23,14.4,16.86a2.34,2.34,0,0,0-2.67,1.89c-.75,2.42-1.9,4.71-2.88,7.06s-1.87,2.69-4.4,2.28-5.42-.47-8.1-.93S191.2,240.9,189,238.59Z" transform="translate(-84.53 -0.48)"/><path class="cls-27" d="M534,224.94l1.17-5.15c0-1.55.06-3.08,1.23-4.29.32-.17,1-.31.95-.41-.57-1.65.57-3.19.26-4.81a2.61,2.61,0,0,1,0-.76,6.63,6.63,0,0,0,.61-2.15,1.08,1.08,0,0,1,.53-.54,1.78,1.78,0,0,1,1.87.23c1.37,1.66,2.53.61,3.81-.06,3.18-1.67,3.19-1.64,6,1.33-.63,3.36-2.21,6.32-3.76,9.31a38.84,38.84,0,0,0-1.92,5.53c.71.91.29,1.85-.1,2.67-2.32,4.86-3.67,10.08-5.65,15.07-.66,1.29-1,3.12-2.9,2.93-2.21-.21-4.85.08-5.6-3,.93-4.32,1.86-8.64,2.81-12.95.14-.64.4-1.25.6-1.88a.45.45,0,0,0,.17-.41q0-.23-.09-.23A1,1,0,0,1,534,224.94Z" transform="translate(-84.53 -0.48)"/><path class="cls-14" d="M538.44,240.8l6.33-17.63c1.54-.12,3.44.69,3.64-2.16.07-.9,2.58-1,2.14-2.94a5.57,5.57,0,0,1,.06-2.14,7.49,7.49,0,0,1,.67-1.87c.14-.29.62-.45.69-.73.6-2.36.58-2.36,2.72-1.21a2.91,2.91,0,0,0,.82.17q-5.66,12.4-11.31,24.81c-.55,1.2-1,2.44-1.5,3.67a.43.43,0,0,1-.29.57c-.68,1.34-1.4,2.66-2,4-.51,1.12-1.06,2-2.52,1.7a2.32,2.32,0,0,1-.25-2.85C538.29,243.13,538.14,241.93,538.44,240.8Z" transform="translate(-84.53 -0.48)"/><path class="cls-15" d="M538.44,240.8c.35,1.31.9,2.55-.29,3.86-.44.48-.2,1.59-.26,2.41-1.39-.17-2.79-.25-4.15-.51-2.22-.44-3.29-2.41-3.21-5.7,1.23,2.25,3.74,1.67,5.61,2.48.3.13,1-.29,1.3-.64A10.36,10.36,0,0,0,538.44,240.8Z" transform="translate(-84.53 -0.48)"/><path class="cls-4" d="M554.47,254.58,559,254c-.34.56-.78,1.65-1,1.61C556.84,255.36,555.09,256.76,554.47,254.58Z" transform="translate(-84.53 -0.48)"/><path class="cls-4" d="M542.42,241.34l.29-.57.9,1.25Z" transform="translate(-84.53 -0.48)"/><path class="cls-23" d="M534,225.4l-.08.63Z" transform="translate(-84.53 -0.48)"/><path class="cls-14" d="M573.31,216.32l-8-2.83c-.21-.58-.38-1.17-.63-1.73-.32-.72-1-1.38-1-2.11-.13-1.35-.21-1.89-2-1.67-1.18.15-2.54-1.17-3.81-1.82.31-.58.88-.62,1.44-.65,1.53-.09,2.51-.84,2.45-2.41,0-1.27.71-1.82,1.55-2.41.8-.3,1.47-1,2.42-.86l19.62,12.25c.65,1.82-.73,2.21-1.73,1.71C579.37,211.68,576.58,214.84,573.31,216.32Z" transform="translate(-84.53 -0.48)"/><path class="cls-9" d="M538.61,207.21l.07.58c0,.65-.51,1.09-.64,1.67v.6a1.24,1.24,0,0,1-.77,1.31c-1.39-.23-2.76-1.07-3.11,1.55-.21,1.58-1.67.71-2.52-.1a2,2,0,0,1-.3-.67,2.77,2.77,0,0,0-.59-1.66c-.69-1.55-1.84-3-1.15-4.88.43-.87,1.49-.33,2.09-.87-.36-.9-1.36-1.23-1.67-2.12.45-.4.85-1,1.37-1.16,1.61-.45,2.86-1.19,3.3-2.92.81.41,1.59.88,2.43,1.22a8.58,8.58,0,0,0,3.1,1c2.46,0,3.37,1,2.75,3.6a1,1,0,0,1-.55.11C539.08,204,539.08,204,538.61,207.21Z" transform="translate(-84.53 -0.48)"/><path class="cls-21" d="M542.54,188.22,545.9,190a2.4,2.4,0,0,1,2.12,1.24,23.68,23.68,0,0,0,2.41,5.05,3.15,3.15,0,0,1,.55,3.41l1,2.43c-.19.13-.3.24-.34.22A44.46,44.46,0,0,1,546,199a3.61,3.61,0,0,1-1.51-3.85C544.92,192.84,543.79,190.39,542.54,188.22Z" transform="translate(-84.53 -0.48)"/><path class="cls-21" d="M538.61,207.21c-.07-1.11-.63-2.64-.11-3.25,1.42-1.65,3-.37,4.47.41,2.57.39,5.26.49,7.25,2.49.28.28.17,1,.23,1.46a5.07,5.07,0,0,1-1.47-.67c-1.12-1.06-2.09-2.43-3.43-.19-.19.31-1.07.13-1.56.35a1.4,1.4,0,0,0-.67.89,4.07,4.07,0,0,0,.12,1.27,9.06,9.06,0,0,0-1.23-1C541,208.39,539.82,207.81,538.61,207.21Z" transform="translate(-84.53 -0.48)"/><path class="cls-22" d="M563.66,200.87c-.29.91-2.18,1.26-.82,2.83.41.48-2.14,2.56-3,2.49-.64-.05-1.29,0-1.93,0l-2.92-2.33c.7-1.95,2.17,1.84,3-.42a6.74,6.74,0,0,1,4-4.25C563.14,199.11,563.73,199.66,563.66,200.87Z" transform="translate(-84.53 -0.48)"/><path class="cls-15" d="M551,199.74c-.89-1.82-1.84-3.61-2.64-5.47a19.13,19.13,0,0,1-.77-3c.51-.44,1-.18,1.52,0,2,1.65,4.83,2.55,5.34,5.63.58,2.45-1.09,2.68-2.81,2.85Z" transform="translate(-84.53 -0.48)"/><path class="cls-28" d="M447.1,265l.66,6.48a17.6,17.6,0,0,1-.39,2.94,1.08,1.08,0,0,1-.61.45c-1.38-.14-2.7-.64-4.15-.08s-2.24-.72-3.31-1.24c-1.27-.61-2.48-1.35-3.7-2.08-1.14-1-1.38-2.49-2-3.77-.16-.47-.3-.95-.51-1.4-.12-.22-.22-.44-.33-.66-.67-1.46-1.41-2.89-2.13-4.32-.13-.22-.24-.45-.34-.68a6,6,0,0,1-.3-.71,14.18,14.18,0,0,0-3.36-6.44c-.46-.84-.65-1.62.44-2.14a2,2,0,0,1,1.26.08c4.24,2.69,8.29,2.12,12.18-.75.66-.49,1.14-1.34,2.15-.73l.94.64c2.82,1.9,2.38,4.77,2.27,7.55Z" transform="translate(-84.53 -0.48)"/><path class="cls-9" d="M459.6,277c-3.93-2.78-6.3-6.42-6.29-11.37.08-1.12.13-2.18,1.79-1.38a19.48,19.48,0,0,0,3.19,1.07,3,3,0,0,0,1.06-.1c0-.33,0-.77-.13-1-.91-1.13-.91-2,.47-2.74,1.74-.2,2.78,2,4.65,1.36.7.22,1.26.56,1.09,1.44-.93.77-1.8,2.09-2.81,2.21-2.37.28-1.45,1.06-.77,2.24a5.89,5.89,0,0,1,.91,3.62C462.57,274.69,461,275.65,459.6,277Z" transform="translate(-84.53 -0.48)"/><path class="cls-25" d="M465.41,264.23l-1.11-1.13a1.74,1.74,0,0,1,.1-2.74c1.45-.58,2-1.46,1-2.9l4-1.94c-.43,2.45,1.39,4,2.34,5.92l0,4a2.66,2.66,0,0,1,2,2.11,1.07,1.07,0,0,1-.3.68C469.37,269.61,467.43,266.83,465.41,264.23Z" transform="translate(-84.53 -0.48)"/><path class="cls-8" d="M440.86,239.14l2.12,1.23,1.22,1.75a1.07,1.07,0,0,1,1,1.13c0,.88,0,1.77,0,2.65.15,1.33-.71,1.26-1.57,1.25h0a2.63,2.63,0,0,0-.62-.47.74.74,0,0,0-.39-.16c-2.34-1.09-2.82-4-5-5.21-1-1.85-3.47-1.71-4.56-3.42-.36-1-.46-2.11.68-2.35s2.55-1.28,4,0A46.54,46.54,0,0,1,440.86,239.14Z" transform="translate(-84.53 -0.48)"/><path class="cls-29" d="M428.28,251.72h-1.15a1.22,1.22,0,0,1-.37-1.11,1.29,1.29,0,0,1,1.11-1c1.18-.16.76-1,.64-1.63a20.09,20.09,0,0,1-.23-2.52c0-1.59.64-2.33,2.29-1.56a2.91,2.91,0,0,1,1.33,1.55c.26.81-1.07,1.64-.16,2.3.71.52,1.63,0,2.43-.31,1.16-.38,2-1.52,3.31-1.51l3.44,2.86c-.57,2.3-2,2.5-3.93,1.67-1.79-1.13-2.81.42-4.06,1.19A3.72,3.72,0,0,1,428.28,251.72Z" transform="translate(-84.53 -0.48)"/><path class="cls-8" d="M436.84,250c1.7.78,3,.2,4.07-1.19l1.77,1.14-5.28,3.44c-.07,0-.09.17-.17.22-1.61,1.13-7.63-.16-9-1.9l4.55-.59C434.14,250.64,435.88,251.72,436.84,250Z" transform="translate(-84.53 -0.48)"/><path class="cls-8" d="M431.73,245.43l-1.21-1.2c-.5-2.54.33-4.24,2.68-5.51,2.44,1,4.42,2.43,4.21,5.5l-.53.1C435.3,245.36,433.8,246.73,431.73,245.43Z" transform="translate(-84.53 -0.48)"/><path class="cls-14" d="M445.89,258.15l-2.27-7.55c2.95-.25,4.73,1.74,6.2,3.72.66.89-.89,1.77-1.77,2.39C447.35,257.21,446.61,257.67,445.89,258.15Z" transform="translate(-84.53 -0.48)"/><path class="cls-21" d="M431.73,245.43l5.15-1.11.6,1.63c-1.33,1.3-2.73,2.51-4.68,2.62a12,12,0,0,1-2.51-.38c.33-.68.66-1.37,1-2A8.27,8.27,0,0,1,431.73,245.43Z" transform="translate(-84.53 -0.48)"/><path class="cls-22" d="M464.4,260.36l-.1,2.74c-1,.68-2,.85-2.95-.24a14.13,14.13,0,0,0-1.67-1.43c0-.86-.28-1.91.11-2.54a1.59,1.59,0,0,1,2.78-.21C463.13,259.28,463.78,259.8,464.4,260.36Z" transform="translate(-84.53 -0.48)"/><path class="cls-25" d="M437.41,244.23l-4-5.08a.85.85,0,0,1-.28-.84.6.6,0,0,1,.43-.4,12.44,12.44,0,0,1,2.93,1c.59.37.84,1.28,1.25,1.95,1.58,1.09,2.27,2.83,3.15,4.41.24.42.09.92-.61.84Z" transform="translate(-84.53 -0.48)"/><path class="cls-10" d="M440.25,246.1l-2.54-5.25a30.09,30.09,0,0,1,3,2.62,23.71,23.71,0,0,1,2,3Z" transform="translate(-84.53 -0.48)"/><path class="cls-10" d="M443.09,246.67l.62.47Z" transform="translate(-84.53 -0.48)"/><path class="cls-10" d="M562.4,175.15a2.91,2.91,0,0,0,3.44,1.73c.67.56.43,1.58,1.1,2.14a8,8,0,0,1,1.62,2.11,1.68,1.68,0,0,1-.24,1.53c-1.48.41-2.31-1.07-3.6-1.23-2.27-2.69-2.67.71-4,1.22h-1.07Z" transform="translate(-84.53 -0.48)"/><path class="cls-15" d="M558.42,185.42c-.56,2.06-1.12.38-1.68,0Z" transform="translate(-84.53 -0.48)"/><path class="cls-9" d="M563.6,171.78l-.5,1.15Z" transform="translate(-84.53 -0.48)"/><path class="cls-15" d="M556.34,185.34l-.71-.49Z" transform="translate(-84.53 -0.48)"/><path class="cls-10" d="M554.43,196.91l-5.7-5.18a1.2,1.2,0,0,1,0-1.68,51.49,51.49,0,0,1,6,3.67C555.71,194.49,556.3,196,554.43,196.91Z" transform="translate(-84.53 -0.48)"/><path class="cls-22" d="M560.76,182.63l.85-2.19c.21-.55.42-1.1.62-1.65a13.43,13.43,0,0,1,1.6,1,6,6,0,0,1,.86,1.1c1.28,1.58,1.31,3-.59,4.08Z" transform="translate(-84.53 -0.48)"/><path class="cls-15" d="M563.66,200.87,562,199.14l-.07-2.82c2.07-.95,3.19.24,4.12,1.84l-.27,1.66Z" transform="translate(-84.53 -0.48)"/><path class="cls-13" d="M564.09,185c1.09-1.23.81-2.66.59-4.08l3.44,1.83c.32.35.39.7,0,1l-1.06,3C565.74,186.67,564.36,186.77,564.09,185Z" transform="translate(-84.53 -0.48)"/><path class="cls-7" d="M548.77,190.06l0,1.68-1.17-.46L545.9,190a14.23,14.23,0,0,1,.2-2.52c.13-.51.63-.92,1-1.38Z" transform="translate(-84.53 -0.48)"/><path class="cls-15" d="M554.46,188.35l.25.23s-.11,0-.14,0a.89.89,0,0,1-.1-.19Z" transform="translate(-84.53 -0.48)"/><path class="cls-10" d="M215.82,206c-1.45,1.15-2.35,2.26-.87,4.18.8,1,1,2.54,1.48,3.83l-.6,1.19c-1.37,0-1.46-1.25-2-2-2.2-3.11-3.25-7-6.4-9.47-1.24-.71-3.15-.82-2.76-3,1.82-1.73,2.73,1.21,4.29.83l.66-.05c1.84-.18,2.49,1.46,3.58,2.4C214,204.62,215,205.23,215.82,206Z" transform="translate(-84.53 -0.48)"/><path class="cls-9" d="M215.82,206a14.09,14.09,0,0,1-2.66-1.3c-1.27-1-2.38-2.15-3.56-3.24-.32-1.61.64-2.56,1.75-3.44a2.47,2.47,0,0,1,.68.45c.82,1.11,1.78,1.75,3.2,1.17.34,1.38,1.69,2.47,1.22,4.1Z" transform="translate(-84.53 -0.48)"/><path class="cls-21" d="M198.37,190.56c.16,1.91,1.64,2.74,3,3.65l.49,1c1.66,1.05,2.78,2.4,2.44,4.53-2,2.16-3.09-.06-4.5-.85a3.21,3.21,0,0,1-.4-1.61c-.42-3.13-1.12-3.75-4.27-3.84a2.06,2.06,0,0,1-1.54-.53C194.28,190.3,196.25,190.28,198.37,190.56Z" transform="translate(-84.53 -0.48)"/><path class="cls-22" d="M204.19,199.53l-2.32-4.31a19.6,19.6,0,0,1,2.86,1.89c1.48,1.39,2.82,2.94,4.21,4.42l-.39.82L205,200.29C204.57,200.25,204.06,200.25,204.19,199.53Z" transform="translate(-84.53 -0.48)"/><path class="cls-24" d="M501.35,173.52l-1.09-1.16c-.67-.77-.17-1.14.48-1.49s1.81-.58,2.19-1.6a.43.43,0,0,1,0-.39c1.73-1.33,3.17-.95,4.77.44,2.3,2,3.79,4.31,3.88,7.43,0,1.24,0,2.31-1.64,2.37-2.66.9-4.79-.07-6.2-2.82-.21-.4-.44-.78-.66-1.17A2,2,0,0,1,501.35,173.52Z" transform="translate(-84.53 -0.48)"/><path class="cls-25" d="M509.92,179.12c1.29-1.4,1.31-4.85,0-6.47-.54-.65-1.24-1.17-1.76-1.84-1.35-1.76-2.95-2.75-5.23-1.95a1.3,1.3,0,0,1-.12-.54c2.3-2.09,5-1.58,7.42-.67s4.75,2.69,7.11,4.08c-.76,0-1.52,0-2.27,0-.55,0-1.37-.06-1.58.24a11.5,11.5,0,0,0-1.66,3.26c-.13.42.61,1.11,1,1.67l1.06,1.67C512.47,178.42,511.45,180.64,509.92,179.12Z" transform="translate(-84.53 -0.48)"/><path class="cls-13" d="M501.35,173.52l1.71,1.61-.63,3.46c-2.39-.35-2.4-2.36-2.67-4.07C499.73,174.28,500.8,173.86,501.35,173.52Z" transform="translate(-84.53 -0.48)"/><path class="cls-12" d="M501.93,179.8l.59-.6.29.87Z" transform="translate(-84.53 -0.48)"/><path class="cls-10" d="M424.26,263.66l-21.69,12.58a11.72,11.72,0,0,1-.08-2.33,6.5,6.5,0,0,1,.8-1.7c-.76-.28-1.71-1-2.24-.77-1.43.63-2.1-.44-3.05-.91a6.45,6.45,0,0,0-.5-1.85c-.65-1-.88-1,.67-1.4s3.1-2.31,4.33-3.8c1-1.2,1.77-1.93,3.22-.93s1.57.06,1.35-.92c-.4-1.83-.52-3.34,1.85-3.82.25-.05.27-.86.55-1.19.84-1,1.63-2.45,2.66-2.67a7.82,7.82,0,0,0,4.76-3.38l5.68.57c.9-.43,1.31.37,1.89.75a6.74,6.74,0,0,1,.54.53l.25.29a3.18,3.18,0,0,1,.42.66,2,2,0,0,1,.08.78,1.88,1.88,0,0,1-1.09,1.21c-3.48,1.75-3.78,3.91-1,6.84C424.07,262.61,424.51,263,424.26,263.66Z" transform="translate(-84.53 -0.48)"/><path class="cls-10" d="M393.44,272.85c.56-2.75,1.25-2.94,4-1.13.31,2-1.18,2.36-2.53,2.57C394.51,274.35,393.94,273.36,393.44,272.85Z" transform="translate(-84.53 -0.48)"/><path class="cls-10" d="M400.84,277.33,398,278.94c0-.37.08-.75.14-1.12.14-.83.3-1.66.45-2.5Z" transform="translate(-84.53 -0.48)"/><path class="cls-10" d="M388.89,274.57l1.69-1.17Z" transform="translate(-84.53 -0.48)"/><path class="cls-10" d="M397.56,279.2l-1.13.79C396.12,278.74,396.68,278.74,397.56,279.2Z" transform="translate(-84.53 -0.48)"/><path class="cls-23" d="M412.25,195.74c-1.44,1-1.09,2-.29,3.32a26,26,0,0,1,1.57,3.5,10.65,10.65,0,0,1,1,1.44c.33.79,1.14.55,1.72.8.78.64.67,1.55.73,2.41a6.86,6.86,0,0,0,.18,1.43,3.12,3.12,0,0,1,.1.71,1.73,1.73,0,0,1-.19.69,1.26,1.26,0,0,1-.6.36,1.69,1.69,0,0,1-.71-.08,1.49,1.49,0,0,1-.52-.48l-.09-.35-2.32-3.4c-1.41-.19-1.44-1.34-1.64-2.37-1-1.07-2-2.18-3-3.18s-1.44-1.93-.41-2.88c.43-.39,1.51-.06,2.36-.06l-.29-1.53Z" transform="translate(-84.53 -0.48)"/><path class="cls-11" d="M415.77,210.05h.52c.27.29.7.3,1,.51,1,1,2.37,1.59,2.88,3,.31,2.11-1.63,2-2.7,2.69-2.29-1-4.28-2.24-4.09-5.27.08-1.29.67-1.59,1.76-1.53h0A5,5,0,0,0,415.77,210.05Z" transform="translate(-84.53 -0.48)"/><path class="cls-30" d="M411.19,203.71l1.64,2.37c0,1.11.28,2.41-1.53,2.25a2.49,2.49,0,0,1-2.45-2.52C408.59,203.85,409.73,203.65,411.19,203.71Z" transform="translate(-84.53 -0.48)"/><path class="cls-29" d="M417.48,216.27c.33-.46.78-1.37,1-1.32,1.58.42,1.15-.71,1.23-1.45A1.58,1.58,0,0,1,421,213c1.2.25,2.08.87,2.05,2.2a2.17,2.17,0,0,1-2.23,2.31l-1.66-.06h-.12a1.7,1.7,0,0,0-.52-.56Z" transform="translate(-84.53 -0.48)"/><path class="cls-11" d="M418.53,216.92l.52.56Z" transform="translate(-84.53 -0.48)"/><path class="cls-30" d="M417.4,242.6c.17-.82.37-1.63.49-2.45s.23-1.92.3-2.89a6.49,6.49,0,0,1,0-1.64c1-2.83,1.24-2.8,4-1.17a34.39,34.39,0,0,0,4.38,1.87c1.37.58,2.74,1.18,4.11,1.77a1.29,1.29,0,0,1,.12,1.55c-.55.5-1.09.21-1.53-.11-1.15-.82-2.18-1.22-2.92.47-.11.26-.39.4-.61.58-.67.56-2.22-.4-2.23,1.08a4.53,4.53,0,0,0,1.53,3.25c.27.26.56.5.85.75,1.12,1.24,2.91,2.43.33,4-1.64.12-2.34-1.2-3.28-2.15a8.26,8.26,0,0,0-2.4-2.34,7,7,0,0,0-2.88-2.25Z" transform="translate(-84.53 -0.48)"/><path class="cls-25" d="M440.86,239.14a26.74,26.74,0,0,1-3.33-3.07c-1.26-1.61-2.47.74-3.61-.16l-.38,2-.11.1c-1.42.21-1.51-1.09-2.1-1.83l-.08-.06a13.47,13.47,0,0,1-1.34-.84c-.62-.38-1.26-.72-1.86-1.13-1-.69-1.89-1.85-3-2.06-4.84-1-5.1-4.6-5.27-8.38l2.18,1.75c.31.36.81.58,1,1,1.46,2.68,3.78,3.22,6.55,2.73,1.19,1.42,2.48,2.77,3.56,4.27,1.29,1.8,2.76.94,4.24.54a11.8,11.8,0,0,1,2,1.93A23.38,23.38,0,0,1,440.86,239.14Z" transform="translate(-84.53 -0.48)"/><path class="cls-9" d="M431.32,236.18l2.1,1.83,0,1.14c-2.11,1-2.39,3.12-2.86,5.09-1.23-.33-1.93-.12-1.66,1.42a16.08,16.08,0,0,1,0,2.63c.45.82.15,1.39-.62,1.78l-1.13.53a.59.59,0,0,1-.62.19,1.55,1.55,0,0,1-.74-.73.58.58,0,0,1,.19-.62c2.06-1.51.31-2.4-.55-3.44-1.52-3.85-.36-5.75,3.57-5.79a2.41,2.41,0,0,0,1.54-.5l.11-1.65Z" transform="translate(-84.53 -0.48)"/><path class="cls-30" d="M409.49,239l-1.78-2.08c1.09-.9.27-2.46,1.16-3.43a3.58,3.58,0,0,1,.55,0c1.86,1.56,2.12,4.76,5.27,5.06.48,0,.89.84,1.34,1.28l-2,.53C412.27,240.6,411.18,238.78,409.49,239Z" transform="translate(-84.53 -0.48)"/><path class="cls-30" d="M416.36,233.34c-1.06-.57-2.1-1.2-3.2-1.67a2.21,2.21,0,0,0-1.37.17,5.56,5.56,0,0,0-1.08.64,5,5,0,0,1,.06-1.46c.83-2.36.89-2.39,2.89-1,1.15.8,2.18,1.79,3.27,2.69Z" transform="translate(-84.53 -0.48)"/><path class="cls-18" d="M409.49,239c.37-.21.87-.7,1.09-.59,1.18.57,2.28,1.28,3.41,1.94q0,.57,0,1.14l-.32.23c-1.93,0-3-1.4-4.24-2.56Z" transform="translate(-84.53 -0.48)"/><path class="cls-18" d="M414,241.45l3.4,1.14,0,0c.8.56,1.92.95,1.14,2.29-2.45.15-3.83-1.22-4.69-3.32Z" transform="translate(-84.53 -0.48)"/><path class="cls-9" d="M429.91,235.28l1.34.84Z" transform="translate(-84.53 -0.48)"/><path class="cls-22" d="M473.38,268.25l.08-.59c1.29-.56,3.23-.22,3.23-2.56,0-.6.81-.61,1.36-.24.35.45,1.09,1.13,1,1.3a36.55,36.55,0,0,1-3.59,5.25c-.24.27-1.72-.53-2.63-.84Z" transform="translate(-84.53 -0.48)"/><path class="cls-29" d="M469.42,213.46l.05-1.62c4.25-.48,5.3,0,6.77,3.34-2.48,1.31-4.4.49-6-1.55C470.08,213.47,469.69,213.51,469.42,213.46Z" transform="translate(-84.53 -0.48)"/><path class="cls-17" d="M207.87,203.19a26.33,26.33,0,0,1,2.72,3.14c1.83,2.91,3.51,5.92,5.25,8.89,1.86,3.37,3.75,6.73,5.56,10.12a14.32,14.32,0,0,1,.79,2.36c-.23.15-.53.24-.67.45-1.68,2.48-2.22,2.5-4.46.14a.3.3,0,0,0-.11-.51h0a1.6,1.6,0,0,0-.59-.59l0,0a11.44,11.44,0,0,0-4.22-5.69l-.36-.47a3.74,3.74,0,0,0-1.27-1.84l-.44-.47c-.5-1.35-.74-2.86-2.3-3.51l0,0a4.81,4.81,0,0,0-1.73-2.26l0,0a1.21,1.21,0,0,0-.73-.56l-.42-.47c-.34-.67-.48-1.47-1.29-1.81l-3.24-5.19c.07-.18.23-.46.3-.43C203.41,205.6,205.6,204.2,207.87,203.19Z" transform="translate(-84.53 -0.48)"/><path class="cls-14" d="M197.6,211.67c-2.83,2-5.63,4-8.5,5.91a31.24,31.24,0,0,1-3.17,1.66c-2.13-.24-4.07-1.72-6.38-.94-.37.13-.79-.43-.92-.93,1.26-1.5,2.5-3,3.8-4.49,2.2-2.47,4.45-4.89,6.67-7.34a1.22,1.22,0,0,1,1.41-.43,2.4,2.4,0,0,1,.69.39,5.9,5.9,0,0,0,4.67,2.24,10,10,0,0,0,.47,1.87A18.55,18.55,0,0,0,197.6,211.67Z" transform="translate(-84.53 -0.48)"/><path class="cls-9" d="M188.47,200.33l-.61-2.25c1-1.35,1.91-2.48,3.75-.7,1.43,1.39,3.14.4,4.29-2.2,1.5-.1,1.61,1,1.71,2a22.84,22.84,0,0,0,0,2.81c.23,1.57,2.29,2.4,1.76,4.28l-3.46,2.3c-.41.37-1.13.29-1.1-.07.15-1.8-1.35-1.48-2.25-1.91C191.13,203.24,189.48,202.08,188.47,200.33Z" transform="translate(-84.53 -0.48)"/><path class="cls-29" d="M199.32,204.31l-2.34-4c.88-.78,2.05-1.05,3-1.78a12.86,12.86,0,0,0,2.39,1.22,4.78,4.78,0,0,0,1.85-.26l.86.76c-.6,2.47,1.8,2,2.82,2.9-.33.18-.91.33-.94.54-.17,1.51-1.51,1.45-2.44,2-1.47.83-2.19-.06-3-1-.12-.13-.67.12-1,.2Z" transform="translate(-84.53 -0.48)"/><path class="cls-22" d="M192.57,204.38c.56,0,1.12-.07,1.67,0,1.44.07,1.42.08.77,1.55,0,.09.56.47.86.72v1.13c-2.23,1.21-3.19.78-5.13-2.29A3,3,0,0,1,192.57,204.38Z" transform="translate(-84.53 -0.48)"/><path class="cls-24" d="M212.18,221.53a6,6,0,0,1,4.22,5.69Z" transform="translate(-84.53 -0.48)"/><path class="cls-24" d="M207.8,215.24c2.37.32,2.37.32,2.3,3.51Z" transform="translate(-84.53 -0.48)"/><path class="cls-24" d="M206.09,213c1.64-.06,1.86,1,1.73,2.26Z" transform="translate(-84.53 -0.48)"/><path class="cls-24" d="M203.69,210.1c1.47-.14,1.35.85,1.29,1.81Z" transform="translate(-84.53 -0.48)"/><path class="cls-24" d="M210.55,219.22l1.27,1.84Z" transform="translate(-84.53 -0.48)"/><path class="cls-24" d="M216.38,227.19l.59.59Z" transform="translate(-84.53 -0.48)"/><path class="cls-24" d="M216.94,227.78l.11.51A.83.83,0,0,1,216.94,227.78Z" transform="translate(-84.53 -0.48)"/><path class="cls-24" d="M205.39,212.37l.73.56Z" transform="translate(-84.53 -0.48)"/><path class="cls-24" d="M224.32,178.74l-1-.73a4.91,4.91,0,0,1,.38-5.85,3,3,0,0,1,3.52-1.2,1.29,1.29,0,0,1,.45.34c1.37.58,1.84,1.38,1.38,3-.33,1.15,0,2.49.09,3.75l-1.31.58a1.17,1.17,0,0,1-.61.41l-.13.11a.45.45,0,0,1-.49.41l-1,.14A11.9,11.9,0,0,0,224.32,178.74Z" transform="translate(-84.53 -0.48)"/><path class="cls-25" d="M227.69,171.31c-2.68-.05-4,1-4.36,3.58a21.41,21.41,0,0,0,0,3.12l-1.29-.54-.47-1.11a5,5,0,0,1-1.55-2.45C221.51,170.91,225.3,169.62,227.69,171.31Z" transform="translate(-84.53 -0.48)"/><path class="cls-10" d="M220,173.91l1.55,2.45C220.27,176,218.92,175.75,220,173.91Z" transform="translate(-84.53 -0.48)"/><path class="cls-25" d="M420.83,217.54c2.43-2.18,2.43-2.55,0-4.14-.49-1.11.19-1.49,1-1.24,1.6.47,2.21-.66,3-1.55l2.88,3.83.53,3h0l-1.13.56,0,0c-.81.22-2.19-.69-2.16,1.3,0,.41-1.64,1-2.59,1.17-.25,0-.77-1-1.1-1.65A8.07,8.07,0,0,1,420.83,217.54Z" transform="translate(-84.53 -0.48)"/><path class="cls-29" d="M429.57,229.16c-2,1.29-4.14,1.3-5.43-.21a24.75,24.75,0,0,1-2.14-3.5,15.47,15.47,0,0,1,3.73,1.4,6,6,0,0,0,3.75,1.5Z" transform="translate(-84.53 -0.48)"/><path class="cls-25" d="M428.28,217.46l.72.16-.18.3-.54-.45Z" transform="translate(-84.53 -0.48)"/><path class="cls-25" d="M427.14,218l.26.28-.28-.26Z" transform="translate(-84.53 -0.48)"/><path class="cls-11" d="M445.23,243.24l-1-1.13c.86-.77,2.59-1.92,2.45-2.26-1.13-2.64,1.67-3.32,2.24-5a18.22,18.22,0,0,1,.88-2.05c.71-1.49,1.33-.92,1.91.11a14.72,14.72,0,0,1-.76,4.06c-.45.91-1.7,1.44-2.64,2.17,1.19,2,1.19,2.05-1,3.29A16.93,16.93,0,0,1,445.23,243.24Z" transform="translate(-84.53 -0.48)"/><path class="cls-11" d="M459.68,230c0,.35.17.91,0,1-1.6,1.11-3.44,1.74-4.93,3.16-1.12,1.07-1.86-.47-2.51-1.33.86-.89,3.13-.52,2.5-2.79a1.3,1.3,0,0,1,.78-.4C456.92,229.77,458.3,229.91,459.68,230Z" transform="translate(-84.53 -0.48)"/><path class="cls-25" d="M444.27,232.86c-.37-1.06-1.5-2.27.57-2.84.35.09.84.06,1,.28.61.72,1.11,1.54,1.66,2.32l-2.7.24C444.63,232.88,444.45,232.86,444.27,232.86Z" transform="translate(-84.53 -0.48)"/><path class="cls-15" d="M461.4,227.73l.58.05Z" transform="translate(-84.53 -0.48)"/><path class="cls-27" d="M386,221.48,383.59,218c1.58-.91,3.16-1.84,4.76-2.71.31-.17.87,0,1.09-.18,2.06-2,4.55-1.11,6.91-1.1h.34c.46,0,.92.05,1.38.09,1,.17,2,.5,2.19,1.71l2.24,1.82c1.21,2-.47,2.65-1.74,3.2s-2.42.93-2.75,2.41l.57,1.68c.71,1,.22,1.84-.25,2.71-.54.63-1.45.67-2,1.22l-5.14.07-1.68-1.25c-.88.53-1.06-.38-1-.71C389.19,224.4,387.54,223,386,221.48Z" transform="translate(-84.53 -0.48)"/><path class="cls-22" d="M408.86,233.46a6.84,6.84,0,0,0,.27,1.64c.67,1.56-.19,1.8-1.43,1.79h0a3.87,3.87,0,0,0-.6-.59l-2.22-.58a17.06,17.06,0,0,0-1.62-1.49,7.81,7.81,0,0,1-3.56-6c0-.47.08-.8.65-.49,1.86,1.25,4,2.25,4.27,4.94,0,.41,1.27.83,2,1A8.26,8.26,0,0,0,408.86,233.46Z" transform="translate(-84.53 -0.48)"/><path class="cls-21" d="M400.36,227.77l-.65.49-1.17,0a1.36,1.36,0,0,0-.46-.24l-.07-.25.55-2.87Z" transform="translate(-84.53 -0.48)"/><path class="cls-21" d="M396.28,228.81l1.74-1.07h0a.38.38,0,0,1,.16.4q-.06.21-.13.21Z" transform="translate(-84.53 -0.48)"/><path class="cls-27" d="M398,228.35l0-.61.53.5A1.43,1.43,0,0,1,398,228.35Z" transform="translate(-84.53 -0.48)"/><path class="cls-18" d="M478.05,264.86c-.34.31-1,.62-1,.94,0,2.62,0,2.66-2.51,2a9.16,9.16,0,0,0-1.11-.15l-1.79-2.21a3.19,3.19,0,0,1,5.32-1.89A10.8,10.8,0,0,1,478.05,264.86Z" transform="translate(-84.53 -0.48)"/><path class="cls-27" d="M471.71,261.43a5.45,5.45,0,0,0-.58-.57c-3.07-2.27-3.07-2.27-1.76-5.34l4.45,2,.71,1c.28.74-.24.79-.72.87a1.67,1.67,0,0,1-.38-.21,1,1,0,0,1,.25.42,1.88,1.88,0,0,1-1.49,1.9A3.15,3.15,0,0,1,471.71,261.43Z" transform="translate(-84.53 -0.48)"/><path class="cls-25" d="M473.38,259.15l1.15-.6c1,.71,2.43,1.43,1.29,2.8a2.24,2.24,0,0,1-3.63.18l1.2-2.38Z" transform="translate(-84.53 -0.48)"/><path class="cls-21" d="M424.87,210.6c-.33,2.33-1,2.74-3.25,2-.17-.05-.53.5-.8.78l-1.14.1-2.83-2.88a.45.45,0,0,1-.19-.4q0-.23.09-.23a2,2,0,0,1,.06-.53c1.1-.9,2.22-1.68,3.79-1.33.66.15.56-.59.81-.91l1.18-1.22,1.72,2.26c.54.7-.11,1.67.54,2.34Z" transform="translate(-84.53 -0.48)"/><path class="cls-25" d="M421.42,207.21c.27.38.69.74.75,1.15s-.37.7-.58,1.06c-1.6-1.77-3.18.19-4.77,0q0-.27,0-.55a1.45,1.45,0,0,0-.5-1.17l-.58-2.87c-.65,0-1.3,0-1.7-.62l-.49-1.69a23.91,23.91,0,0,1,2.74,1.26C418,204.89,419.71,206.07,421.42,207.21Z" transform="translate(-84.53 -0.48)"/><path class="cls-23" d="M424.25,197.54l1.83.26c1.68-.29,2.32,1.11,3.26,2l.13.47a6.16,6.16,0,0,1-1.28,1.16,16.39,16.39,0,0,1-2.34.78,1.27,1.27,0,0,1-1,.12,2.7,2.7,0,0,1-1.22-.78.51.51,0,0,1,.15-.63c1.07,0,1.24-.6,1-1.5C424.53,198.81,424.4,198.17,424.25,197.54Z" transform="translate(-84.53 -0.48)"/><path class="cls-21" d="M423.74,200.93a2.35,2.35,0,0,0,0,.56.88.88,0,0,1,.31.57,1,1,0,0,1-.28.59l-1.89.56L419.63,201l.28-.52Z" transform="translate(-84.53 -0.48)"/><path class="cls-21" d="M422,204.86l.42.62Z" transform="translate(-84.53 -0.48)"/><path class="cls-27" d="M568.11,180.95l-1.66-1.73a4.85,4.85,0,0,1,0-2.86c2.86-3,7.7-3.54,10.77-.87,1,.86,1.18,0,1.71-.24,2.33,1.26.26,3,.55,4.55a1.38,1.38,0,0,1-1,.41c-1.84-.12-1,1.78-1.79,2.41-.23,1-.12,2.49-.77,3-1.29,1-2.62,0-3.77-.83C569.28,185.11,569.53,182.16,568.11,180.95Z" transform="translate(-84.53 -0.48)"/><path class="cls-18" d="M578.52,179.69l1,.11a7.51,7.51,0,0,1,1.73,1.37c.47.67,1.08,1.73.84,2.28-.33.75-1.14,1.82-2.44,1a3,3,0,0,0-1.1-.19l-1.13-1.68C576.6,181.15,577.69,180.47,578.52,179.69Z" transform="translate(-84.53 -0.48)"/><path class="cls-25" d="M568.11,180.95c.55,1.18,3.19.71,2.41,3a11.61,11.61,0,0,0,1.63.82c-.45,1.13-1.09,1.48-2.1.54-.61-.57-1.29-1.07-1.94-1.6l0-1Z" transform="translate(-84.53 -0.48)"/><path class="cls-12" d="M578.52,179.69l-1.12,2.88-.72.05C575.94,179.68,576.08,179.44,578.52,179.69Z" transform="translate(-84.53 -0.48)"/><path class="cls-23" d="M199.95,198.56c.05,2.33-1.67,1.69-3,1.78a9.71,9.71,0,0,1-.1-2c.19-1.25.44-2.45-1-3.17l-2.25-1.49,0-.76a8,8,0,0,0,1.14,0C198.58,192.29,200.78,194.67,199.95,198.56Z" transform="translate(-84.53 -0.48)"/><path class="cls-24" d="M189,189l-5.63-8.05a.73.73,0,0,1,.28,0C185.53,181.95,188.73,186.75,189,189Z" transform="translate(-84.53 -0.48)"/><path class="cls-24" d="M181.56,177.53l.64-.06,1,3.11Z" transform="translate(-84.53 -0.48)"/><path class="cls-24" d="M189.62,190.58l-.68-1.61c1.34-.14,1.24.79,1.23,1.65l-.29.2Z" transform="translate(-84.53 -0.48)"/><path class="cls-24" d="M190.76,191.76l-.67-.56a.3.3,0,0,1,0-.45l.12-.11C190.88,190.74,191.73,190.77,190.76,191.76Z" transform="translate(-84.53 -0.48)"/><path class="cls-17" d="M591.75,210.74l4.79,1.15c.65.92,1.38,1.8,1.93,2.77,1,1.81-.42,1.11-1.18,1.09h0l-1.1,2.27a18.53,18.53,0,0,0-.62,3c0,1-.31,1.64-1.42,1.63a1.38,1.38,0,0,0-.28,0c-4.94,1-5.12.91-6.95-4,0-.09,0-.23.11-.25,2.5-1,3.13-2.79,2.27-5.24a2.46,2.46,0,0,1,.27-.72c.39-.67,1.42-.44,1.73-1.22A.61.61,0,0,1,591.75,210.74Z" transform="translate(-84.53 -0.48)"/><path class="cls-30" d="M386,221.48c3.2,1.62,3.19,1.62,2.94,5.17,0,.32.31.66.48,1l-1.16.62c-.6.19-.7.86-1.14,1.2l-2.3-2.28c-.16-1.2-.31-2.39-.49-3.59S384.37,221.3,386,221.48Z" transform="translate(-84.53 -0.48)"/><path class="cls-7" d="M387.16,229.46c.05-1.67.05-1.67,1.14-1.2Z" transform="translate(-84.53 -0.48)"/><path class="cls-17" d="M178.54,195.58a41.62,41.62,0,0,1-2.05-4,2.23,2.23,0,0,1,.3-1.94c2.47-2.65,7.39-1.44,8.62,2.05l-1,1.21,0,2.33,0,0c-.18,0-.41,0-.54,0C181.21,197.22,181.21,197.22,178.54,195.58Z" transform="translate(-84.53 -0.48)"/><path class="cls-24" d="M179.26,174.71l.36-.31.24.85Z" transform="translate(-84.53 -0.48)"/><path class="cls-24" d="M180.42,175.8,181,177Z" transform="translate(-84.53 -0.48)"/><path class="cls-24" d="M181,176.95l.58.58Z" transform="translate(-84.53 -0.48)"/><path class="cls-24" d="M179.84,175.23l.59.59Z" transform="translate(-84.53 -0.48)"/><path class="cls-19" d="M190,190.75a1.24,1.24,0,0,1,0,.45l-.47-.61Z" transform="translate(-84.53 -0.48)"/><path class="cls-25" d="M398,223.2c-1-1.74.36-2,1.48-2.48,1.41-.62,3.23-.92,3-3.14l3.55,2.12a6,6,0,0,1-1.5,1.09c-1.56.5-3.17.86-4.76,1.28h0Z" transform="translate(-84.53 -0.48)"/><path class="cls-1" d="M400.24,215.76l-2.78-1.4c-.39,0-.79,0-1.07-.36l0,0c.41-1.91,1.62-1.12,2.52-.63S401.36,214.07,400.24,215.76Z" transform="translate(-84.53 -0.48)"/><path class="cls-20" d="M399.77,222.07a13.49,13.49,0,0,1,3.56.56,4.29,4.29,0,0,1,1.86,2.16c.13.31-.77,1.52-1.25,1.55a3.76,3.76,0,0,1-2.79-.76c-.76-.92-1-2.32-1.39-3.51Z" transform="translate(-84.53 -0.48)"/><path class="cls-25" d="M566.47,176.36l0,2.86-.62-2.34Z" transform="translate(-84.53 -0.48)"/><path class="cls-16" d="M589.88,212.33q0,.27,0,.53c-2.06.9-4.22,1.72-4,4.61l-1.75,2.32c-2.09,1.28-3.75.61-5.17-1.14l-5.63-2.33c.08-.46,0-1.19.27-1.32a24.92,24.92,0,0,1,5.66-2.67c1.26-.31,2.84.37,4.2.83,1.2.4,1.83.26,1.91-1.08l1.69.06a3.57,3.57,0,0,0,1-1l.1-.05,2.3,0C590.89,211.77,590.24,212,589.88,212.33Z" transform="translate(-84.53 -0.48)"/><path class="cls-20" d="M588.06,211.16l-1,1Z" transform="translate(-84.53 -0.48)"/><path class="cls-16" d="M175.39,233.83a12.63,12.63,0,0,1-1.7-1.79c-.3-.47-.58-1.34-.35-1.7,1.19-1.88.25-2.67-1.41-3.22l0-2.24a1,1,0,0,1,1.27-.11c2,1.88,4,1.34,5.94,0,1.9,1.72,4,3.38,2.47,6.4A7.77,7.77,0,0,1,175.39,233.83Z" transform="translate(-84.53 -0.48)"/><path class="cls-19" d="M181.59,231.15c.39-2.72-1.39-4.44-2.89-6.3a1.73,1.73,0,0,1-.48-.61,1.87,1.87,0,0,1,1-2.64,6.9,6.9,0,0,1,4.53.38c1.9,3.49.34,6.36-1.63,9.16h-.51Z" transform="translate(-84.53 -0.48)"/><path class="cls-18" d="M423.76,202.66a2,2,0,0,1,0-.53c.31-.47.68-.37,1.06-.1l1,.2a5.33,5.33,0,0,1,.63,1.84,11.56,11.56,0,0,1-.68,2.83s-1,0-1.16-.28a15.89,15.89,0,0,1-1.16-2.89C423.4,203.42,423.66,203,423.76,202.66Z" transform="translate(-84.53 -0.48)"/><path class="cls-25" d="M424.86,210.59l-.54-2.34Z" transform="translate(-84.53 -0.48)"/><path class="cls-16" d="M596.14,231.71a9.3,9.3,0,0,1-9.69-.56l-2.25-1.7c.2-.23.4-.21.59,0,1.45-.36,2.49-.92,1.79-2.76-.33-.85-.22-1.68,1-1.82,2.29-.26,7.84,3.21,8.48,5.4A5.64,5.64,0,0,1,596.14,231.71Z" transform="translate(-84.53 -0.48)"/><path class="cls-9" d="M584.79,229.47l-.59,0c-3.41-1.83-4.64-5-5.12-8.55-.1-.74-.1-1.5-.15-2.25l5.17,1.14a3.17,3.17,0,0,0,.49,1c2,1.85,2,1.83,0,3.45-.67.55-1.13,1-.55,2.11A11.43,11.43,0,0,1,584.79,229.47Z" transform="translate(-84.53 -0.48)"/><path class="cls-25" d="M585.85,217.47l-.81-2.21c1.31-.4,1.21-2.66,3.1-2.35a8.58,8.58,0,0,0,1.69,0,5.76,5.76,0,0,0,.14,1.69,15.49,15.49,0,0,0,1.21,2.11L588,218.18c-.34.16-.7.3-1,.44Z" transform="translate(-84.53 -0.48)"/><path class="cls-11" d="M531.65,212.3l1.92.88c.09-.62.22-1.23.28-1.86s0-1.15,0-1.72c.58.22,1.16.41,1.72.67s1.16.6,1.74.9c-.14,1.52,0,3.09-.67,4.52l-1.5,4.09a24.9,24.9,0,0,1-3-2.59c-1-1.1-1.82-1.78-3.34-1.19-1.88.74-3.8,1.35-5.71,2l1.7-3.43h1.14c.57-.45,1.47-.67,1.17-1.72L526,211.71a.64.64,0,0,1,0-1l1.65-.61C529.19,210.42,530.06,212,531.65,212.3Z" transform="translate(-84.53 -0.48)"/><path class="cls-29" d="M531.65,212.3c-2.07.54-3.13-.7-4-2.26l-3.51-6.91,0,0a.93.93,0,0,1,.71,0l1.61.72a10.71,10.71,0,0,1,2.88,1.14,1.69,1.69,0,0,1,.55.55l1.71,5.15a.84.84,0,0,1,.07,1.15A2.71,2.71,0,0,0,531.65,212.3Z" transform="translate(-84.53 -0.48)"/><path class="cls-30" d="M526,210.66v1c-1.69,1.36-2.34,0-2.84-1.22-.26-.64,0-1.48,0-2.89Z" transform="translate(-84.53 -0.48)"/><path class="cls-10" d="M527.08,212.9l-.12,1.84-1-.13Z" transform="translate(-84.53 -0.48)"/><path class="cls-25" d="M224.32,178.74l1.31,1Z" transform="translate(-84.53 -0.48)"/><path class="cls-25" d="M226.62,179.56l.49-.41Z" transform="translate(-84.53 -0.48)"/><path class="cls-25" d="M227.24,179l.61-.41Z" transform="translate(-84.53 -0.48)"/><path class="cls-17" d="M178.62,224.45a2.28,2.28,0,0,0,.09.41c-1.07,2.09-2.66,2.6-4.45,1.45-.77-.5-1.56-1-2.35-1.43h0c-.35-.29-.22-.84-.62-1.1h0a2.74,2.74,0,0,0-.55-.57h0c-.17-.23-.37-.43-.54-.66-1.34-1.4.43-2.27.57-3.42a.36.36,0,0,0,.17-.32l2.05-.23c1.54.63,2.79,1.46,2.54,3.42a2,2,0,0,1-.45.31c-.57.37-1.15-.59-1.63,0-.09.11.37.59.64.85,1,.9,1.22-.16,1.71-.6C177.35,222.27,177.87,223.52,178.62,224.45Z" transform="translate(-84.53 -0.48)"/><path class="cls-16" d="M183.73,222l-4.34.11a4.46,4.46,0,0,1-2.44-3.53l1.67-1.2c.6.18,1.53.71,1.74.5,2-2,3.24-.4,4.58.88a3.66,3.66,0,0,0,1,.48Z" transform="translate(-84.53 -0.48)"/><path class="cls-29" d="M177,218.56l2.44,3.53-.78,2.35-2.7-1.9a.87.87,0,0,1-.55-.55L173,218.56Z" transform="translate(-84.53 -0.48)"/><path class="cls-16" d="M192.57,204.38l-1.83,1.07,0,0c-.36-.59-1.31.09-1.56-.73a1.16,1.16,0,0,1-.05-.47c.92-1.52-.83-1.73-1.31-2.53s-.44-1.32.63-1.42Z" transform="translate(-84.53 -0.48)"/><path class="cls-22" d="M189.2,204.74l1.56.73-1.66.06Z" transform="translate(-84.53 -0.48)"/><path class="cls-13" d="M174.69,196.34c.19-.3.55-.61.54-.91a4.34,4.34,0,0,0-.47-1.29l2.92,1.62,0,1.14-.51,2.52Z" transform="translate(-84.53 -0.48)"/><path class="cls-17" d="M184.44,195.2l.18.11-.16-.13Z" transform="translate(-84.53 -0.48)"/><path class="cls-11" d="M216.45,203.76c-.67-1.29-2.12-2.34-1.22-4.1l1.76.14a19,19,0,0,1,1.77,2.09c.19.29,0,.86-.08,1.3Z" transform="translate(-84.53 -0.48)"/><path class="cls-7" d="M429.34,199.82l-3.26-2-.07-1.47,0,0C427.12,197.49,429.28,197.64,429.34,199.82Z" transform="translate(-84.53 -0.48)"/><path class="cls-7" d="M426,196.33l-.27-.24c.05,0,.13,0,.15,0a.87.87,0,0,1,.09.21Z" transform="translate(-84.53 -0.48)"/><path class="cls-1" d="M423.7,195.77l.28.24c-.06,0-.13,0-.17,0a.84.84,0,0,1-.11-.21Z" transform="translate(-84.53 -0.48)"/><path class="cls-22" d="M529.89,205.48a4,4,0,0,1-.49-.14c-.72-.68-1.66-1.05-2.43-1.66l-.28-1.86a10.87,10.87,0,0,1,1.79.14,9,9,0,0,1,1.54.67,4.41,4.41,0,0,1,1.42.72,22.21,22.21,0,0,1,1.64,2.37l-2.63-.25C530.27,205.46,530.08,205.48,529.89,205.48Z" transform="translate(-84.53 -0.48)"/><path class="cls-9" d="M527,203.68c1.15,0,2.25.18,2.43,1.66l-2.94-1.54A1.52,1.52,0,0,1,527,203.68Z" transform="translate(-84.53 -0.48)"/><path class="cls-7" d="M524.86,203.07l-.71,0Z" transform="translate(-84.53 -0.48)"/><path class="cls-16" d="M413.88,241.58l4.57,3.41.37,0a14,14,0,0,1,2.19,1.31,7.41,7.41,0,0,1,.86.7c1.3,1.14,2.66,2.21,4,3.26a1.66,1.66,0,0,1,.66.33l.6,0,0,1.1.08,1.6c-.48,1.61-1.11,1-1.77.13h0l-.57-.56h0c-.18-.2-.39-.37-.58-.56l-1.71-1.15a15,15,0,0,0-6.85-5.71l0-.55a4,4,0,0,0-.56-.57h0a3.2,3.2,0,0,0-.58-.55l-2.78-1.2-2.33-3.42Z" transform="translate(-84.53 -0.48)"/><path class="cls-30" d="M407.11,236.3l.6.59Z" transform="translate(-84.53 -0.48)"/><path class="cls-16" d="M171.29,223.78l.62,1.1Z" transform="translate(-84.53 -0.48)"/><path class="cls-16" d="M170.19,222.53l.54.66Z" transform="translate(-84.53 -0.48)"/><path class="cls-16" d="M170.74,223.2l.55.57Z" transform="translate(-84.53 -0.48)"/><path class="cls-25" d="M589.88,212.33l.58-1.27a.29.29,0,0,1,.32,0,.7.7,0,0,1,.83.17C592.22,213.44,590.41,211.89,589.88,212.33Z" transform="translate(-84.53 -0.48)"/><path class="cls-16" d="M591.61,211.22l-.83-.17,1-.31A2.71,2.71,0,0,1,591.61,211.22Z" transform="translate(-84.53 -0.48)"/><path class="cls-25" d="M502.94,169.26c-.58.73-1.14,1.47-1.74,2.18a12.89,12.89,0,0,1-.93.92c-1.75-.8-2-1.59,0-2.3C501.18,169.75,502.06,169.52,502.94,169.26Z" transform="translate(-84.53 -0.48)"/><path class="cls-23" d="M415.14,244.32l.56.57Z" transform="translate(-84.53 -0.48)"/><path class="cls-23" d="M414.55,243.76l.58.55Z" transform="translate(-84.53 -0.48)"/><path class="cls-12" d="M441.41,296.82c-.27.07-.63.06-.79.24-.53.6-1.07,1.84-1.46,1.78a9.88,9.88,0,0,1-3.58-1.34,47,47,0,0,1-4-3c-1.2-4.31.27-7.91,3-11.13.61-.71,1.33-1.34,2-2,1.29-.34,1.13.59,1.18,1.34a4,4,0,0,1-.36,1c-.09.22-.2.43-.31.63a6.9,6.9,0,0,0-.4.95,4.37,4.37,0,0,0,.34,2.33,2.54,2.54,0,0,1,0,.73,22.61,22.61,0,0,0,.75,4.69c.25,1.33.85,2.49,2.47,2.57l1.11,1.15Z" transform="translate(-84.53 -0.48)"/><path class="cls-23" d="M425.43,253.44l1.77-.13c2.25,1.72,2.84,4.29,3.46,6.84-.5,1.19-.8,2.46-1.27,3.67a2.32,2.32,0,0,1-.47.65,2,2,0,0,1-.76.27,1.61,1.61,0,0,1-1.11-.41l-2.81-.66a28.29,28.29,0,0,1-2.66-2.4c-.54-.62-2.43-1.44-.09-2.28.12,0,.24-.52.15-.68-.32-.59-.72-1.14-1.1-1.7,1.11-.63,2.18-1.69,3.32-1.77S425.34,254.38,425.43,253.44Z" transform="translate(-84.53 -0.48)"/><path class="cls-22" d="M434.35,277.45c-.91-1.47-1.88-2.91-2.71-4.42-1.16-2.13-2.22-4.31-3.33-6.48,2.64-1,4.32-.42,5.77,2.07.51.88.5,2,1.39,2.7a2.43,2.43,0,0,1,1.28,1.44,9.69,9.69,0,0,1,.33,1,3.8,3.8,0,0,1,.11.66,2,2,0,0,0,.35.9c.17.17.32.35.47.54a2.37,2.37,0,0,1,.35.68,2.3,2.3,0,0,1,0,.82C437.07,279.51,435.71,278.32,434.35,277.45Z" transform="translate(-84.53 -0.48)"/><path class="cls-19" d="M434.35,277.45c.7.16,1.39.35,2.1.48,1.29.24,1.6-.47,1.49-1.57,1.56-.34,1.58.89,1.87,1.84-.16,1.91,1.76,3.88-.14,5.75a1.84,1.84,0,0,1-.6.5,1.74,1.74,0,0,1-1.13-.17,2.09,2.09,0,0,1-.61-.45.5.5,0,0,1,.07-.66l-.74-1.77Z" transform="translate(-84.53 -0.48)"/><path class="cls-19" d="M435.66,271.74c-.47-.41-1.19-.74-1.36-1.24-1-3-2.87-4.33-6-3.95l-1.24-2.23,1.21,0a.33.33,0,0,0,.56,0h0c2-.6,3.05,1.13,4.57,1.72h0c.33.31.22.82.53,1.14l1.82,4A.42.42,0,0,1,435.66,271.74Z" transform="translate(-84.53 -0.48)"/><path class="cls-27" d="M448.87,280l4.43,3.73a1.93,1.93,0,0,1,.56.68c.5,2-.22,3.76-.9,5.54a7.66,7.66,0,0,0-1.38,2.81c-.58,1.13.46,3-1.64,3.44l0,0a24.88,24.88,0,0,1-5.1-.77c-.79-.28-1.2-1.64-1.78-2.51a6,6,0,0,0-2.17-3.52l-.59-.54c-1.56-.94-.74-2.31-.64-3.55,1.09-1.64.23-3.9,1.73-5.41,1.61-.34,3,.74,4.55.73A5.4,5.4,0,0,0,448.87,280Z" transform="translate(-84.53 -0.48)"/><path class="cls-13" d="M440.29,295.69c-.57.08-.89,1.64-1.67.35a19.09,19.09,0,0,1-1.72-3.42,22,22,0,0,1-.82-3.77c0-.14.47-.36.72-.54l.2-.31.37,0a1.32,1.32,0,0,1,.51.51l0,.37C439.12,291,440.57,293.05,440.29,295.69Z" transform="translate(-84.53 -0.48)"/><path class="cls-25" d="M440.21,285.38l0,3.48-2.35.07,0,0a1,1,0,0,0-.59-.57v0c-.11-.27-.37-.43-.52-.67-.92-.82-1.39-1.71-.45-2.83a2,2,0,0,1,.47-.57,1.6,1.6,0,0,1,.15-.53l.36,0,.6.06a2.26,2.26,0,0,1,.59.48l.57.11C439.62,284.56,439.85,285.05,440.21,285.38Z" transform="translate(-84.53 -0.48)"/><path class="cls-25" d="M440.85,289.4c2.56,0,2.25,1.85,2.17,3.52Z" transform="translate(-84.53 -0.48)"/><path class="cls-12" d="M441.4,296.84l.26.24c-.05,0-.13,0-.16,0a.85.85,0,0,1-.09-.21Z" transform="translate(-84.53 -0.48)"/><path class="cls-8" d="M435.66,271.74l.1-.63a25.12,25.12,0,0,0,2.55,1.18c1.93.66,3.42,3.14,6,1.3.46-.33,1.82.62,2.76,1h0a2.5,2.5,0,0,1,.63-3.07l.62,2.46c-.1,1.09.37,2.41-1.14,3-1.46,1-2.87,1.89-4.81,1-.63-.28-1.34.53-1.93,1s-1,.15-1.29-.46l-1.27-2.13,0-.06a1.47,1.47,0,0,0-.5-.56l0,0a1.6,1.6,0,0,1-.5-1.19,1,1,0,0,0-.09-.52,3,3,0,0,1-.44-.75Z" transform="translate(-84.53 -0.48)"/><path class="cls-13" d="M451.15,292.77a2.34,2.34,0,0,1,1.1-2.79,2.24,2.24,0,0,1,1.76-.51c.73.09,1.75-.09,2.14.33.84.9,2.81,1.29,1.9,3.22-1.13,2.38-2.15,2.89-4.33,2.22-.27-.08-.55-.12-.83-.18C451.72,294.75,451.54,293.68,451.15,292.77Z" transform="translate(-84.53 -0.48)"/><path class="cls-11" d="M453.41,284.25q0-.25-.11-.49c1.93-.58,3.28.3,4.35,1.79.77,1.07,1.47,2.18,2.2,3.27l-3.7-.62A34.21,34.21,0,0,1,453.41,284.25Z" transform="translate(-84.53 -0.48)"/><path class="cls-25" d="M453.41,284.25c1.26,1.07,3,1.82,2.75,3.95L454,289.46l-1.76.51Z" transform="translate(-84.53 -0.48)"/><path class="cls-23" d="M451.15,292.77l1.75,2.29-.09,1.77-2.87-.61c.22-.58.45-1.17.65-1.75S451,293.33,451.15,292.77Z" transform="translate(-84.53 -0.48)"/><path class="cls-29" d="M439.2,278.49a4.35,4.35,0,0,0,.75.27c1.08-1.94,2.48-2,4.4-1.15.73.31,1.91-.43,2.89-.69l1.64,3.1c-.15,2.11-1.8,1.17-2.87,1.42-1.41-.91-2.46-3.28-4.62-1.13-.17.6-.65,1.36-.44,1.77.69,1.38-.34,2.24-.73,3.29l-1.1-1C440.35,282.44,439.2,280.46,439.2,278.49Z" transform="translate(-84.53 -0.48)"/><path class="cls-4" d="M583.59,234l-1.71,1.14Z" transform="translate(-84.53 -0.48)"/><path class="cls-21" d="M536.67,215.7c-.16-1.56-.34-3.13.67-4.52l.7-1.11c0,.85,0,1.71,0,2.56a11.33,11.33,0,0,0,.17,2,7.82,7.82,0,0,0,.57,1.4l-1.54-.21Z" transform="translate(-84.53 -0.48)"/><path class="cls-21" d="M538,209.46l.64-1.67Z" transform="translate(-84.53 -0.48)"/><path class="cls-11" d="M531.68,211.78l-.07-1.15Z" transform="translate(-84.53 -0.48)"/><path class="cls-10" d="M433.41,266c-2,.73-3-1.35-4.57-1.72.48-1.43-.2-3.38,1.82-4.13l0,.07c.07.28.31.44.48.65Z" transform="translate(-84.53 -0.48)"/><path class="cls-10" d="M433.94,267.14l-.53-1.14Z" transform="translate(-84.53 -0.48)"/><path class="cls-23" d="M431.1,260.87l-.48-.65Z" transform="translate(-84.53 -0.48)"/><path class="cls-21" d="M436.84,250c.27,1.78-.34,2.48-2.14,1.74-.6-.25-1.25-.41-1.87-.61,1-.69,2-1.41,3.1-2C436,249.06,436.53,249.69,436.84,250Z" transform="translate(-84.53 -0.48)"/><path class="cls-16" d="M428.28,250.07l.62-1.78.59,1.53Z" transform="translate(-84.53 -0.48)"/><path class="cls-23" d="M424.85,252.87l.57.56Z" transform="translate(-84.53 -0.48)"/><path class="cls-23" d="M424.27,252.3l.58.56Z" transform="translate(-84.53 -0.48)"/><path class="cls-11" d="M414,204.24l1.7.62C414.72,205.89,414.18,205.58,414,204.24Z" transform="translate(-84.53 -0.48)"/><path class="cls-29" d="M416.32,207.73c.72.16,1.53.27.5,1.17Z" transform="translate(-84.53 -0.48)"/><path class="cls-29" d="M416.75,210l.1.63-.56-.57Z" transform="translate(-84.53 -0.48)"/><path class="cls-12" d="M415.77,210.05l-.63-.59Z" transform="translate(-84.53 -0.48)"/><path class="cls-22" d="M430.55,239.72c-.49.55-1,1.59-1.48,1.59-3.64,0-3.64-.1-3.64,3.58q0,.56,0,1.12c-2.21-.8-2-3.23-3.1-4.78,0-.05,1.19-1.37,1.54-1.25,1.46.5,2.05.26,2.24-1.36.12-1,1-1.32,1.92-.69S429.71,239.12,430.55,239.72Z" transform="translate(-84.53 -0.48)"/><path class="cls-18" d="M426,250.5l-4.73-3.28a1.29,1.29,0,0,1,1.87-.05l2.87,2.28a2.14,2.14,0,0,1,0,.54q.2.19.11.36T426,250.5Z" transform="translate(-84.53 -0.48)"/><path class="cls-13" d="M418.45,245l-1-2.38c1.93-.43,2.63,1,3.42,2.27l-.31.29a2.19,2.19,0,0,1-2-.23Z" transform="translate(-84.53 -0.48)"/><path class="cls-13" d="M423.11,247.16l-1.87.05-.46-.37a1.59,1.59,0,0,1,0-1.92l0,0Z" transform="translate(-84.53 -0.48)"/><path class="cls-30" d="M426,250.5a3.3,3.3,0,0,1,0-.52l.53.59Z" transform="translate(-84.53 -0.48)"/><path class="cls-13" d="M396.38,214l1.07.36Z" transform="translate(-84.53 -0.48)"/><path class="cls-25" d="M473.39,259.14l-.72-.15.17-.29.54.45Z" transform="translate(-84.53 -0.48)"/><path class="cls-7" d="M424.86,202l-1.06.1-.08-.63Z" transform="translate(-84.53 -0.48)"/><path class="cls-12" d="M597.29,215.75l-.25-.24c.06,0,.13,0,.16,0a.69.69,0,0,1,.09.2Z" transform="translate(-84.53 -0.48)"/><path class="cls-24" d="M175.37,222l.55.55-.69,2.23c-.61-.47-1.25-.92-1.83-1.43a3,3,0,0,1-.91-1.06,7.79,7.79,0,0,1-.26-1.73l1.43.65Z" transform="translate(-84.53 -0.48)"/><path class="cls-18" d="M420.8,244.92l0,1.92-2.27-1.91Z" transform="translate(-84.53 -0.48)"/><path class="cls-29" d="M437.36,283.73l-.36,0,.4-.58A2.4,2.4,0,0,1,437.36,283.73Z" transform="translate(-84.53 -0.48)"/><path class="cls-29" d="M436.85,284.29l-.47.57Z" transform="translate(-84.53 -0.48)"/><path class="cls-23" d="M436.83,287.68l.52.67-.28,0-.27-.06Z" transform="translate(-84.53 -0.48)"/><path class="cls-10" d="M428.84,264.28h0Z" transform="translate(-84.53 -0.48)"/><path class="cls-19" d="M436.87,274.53l.5,1.19C436.58,275.59,435.91,275.41,436.87,274.53Z" transform="translate(-84.53 -0.48)"/><path class="cls-19" d="M436.34,273.27l.44.75Z" transform="translate(-84.53 -0.48)"/><path class="cls-19" d="M437.39,275.75l.5.56Z" transform="translate(-84.53 -0.48)"/><path class="cls-29" d="M438.54,284.28l-.59-.48Z" transform="translate(-84.53 -0.48)"/><path class="cls-19" d="M441.38,280.31c.45-1.77,1.48-2.4,2.76-1.45a10.42,10.42,0,0,1,1.86,2.58Z" transform="translate(-84.53 -0.48)"/><path class="cls-23" d="M437.35,288.33l.59.57Z" transform="translate(-84.53 -0.48)"/><path class="cls-28" d="M447.12,274.56l.26.27c-.06,0-.14,0-.17,0a.84.84,0,0,1-.1-.22Z" transform="translate(-84.53 -0.48)"/></svg>