<svg id="Layer_1" data-name="Layer 1" xmlns="http://www.w3.org/2000/svg" viewBox="0 0 694.38 694.3"><defs><style>.cls-1{fill:#fefefe;}.cls-2{fill:#9a9a9a;}.cls-3{fill:#888;}.cls-4{fill:#2f2f2f;}.cls-5{fill:#d7d7d7;}.cls-6{fill:#181818;}.cls-7{fill:#b4b4b4;}.cls-8{fill:#8f8f8f;}.cls-9{fill:#a0a0a0;}.cls-10{fill:#979797;}.cls-11{fill:#2e2e2e;}.cls-12{fill:#818181;}.cls-13{fill:#a6a6a6;}.cls-14{fill:#9f9f9f;}.cls-15{fill:#878787;}.cls-16{fill:#989898;}.cls-17{fill:#aeaeae;}.cls-18{fill:#292929;}.cls-19{fill:#959595;}.cls-20{fill:#7a7a7a;}.cls-21{fill:#2a2a2a;}.cls-22{fill:#919191;}.cls-23{fill:#373737;}.cls-24{fill:#2b2b2b;}.cls-25{fill:#838383;}.cls-26{fill:#868686;}.cls-27{fill:#7e7e7e;}.cls-28{fill:#252525;}.cls-29{fill:#ababab;}.cls-30{fill:#a7a7a7;}.cls-31{fill:#ebebeb;}.cls-32{fill:#b5b5b5;}.cls-33{fill:#3c3c3c;}.cls-34{fill:#848484;}.cls-35{fill:#b1b1b1;}.cls-36{fill:#c4c4c4;}.cls-37{fill:#b7b7b7;}.cls-38{fill:#424242;}.cls-39{fill:#e4e4e4;}.cls-40{fill:#b0b0b0;}.cls-41{fill:#3d3d3d;}.cls-42{fill:#6c6c6c;}.cls-43{fill:#b2b2b2;}.cls-44{fill:#4a4a4a;}.cls-45{fill:#0d0d0d;}.cls-46{fill:#575757;}.cls-47{fill:#3f3f3f;}.cls-48{fill:#626262;}.cls-49{fill:#d3d3d3;}.cls-50{fill:#939393;}.cls-51{fill:#555;}.cls-52{fill:#191919;}.cls-53{fill:#101010;}.cls-54{fill:#474747;}.cls-55{fill:#606060;}.cls-56{fill:#353535;}.cls-57{fill:#535353;}.cls-58{fill:#f3f3f3;}.cls-59{fill:#d8d8d8;}.cls-60{fill:#717171;}.cls-61{fill:#adadad;}.cls-62{fill:#5d5d5d;}.cls-63{fill:#bcbcbc;}.cls-64{fill:#ececec;}.cls-65{fill:#eee;}.cls-66{fill:#8b8b8b;}.cls-67{fill:#e8e8e8;}.cls-68{fill:#e7e7e7;}.cls-69{fill:#5a5a5a;}.cls-70{fill:#cacaca;}.cls-71{fill:#6e6e6e;}</style></defs><title>jacks</title><path class="cls-1" d="M609.95,701.91q-169.63,0-339.26.16c-6.18,0-8-.77-8-7.62q.36-339.73,0-679.47c0-6.17,1.55-7.22,7.39-7.21q339.73.25,679.47,0c5.67,0,7.49.76,7.48,7.12q-.32,340.21,0,680.42c0,5.91-1.47,6.74-6.92,6.73Q780.05,701.77,609.95,701.91Z" transform="translate(-262.71 -7.76)"/><path class="cls-2" d="M409.71,322.49c-30.72,17.64-61.38,35.4-92.22,52.82-7.2,4.07-12.66.51-16.76-5.92-4.47-7,1.78-9.29,5.5-12.42q42.06-35.37,84.37-70.44c3.15-2.6-2.88-6.43,2-7.89,11.13-4.36,19.91,1.51,28.86,6.62a7.06,7.06,0,0,1-1.6,7.06c-3.78,4-4.71,8.84-4.14,14.07A17.92,17.92,0,0,1,409.71,322.49Z" transform="translate(-262.71 -7.76)"/><path class="cls-3" d="M638.78,234.53c3,2.68,8.31,5.06,8.69,8.07,3.27,26,27.44,26.41,43.68,36.19,7.95,4.79,17,7.66,25.62,11.4a14.13,14.13,0,0,0,3.07,2.11c14.73,7.31,15.07,7.93,13.69,24.37-4.41,5.71-7,12.4-13.48,17.06-9.68,7-13.65,6.56-18.9-5.45l-58.84-43.93c-8.64-3.75-11-10.08-7.72-18.75,5.08-9.34,5.65-18.65-.21-27.92A5.05,5.05,0,0,1,638.78,234.53Z" transform="translate(-262.71 -7.76)"/><path class="cls-4" d="M686.11,475.08l3.44-19.71c5.58-14.3,7.53-29.53,11.43-44.26,1.27-4.81-1.73-8.45-1.74-12.78,3.37-16.64,5.88-33.44,10.95-49.71,2.08-6.68,5.46-9.83,12.51-6.91,5.87,11.76,5.85,11.54,20.51,10.8,3.05-.15,7-.74,9.53,2.47,1.2,8.2-3.93,14.48-7.2,21-8.64,17.11-14.62,35.34-21.33,53.1-5,13.29-11.06,27.28-10,42.41C708.81,485.2,700.39,486.28,686.11,475.08Z" transform="translate(-262.71 -7.76)"/><path class="cls-5" d="M376.88,217.67c1.86-.1,3.74-.13,5.59-.31,5.84-.55,13.92,8.82,16.27,1.69,2.84-8.65,2-20-6.4-27.8,2.19-3.8,5.56-4.75,9.63-4,5.61,6.66,4.92,15.34,7,23.08,1.12,4.26,1.8,8.59,3.85,12.54,5.14,4.15,12.19,1.39,17.53,4.81,1.68.75,3.42,1.41,4.41,3.13,5.84,10.55,2.9,19.52-4.71,27.9-4.89,5.38-2.08,9.63,2.71,13.27a7,7,0,0,1,.67,2.7c-3.25,9.34-7.65,11.29-16.26,8.09a58.05,58.05,0,0,1-16.55-9.52c-7.76-6.31-15.05-13.31-25-16.22-8.24-6.58-13.55-13.95-7.41-24.93,1.21-2.17-.62-5.07-.06-7.39C369.15,220.39,369.78,214.76,376.88,217.67Z" transform="translate(-262.71 -7.76)"/><path class="cls-6" d="M478.36,313c1.5,11.39,2.87,22.8,4.58,34.17.49,3.29,1.28,6.22-2.62,7.84a24.39,24.39,0,0,1-15.69,6.48c-8.9,1.35-13.08-3-16.54-11.07-6.5-15.22-10.66-31.57-20.47-45.29,0-6.7-8.79-10.63-5.84-18.29a9.59,9.59,0,0,1,6-3.26c6,2.08,11.6,5.24,18.41,4.5,7.84-.85,14.11-3.18,15.55-12.06a6.26,6.26,0,0,1,4-1.86c2.77-.17,5.3.26,7,2.71,1.63,5.75,6.85,9.83,7.42,16.07C479.44,299.56,477.85,306.16,478.36,313Z" transform="translate(-262.71 -7.76)"/><path class="cls-7" d="M474.94,293.64,471.1,278.7c2-4.31,5.89-7.17,8.17-11.31,1.41-2.56,3.8-4.27,7-2.05,10.53,8.92,20.95,18,31.62,26.7,5.75,4.71,10.81,8.94,3.74,16.57-3.14,3.38.86,4.76,2.8,6.54a11.67,11.67,0,0,1,1.63,2.22c.19,7.1.31,14.12,1.66,21.24,2,10.34-2.59,15.26-13.41,16.63-2.7-2.59-6.51-4.69-7.92-7.86-6.51-14.65-13.07-29.08-27.61-37.79-2.79-2.74-1-5.72-.28-8.51C479.4,297.45,478.26,295.1,474.94,293.64Z" transform="translate(-262.71 -7.76)"/><path class="cls-8" d="M686.11,475.08c5.52-1.47,10.22,0,15.37,2.51s7.13-1.76,7.32-6.54c2.13-13.82,9.4-25.87,13.83-38.91,5.9-17.37,11.92-34.86,20-51.44,3-3.06,6.57-5.54,9.58-8.66,6.47-6.72,11.39-5.27,14.06,3.88-15.76,34.79-31.61,69.54-47.2,104.41-3,6.82-6.67,10.86-15,9.45C695,488.24,686,487.45,686.11,475.08Z" transform="translate(-262.71 -7.76)"/><path class="cls-9" d="M638.49,265.31a31.19,31.19,0,0,0,3.83,19c-13.35,4.78-25.64,13.06-41.36,8-15.18-4.89-25.39-14.1-29.78-29.05-1.88-6.41-4.79-14.92,6.5-17.1l1.29,0c5.51,2.32,7.71,10.54,15.55,8.72,8.78,1.17,17.39,7.2,26.4.85,2.14-1.78,4.13-3.85,6.69-5,3.55-1.55,7.39-2,10.51.73,3.66,3.16,1.2,6-1.08,8.73C635.24,262.49,635.88,264.24,638.49,265.31Z" transform="translate(-262.71 -7.76)"/><path class="cls-10" d="M816,383.25l-23.37-8.92c-7.78-7.7-7.86-7.76-1.16-17.13,4.6-6.43,11-12.27,5.67-21.31a5.07,5.07,0,0,1,.79-2.83,5.67,5.67,0,0,1,2.49-1.61c4.6-1.48,8.55-.15,12.48,2.41,16.34,10.63,33.83,19.43,49.49,31.19,2.81,2.11,5.4,3.92,5.71,7.69.33,4-1.66,7.81-5.28,7.62-10.39-.54-20,3.31-30,4.5C826.83,385.55,821.62,383,816,383.25Z" transform="translate(-262.71 -7.76)"/><path class="cls-11" d="M743.8,275c15.72-19.18,19.59-44.23,32.2-65,1.76-1.44,3.85-2.8,6-2,4,1.4,5.95-.09,8.5-3.26,3.59-4.46,8.32-5.72,12.33.24-1.69,14.15-6.91,27.33-11.43,40.67s-8.78,26.87-13.88,40.06c-1.63,1.66-3.68,2.66-5.89,2-9.16-2.7-18.53-4.3-27.94-5.81C742,279.56,741.34,277.24,743.8,275Z" transform="translate(-262.71 -7.76)"/><path class="cls-12" d="M798.7,335.85c9.42,5.88,5.65,12.4.23,18-5.74,6-9.57,11.95-6.31,20.43-8.81-.16-18.24-10.61-26.31,1.59-9.42-9.2-10.88,4.86-16.86,5.93-1.29.23-1.31,5.09-4.27,1.36-3.87-8.39,3.72-14.19,4.9-21.45.47-2.92,4.71-6.16-1.15-8.14-1.28.14-2.81-.57-3.73-.14-9,4.19-13.35-1.16-17.1-8-.82-1.75-2-3.51-3.7-4.11-2.82-1-6.4-1.08-6.32-5.06.07-3.37,3.55-4.06,5.85-5.56a53.8,53.8,0,0,0,5.12-3.3c8.19-6.95,12-6.91,18.74,1.27,2.86,3.46,6.49,4.8,10.29,6.24,5.56,1.5,10.55-.57,15.64-2.34,6.24-2.17,12.56-3.91,19.06-.76A5.5,5.5,0,0,1,794.4,334c.66,6.4-4.21,7.53-8.64,9.21-1.95.74-4.41,1.15-4.71,3.9-.07.6.58,1.05,1.27,1.16,2.45.39,4.14-.94,5.79-2.49C791.61,342.44,792.62,336.44,798.7,335.85Z" transform="translate(-262.71 -7.76)"/><path class="cls-13" d="M732.2,329.65c-7,4-10.66,8.43-1.68,14.32,1.25,2.07,1.41,4.34-.9,5.38-3.63,1.63-5.21-1.85-7.35-3.74-4.3-3.34-6-1.14-7.06,3.13-4.39,17.39-8.88,34.75-13.33,52.13.53,2.89,2.62,6.25-2.25,7.53l-2-4.12c-4.21-9.25-4.27-20-10.52-28.52-2.95-8.57-9.21-15-14.12-22.38a5.82,5.82,0,0,1-.51-2.49,74.74,74.74,0,0,0,28.72-22.6c18.45,14.78,20.49-5.52,28.4-13.28C737.06,318.69,732.47,324.56,732.2,329.65Z" transform="translate(-262.71 -7.76)"/><path class="cls-14" d="M357.85,246.64c-35,9.47-59.63-2.91-61.67-31.49-.75-10.56.3-21.22,12.24-26.32,3.74,1.86,4.12,4.94,3.09,8.51-2.67,3.13-5,6.5-4.89,10.82.09,6.7,5.4,9.88,14.16,8.61,8.33-2.65,17.77,1.07,25.6-4.49,4.92,0,8.07,2.74,10.48,6.65.37,5.81,1.83,11,6.77,14.91,3.74,3,2.81,7.69,1.6,11.43S360.52,247,357.85,246.64Z" transform="translate(-262.71 -7.76)"/><path class="cls-15" d="M487.74,440.49c-26,7.8-52.06-16.18-49.23-45.33,5-2.49,6.62,1.13,8.37,4.59.7,1.39,1.58,3.25,3.33,2.64s1.2-2.65,1.08-4.18c-.35-4.7-.91-9.44,2.93-13.22,7.93-4.68,13,.08,15.79,6.28,3.85,8.57,10,12.94,18.78,14.47,3.42,4.22,3.44,10,8.56,13.93,4.76,3.61,2.28,9.48-2.14,13C492.28,434.95,489.32,437,487.74,440.49Z" transform="translate(-262.71 -7.76)"/><path class="cls-16" d="M850.23,311.15c-9.46,6.78-20.27,5.79-30.93,5.2-3.95-.22-7.65-.73-9.46,3.88-1.24,2.45-1.36,5.7-4.74,6.61-5,.43-7.72-1.79-7-6.89a8.42,8.42,0,0,0-1.2-6.05c-3.47-6.83.36-12.58,3.18-18.21,1.23-2.46,2.9-4.62,3-7.49,1-5.17.47-11.16,7-13.41,10.41,4.43,20.85,4.68,31.31.11,12.37,3.17,12.63,3.84,6.19,16C852.14,297.19,853.15,303.92,850.23,311.15Z" transform="translate(-262.71 -7.76)"/><path class="cls-17" d="M401.58,189.17l-9.23,2.08c-30.67-8.25-38.41-38-17-65.18,3.87-1.72,7.39-1,10.65,1.52,2.33,7.76,4.29,15.69,9.35,22.32a98.33,98.33,0,0,0-.11,17.95c.24,2.45-1.16,5.36,2,6.4s3.64-2.86,5.61-4.21a9.07,9.07,0,0,1,2.82-1c5.18-2,8.35.2,10.26,5l1.36,3.53c2.21,8.07-1.28,11.42-9.2,11.09C405.94,188.53,403.79,189.23,401.58,189.17Z" transform="translate(-262.71 -7.76)"/><path class="cls-18" d="M841,278.71c-5.38,10.71-14.8,4.6-22.46,5.05-3.71.22-7.35-2-6.63-7.1-5.29-3.16-11.06-5.56-15.44-10.12a27.77,27.77,0,0,1-1.88-6.61c3.8-6.83,11.59-7.87,17.33-11.88,12.37-4.71,24.38-3.39,36.13,2.17,11.83,6.76,12.66,9.72,5.35,18.89A27.15,27.15,0,0,0,841,278.71Z" transform="translate(-262.71 -7.76)"/><path class="cls-19" d="M486.24,265.34,471.1,278.7l-6.17-1.87a3,3,0,0,1-.91-2.35c3.15-4.22,5.12-9,6.92-13.91,4.67-10.4,11.32-19.89,14.29-31.06.74-2.79,2.55-4.88,5.22-4.51,10.87,1.51,18.2-5.45,26.38-10.45,16.74-5.48,28.39-17.44,38.78-30.85,4.4-5.68,8.91-7.76,15-2.6.52,2.6-1.63,4.11-2.51,6.13Z" transform="translate(-262.71 -7.76)"/><path class="cls-20" d="M569.71,181.3c-13.22,3.54-17.95,16.71-27.4,24.6C535,212,528,217,518.39,217.6c-5.45-4.11-14.3-5.68-11.74-15.76l50-35.57c3.93,1.74,8.2,2.72,11.58,5.69C571.43,174.76,573.26,177.55,569.71,181.3Z" transform="translate(-262.71 -7.76)"/><path class="cls-21" d="M487.91,408.17c-8.34-1.52-21.2,5.24-20.57-12.54.13-3.63-5.08-9.57-11.95-8.15-4,.5-5.92-1.72-6.18-5.23-.31-4.19,2.15-6.21,6.27-6.3l2.11-1.89a13.74,13.74,0,0,0,1.27-1.4c6.7-9.79,15.18-14.8,27.26-10.26,5.32,5.75,12.91,9.89,13.51,19a5.18,5.18,0,0,1,2.1,3.35c-1.94,6-2.64,12.33-5.18,18.16C494.45,405.93,493.31,410.58,487.91,408.17Z" transform="translate(-262.71 -7.76)"/><path class="cls-22" d="M514.28,355.23c8.71-7.23,12-15.15,5-25.82-3.6-5.52,3.71-8.46,5.08-13,7.33-2.8,13.77-1.92,17.67,5.49,3,5.63,8.87,1.78,12.55,4.61,2.62,2,3,4.63,2.2,7.61.31,4.44.77,8.83,4,12.34s2.16,6.89-.6,10.1C544.59,366.64,529.2,369,514.28,355.23Z" transform="translate(-262.71 -7.76)"/><path class="cls-21" d="M345.76,215.34c-6.34,9.79-15.67,4.41-23.88,4.7-9.81-3-14.52-11.14-13.5-23.23l.05-8c16.45-10.3,32.52-11.91,47.88,2.15,1.58,3-.27,4.87-2.51,6.12-3.2,1.79-4.38,4.28-3.73,7.78C349.35,208.66,347.05,211.79,345.76,215.34Z" transform="translate(-262.71 -7.76)"/><path class="cls-23" d="M401.58,189.17l4.52-4.6a3.33,3.33,0,0,1,1.39,1.2c1.88,3.54,5.66,6.83,8.56,6.28,4.17-.79,1.12-5.89,2-9,.34-1.17.33-2.44,1.18-3.44,11.39-1.42,15,7,19.11,14.95,5.37,10.4,10.93,20.69,12.84,32.44-1.91,4.7-5.62,4.35-9.47,3.25a61,61,0,0,1-9.81-3.28c-2.88-.77-4.84-6.2-9,0-2.11,3.14-8.83,1.53-13.49.42Z" transform="translate(-262.71 -7.76)"/><path class="cls-24" d="M390.92,150.54c-2.64-6.71-15-10.55-6.1-20.67-.11-4.64,3.23-6.34,6.71-5.82,4.74.71,9.85-.31,14.25,2.4l16.82,11.44c3.56,2.9,2.23,6.05.6,9.34-4.7,9.52-8.63,19.61-19,24.71l-.24-.17c-3.76,2.8-7.35,1.65-7.84-2.43C395.29,162.72,391,157.22,390.92,150.54Z" transform="translate(-262.71 -7.76)"/><path class="cls-25" d="M913,433.05c-15.23,12.22-30.53,11.9-45.88.25-6.1-10.67-4.48-18.71,5.4-26.79,6.65-2,12,2.84,18.16,3.45,4.77,6.15,13,7.41,18.38,13.09C912.2,426.32,914.73,428.46,913,433.05Z" transform="translate(-262.71 -7.76)"/><path class="cls-26" d="M691.3,373.54c4.94,9.67,12.21,18.85,6.29,30.74-15.86,5.13-29.22,1.17-40.32-11-1.4-7.27,4.18-10.73,8.39-14.71,2.24-2.12,5.29-3.42,7.9-5.21a31,31,0,0,0,3.28-1.91C685.8,364.61,685.8,364.61,691.3,373.54Z" transform="translate(-262.71 -7.76)"/><path class="cls-27" d="M506.65,201.85c4.06,5.14,10.84,8.26,11.74,15.76-7.52,7.51-14.69,14.7-27.27,13.31-2.25-.25-5.68,10.16-8.58,15.64-2.63,5-5.29,9.88-7.94,14.82-5.31,2-7.41-1.09-8.61-5.52a45.18,45.18,0,0,1,8.11-26.25,7.39,7.39,0,0,0,1.18-5.33C485.22,216.08,494.57,207.06,506.65,201.85Z" transform="translate(-262.71 -7.76)"/><path class="cls-28" d="M623.21,259.57c-10.15,7.75-19.56,4.7-28.72-2a36.59,36.59,0,0,0-17-11.53l.21.14c-.28-7.83-.67-14.94,11.4-12,5.64,1.38,1.64-8.38,7.17-9.13,5.72-1.82,10.91,1.66,16.53,1.69,3.51,0,4.45,3.64,5,6.91.72,4.28,1.52,8.65,5.78,11.16C626.88,249.84,623.81,254.67,623.21,259.57Z" transform="translate(-262.71 -7.76)"/><path class="cls-29" d="M675.12,375.56l-17.85,17.67c-11.35-10.36-15.14-23.66-8-36.68,3.76-6.88,13.83-10.31,23.21-5.67l1.79.06C679.73,359,678.21,367.24,675.12,375.56Z" transform="translate(-262.71 -7.76)"/><path class="cls-30" d="M913,433.05l-22.81-20.9c7-2.7,8.92-9.25,11.58-15.25,1.74-.87,3.48-.23,5.22,0,3.57.57,5.06,3.26,6.3,6.21a9.92,9.92,0,0,0-.66-1.75c-1.49-3.16-4.28-4.37-7.47-5-3.5-1.82-4.68-4.43-2.85-8.11,6.57-2.44,3.17-11.11,8.81-14.13,11.68,1.59,16.51,11.25,18.07,20.11C931.92,409.66,926.58,423.52,913,433.05Z" transform="translate(-262.71 -7.76)"/><path class="cls-31" d="M804.71,324.46l5.13-4.23c18.84,16.59,38.43,32.21,61.77,42,4.74,2,5.64,4.05,5.29,8.16a4.73,4.73,0,0,1,.64,6c-6.16,4.86-8.6-1.22-12.11-4.13l-64.48-38.4C796.58,328.49,800.92,326.59,804.71,324.46Z" transform="translate(-262.71 -7.76)"/><path class="cls-32" d="M357.85,246.64c6.24-2.33,7.48-5.9,1.34-9.41-7.2-4.12-8.49-9.19-4.57-16.1,3-6.81,4.58-14.09,6.93-21.12,3-4.21,5.41-.77,8,.59,4,5,9,9.64,7.35,17.08.85,11.44-14.68,24,2.31,34.32,1.72,4.15,6.67,5.44,8.44,9.61s3.45,8-3.73,7.65Z" transform="translate(-262.71 -7.76)"/><path class="cls-33" d="M800.41,204.21c-1.49.47-4.18.74-4.29,1.42-3,18.75-10.32,17.12-20.12,4.39,5-10.47,10.47-20.75,14.81-31.48,3.94-9.74,10-12.34,19.35-8.35C813.93,181.09,808.76,199.16,800.41,204.21Z" transform="translate(-262.71 -7.76)"/><path class="cls-34" d="M865.43,372.27l11.63,3.61a2,2,0,0,1,2.4-.06c3.35,4.51-1,7.35-2.31,10.88-1.16,3.2-1.91,6.54-2.95,9.79-.17.89-.38,1.76-.6,2.64a13.57,13.57,0,0,1-1.35,2.41c-9.51,8.32-19.78,5.41-22.61-6.41L816,383.25Z" transform="translate(-262.71 -7.76)"/><path class="cls-17" d="M850.12,265.38c8.25-6.29.76-10.4-2.1-15.15,14.44-.6,18.31,10.53,20.32,20.82,3.29,16.9-2.25,31.17-18.11,40.1L842.52,292c11-8.6,11-8.6,7-22.12A5.24,5.24,0,0,1,850.12,265.38Z" transform="translate(-262.71 -7.76)"/><path class="cls-35" d="M404.16,171.94l18.44-34.05c12.73,3.13,19.78,23.44,12.42,34.74-4.74,7.28-6.26-1.46-9.24-1.3-3.3.17-6.53,1.69-9.79,2.63Z" transform="translate(-262.71 -7.76)"/><path class="cls-36" d="M811.89,248.06c-5.47,3.14-6.12,12.34-14.64,11.65-2.54,6.62-5.92,13-5.86,20.37,0,4.69.42,10-5.72,10.86s-6.09-5.07-7.74-8.88c2.43-14.46,9-27.59,13.36-41.43,5.3-16.83,10.43-33.7,15.67-50.55,1.19-3.82,2.11-8,5.15-11.1,4.65.54,4.65,3.86,3.75,7.06-5.47,19.46-8.82,39.46-15.16,58.69C801.07,257.09,809,244.27,811.89,248.06Z" transform="translate(-262.71 -7.76)"/><path class="cls-37" d="M432.46,301.66c7,16.15,14.47,32.12,20.78,48.53,2.48,6.45,5.62,8.14,11.65,6.34,6.5-1,5.32,2.63,2.67,5.35-2.89,3-6,6.26-10.69,6.64-13.11-4.07-14.24-17.31-20.23-26.76-3.84-6.06-6.54-12.83-9.75-19.29a31,31,0,0,0,.3-12.84C426.45,305.86,425.91,301.12,432.46,301.66Z" transform="translate(-262.71 -7.76)"/><path class="cls-38" d="M552.85,328.12c-6.86,7-12.52,1-15.92-3.22-3.63-4.47-7.33-7.15-12.55-8.46q0-.64,0-1.29c4,0,4-3.38,4.94-5.92,5.41-14.31,13.53-18,25.75-6.76,1.44,1.33,3.69,1.8,5.56,2.67,2,2.31,3.46,4.76,2.08,7.94C559.7,318.25,553.1,321.1,552.85,328.12Z" transform="translate(-262.71 -7.76)"/><path class="cls-25" d="M432.46,301.66c.1,2.93-.81,6.44.48,8.69,4.34,7.59,1.86,11-6,12.13-5.73-10.44-11.45-2.09-17.18,0,4.93-11-9.88-27.11,8.91-34.55,1.5-.92,3-1.06,4.34.24C427.92,291.4,432,295.28,432.46,301.66Z" transform="translate(-262.71 -7.76)"/><path class="cls-39" d="M743.8,275l1,5.18c8.57-.13,12.44,3.88,13.67,13.73,1.08,8.61-5.23,9.43-11,10.88-2.87,1.46-5.36.13-7.88-1.06s-4.83-2.55-3.8-6c-11-11.93-27.7-14.33-40.09-23.91-1.8-1.39-3.15-3.34-4.72-5,2.41.11,5.1-.45,7.18.43,7.87,3.35,15.6,7,23.26,10.85C730.34,284.52,738.26,285.22,743.8,275Z" transform="translate(-262.71 -7.76)"/><path class="cls-40" d="M558.65,313.13l2-8c8.48,4.43,16.11,10.22,16.63,20.4.69,13.42-3.49,25-17.06,31,1.64-9.07-14.52-12-7.86-22.81,7.5-.61,7.42-6.53,7.06-11.48C559.2,319.29,558.61,316.22,558.65,313.13Z" transform="translate(-262.71 -7.76)"/><path class="cls-13" d="M849.63,395.13c5.48,9.78,14.06,1.9,20.94,3.67,9,1.37,9.65,2.94,4.59,11.34-8.52,5.69-6.52,15-8,23.15C852.49,424.62,847,411.73,849.63,395.13Z" transform="translate(-262.71 -7.76)"/><path class="cls-41" d="M735.76,297.7,741.2,300c2.94,5.81,3.36,12.7,11.09,16.08,4.72,2.06,4.95,9.13,6.21,14.35-.35,3.08.32,6.32-1.49,9.16-4.62-2.87-9.82-5.14-13.71-8.79s-7-4.71-11.09-1.13L729.56,315c-.7-10.11-2.15-19.82-12.78-24.81Z" transform="translate(-262.71 -7.76)"/><path class="cls-2" d="M487.91,408.17l5.69-7.45c1.5-4.54,3.83-2.15,5.53-.4,2.15,2.21,2.46,5.69,4.86,7.81,3.64,3.17,5.26-.31,7.8-2,4.51-3,7.79-2.61,6.67,4.15-4.15,16.26-14.93,25.78-30.72,30.22-3-3.48-1.67-6.32,1.42-8.72,7.58-5.87,8-10.54-1.7-14.64C480.53,414.21,485.28,411.05,487.91,408.17Z" transform="translate(-262.71 -7.76)"/><path class="cls-37" d="M455.48,376c-5.09,3.8-5.77,7.64-.09,11.53.68,4.68,1.75,9.35,1.94,14.05s7.57,11.37-.15,13.82c-6.74,2.14-10.87-5.52-14.3-11-1.79-2.86-2.94-6.11-4.38-9.19C441.13,386.08,437.24,371.23,455.48,376Z" transform="translate(-262.71 -7.76)"/><path class="cls-27" d="M423,288.18l-4.33-.24c-7.38-6.75-18-4.37-26-9.28l-8.69-9.41c5-7.53-4.83-11-4.71-17.26,11.34,8.4,23,16.4,33.91,25.35,7.49,6.15,13,6.71,17.63-2.55,1.81-1.87,3.87-3,6.59-2.29,4.78,1.86,4,6.35,4.84,10.12-2.63,7.65-8.27,4.76-13.36,3.8Z" transform="translate(-262.71 -7.76)"/><path class="cls-42" d="M475.27,224.27c6.63,3.66,11.34,6.41,1.44,13.1-4.41,3-5.44,11-8,16.67-5.94,4.61-9.85.15-13.44-3.46-5.37-5.4-2.91-10.69,1.21-15.61a17.81,17.81,0,0,1,2.89-3.94C465.18,230,467.17,219.93,475.27,224.27Z" transform="translate(-262.71 -7.76)"/><path class="cls-43" d="M518.45,410.27c-6.64-3.63-7.43,6-12.49,5.56-3.27-.26-9.69,6.19-8.83-3.79,5-6.07,8.15-12.48,3.17-20.07-1.31-2-2-3.87-.82-6.11l.16-4.48c4.49-3.61,8.56-2.82,12.75.78C521.6,390.06,522.67,399.56,518.45,410.27Z" transform="translate(-262.71 -7.76)"/><path class="cls-40" d="M800.7,244.72c-2-17.66,5.5-33.37,10.24-49.64,1.49-5.1,4.22-10.08,1.33-15.54-1.7-2.17-1.82-3.74,1.53-4,1.21,1,2.86,1.71,3.57,3C821.28,185.49,807.47,239.9,800.7,244.72Z" transform="translate(-262.71 -7.76)"/><path class="cls-44" d="M620.76,246.36c-3.35,1.53-4.84-.55-5.33-3.23-2-10.79-11.86-13-19.16-18,16.36-6.71,29.18,2.53,42.52,9.45l-2.29,3.69C632.4,243.17,627.39,246.34,620.76,246.36Z" transform="translate(-262.71 -7.76)"/><path class="cls-45" d="M813.8,175.55l-1.53,4L778.82,282.4c-.24,1.85-1.13,2.71-3.05,2l24.64-80.17c4.08-11.1,9.13-21.93,9.75-34C814.82,169.64,813.78,173,813.8,175.55Z" transform="translate(-262.71 -7.76)"/><path class="cls-46" d="M419.25,179.61c12.73,8.48,12.35,15.52-2.3,21-6.14,2.31-11.76-6-10.86-16.06,4.94-.48,9.91-.91,11.26-7.09Z" transform="translate(-262.71 -7.76)"/><path class="cls-47" d="M879.11,375.65l-2.06.23-.15-5.49a55.25,55.25,0,0,1,34.24,3.76c-1.23,5.17,6.54,14-5.93,14.59-4.63,0-8.24-2.4-11.68-5.13s-7-5.08-11.56-5.32A7.3,7.3,0,0,1,879.11,375.65Z" transform="translate(-262.71 -7.76)"/><path class="cls-48" d="M456.87,368.52c-1.73-6.94,7.52-6.54,8-12,4.87-3.22,10.08-3.14,15.45-1.58l5.8,7.44-28.53,11.66Z" transform="translate(-262.71 -7.76)"/><path class="cls-49" d="M459.37,231l-.07,4.06c-3.75,2.82-6.9,6.55-11.67,7.86-6.64-1.14-11.09-5.67-15.6-10.1l-2.21-1.78c-5.87-5-.15-7.7,2.18-11.08a29.18,29.18,0,0,0,19.2,7C453.26,229.68,455.57,231.87,459.37,231Z" transform="translate(-262.71 -7.76)"/><path class="cls-36" d="M569.71,181.3l-13-15c6.46-6.41,11.16-5,16.46,2.21,6.74,9.13,1,13.7-5.07,18.73Z" transform="translate(-262.71 -7.76)"/><path class="cls-50" d="M474.94,293.64c3.37-2.82-2.66-9.12,2.83-10,2.76-.43,6.86,3.12,9.22,5.86,4,4.67-1.78,6.91-3.5,10.18s-3.17,6.58-4.74,9.88l-.38,3.37Z" transform="translate(-262.71 -7.76)"/><path class="cls-51" d="M369.54,200.59l-5.65-.76c-4.63,5.72-9.67,9.85-17.14,4.33-3.87-9.51,3.71-10.7,9.55-13.17C363.34,190.56,366.56,195.41,369.54,200.59Z" transform="translate(-262.71 -7.76)"/><path class="cls-52" d="M699.62,408.4l2.25-7.53c1.37,19.4-4,37.29-12.32,54.5Z" transform="translate(-262.71 -7.76)"/><path class="cls-49" d="M405.78,126.45c-7,.82-14.48-.77-21,3.42l-9.44-3.81C385.64,115.67,395.72,120,405.78,126.45Z" transform="translate(-262.71 -7.76)"/><path class="cls-43" d="M620.76,246.36c3.21-6.64,7-12.21,15.73-8.13,14.5,8,9.34,17.46,2,27.08-1.41,1.91-2,5.32-5.36,3.89-.75-.32-.6-3.23-.52-4.93.14-3.34,7.35-6,2.17-9.35-4.38-2.83-7.89,2.44-11.57,4.65C619.77,255.65,618.81,251.27,620.76,246.36Z" transform="translate(-262.71 -7.76)"/><path class="cls-53" d="M751.54,351.89c.89-1.79,2.39-5.2,2.58-5.13,4.07,1.54,1.13,3.83.46,6q-4.73,15.22-9.4,30.46c-7.53,17.65-15.18,35.25-22.56,53-4.81,11.55-9.23,23.25-13.82,34.89.23-17.53,9.6-32.38,14.91-48.31,7.7-23.07,18.08-45.25,27.32-67.81C749.93,353.7,749.79,352.64,751.54,351.89Z" transform="translate(-262.71 -7.76)"/><path class="cls-54" d="M751.54,351.89l-.51,3c-7.34,4.44-17.8.85-23.88,9.1-.2.27-5-2-6.8-3.91-5.24-5.4.75-9.71,1.92-14.5,2.72-.7,6.88,5.83,8.25-1.65C735.75,351.34,743.52,351.94,751.54,351.89Z" transform="translate(-262.71 -7.76)"/><path class="cls-23" d="M448.07,238.75l11.24-3.66c-6,10.84.7,15.4,9.41,19l5.89,7.34c-.22,6.61,1.07,14.36-9.77,13-8.82-2.42-17.58,1.08-26.38.24l-7.72.2q-.28-.87-.57-1.73c-3.59-6.85,1-12.62,2.92-18.55.74-2.27,2.46-4.51,3.29-7C438.23,241.89,441.56,238.19,448.07,238.75Z" transform="translate(-262.71 -7.76)"/><path class="cls-40" d="M448.07,238.75c-9.93,3.86-8,14.36-12,21.55-2.27,4.09-3.94,8.5-5.89,12.77-8.88,4.12-7.83-8.6-14.35-8.47,0-5.67,4.59-5.48,8.18-7.67,8.7-5.29,12.23-13.76,8-24.08Z" transform="translate(-262.71 -7.76)"/><path class="cls-55" d="M432,220l-2.18,11.08-20.38-3.69,11.05-1.31c-2.42-1.85-4.79-3.76-7.26-5.54s-3.06-4.44-1.31-6.48c.78-.91,3.87-.42,5.64.19C422.44,215.93,427.19,218,432,220Z" transform="translate(-262.71 -7.76)"/><path class="cls-56" d="M428.81,286.42l11.44-4c4.83-7.75,15.46-9.49,23.38-3.84,2.32,5.61-.44,8.79-5.12,11.4C447.67,296.06,438,293.11,428.81,286.42Z" transform="translate(-262.71 -7.76)"/><path class="cls-57" d="M463.63,278.61l-23.38,3.84c-10.31-.41-2.54-4.94-1.79-7.86,8.72-8.48,17.48-12.15,26.38-.24q.05,1.24.11,2.48Z" transform="translate(-262.71 -7.76)"/><path class="cls-58" d="M577.48,246.06c11.12-4.2,18.39-2.71,17,11.53-2.89,1.54-1.69,8.38-6.5,6.47C580.29,261,580,252.7,577.48,246.06Z" transform="translate(-262.71 -7.76)"/><path class="cls-59" d="M798.7,335.85c-1.16,2.58-2.33,5.15-3.47,7.73-7.12,16.14-17,17.8-28.73,4.46-3.91-4.46,1.52-3.77,3.36-4.43,7.87-2.82,16.49-3.82,23.09-9.67,1.9-1.56,3.7-1.66,5.35.38A11.68,11.68,0,0,0,798.7,335.85Z" transform="translate(-262.71 -7.76)"/><path class="cls-60" d="M798.29,334.33l-5.35-.38H793a10.3,10.3,0,0,0-1.13-1.52c-2.94-3-9.92-2.77-7.7-9.74,1.59-5,10.56-10.33,16.3-9.87,6,2.21-2.27,9.61,4.23,11.65l-3.77,9.41Z" transform="translate(-262.71 -7.76)"/><path class="cls-61" d="M800.48,312.81c-7.08,5.42-14.37,10.77-7.46,21.13-12.48-1.14-23.19,9-36,5.62l-2.43-7.85c5-8.35,3.59-14-4.84-16.6-7.12-2.2-8.58-5.71-4.47-11.76,11.73-8,11.18-15.69-.45-23.2,11.14-4.62,20.93.71,31,4.23l3.05-2c8.31,6.77,8.68.12,9.72-5.68,1.17-6.53,2.41-13.07,8.7-17l1.43,5.53c2.92,8.13,1.41,17.61,7.57,24.75Z" transform="translate(-262.71 -7.76)"/><path class="cls-62" d="M675.12,375.56c-8.35-7.92.75-16.46-.88-24.61,7.73,6,13.7,13.31,17.07,22.59C684.85,365.73,681.08,379.38,675.12,375.56Z" transform="translate(-262.71 -7.76)"/><path class="cls-63" d="M308.37,196.81,321.87,220c-3.25,4.44-6.49,9.26-12.58,3.72C299.83,215.15,294.61,206.27,308.37,196.81Z" transform="translate(-262.71 -7.76)"/><path class="cls-64" d="M346.75,204.15l17.14-4.33c2.16,9.38,1.23,17.43-9.28,21.3l-8.86-5.78C342.58,211.3,339.53,207.27,346.75,204.15Z" transform="translate(-262.71 -7.76)"/><path class="cls-31" d="M850.12,265.38c3.77,2.78,11.67,4.69,8,10.32-3.94,6-3.28,18-15.6,16.28-3.57-4.06,14.83-10.71-1.56-13.27-4.53-4.42.61-9.08-.35-13.59Z" transform="translate(-262.71 -7.76)"/><path class="cls-65" d="M806.24,290c-13.93-4.76-12.69-14.16-7.57-24.75,5,3.15,16.17-.91,13.2,11.42Z" transform="translate(-262.71 -7.76)"/><path class="cls-66" d="M390.92,150.54c7.66,5,4.52,16.7,13,21.23.36,5-.29,10-5.48,11.73-2.35.8-6.37-.35-8.38-2.07-4.36-3.72-1.76-8-.43-12.74C391.25,163,390.59,156.63,390.92,150.54Z" transform="translate(-262.71 -7.76)"/><path class="cls-67" d="M499.48,385.86c4.3,3.74,12.41,5.67,10.85,12.58-1.38,6.1-5.65,12.12-13.19,13.59,1.19-4.52.67-8.5-3.54-11.32C488.33,392.9,495.24,389.91,499.48,385.86Z" transform="translate(-262.71 -7.76)"/><path class="cls-68" d="M558.65,313.13c15.12,7.88,7.78,17,.57,24.84-5.13,5.57-5.47-1.2-6.88-4.2,1.17-1.8,2.85-3.55.5-5.66-3.62-2-6.21-3.73-5.77-9.25C547.86,309.13,556.62,318.43,558.65,313.13Z" transform="translate(-262.71 -7.76)"/><path class="cls-69" d="M875.16,410.15c1.05-4.82.49-9-4.59-11.34l.87-.09c.86-.92,1.72-2.43,2.76-2.45,7.8-.2,16,3,21.93-6.45,1.13-1.82,8.15,2.78,5.49,9,6.21,13-3.56,12.36-11.4,13.37Z" transform="translate(-262.71 -7.76)"/><path class="cls-21" d="M901.62,398.78l-5-6.37c-3,2.91.85,4.87,1.12,7.35.32,2.91,1.45,6.44-2.44,6.76-5.35.44-12.77,1.79-15.05-3.93s-5.56-3.49-8.81-3.88a5.31,5.31,0,0,1-.29-1.83c3.5-7.12,9.47-12.92,11.23-21,9.66.65,17.45,4.61,22.84,12.84-3.35,2.73-.67,4.43,1.08,6.29,2.82.51,1.71,2,.87,3.45Z" transform="translate(-262.71 -7.76)"/><path class="cls-70" d="M907.16,398.48l-.87-3.45c4.95,1.65,12.26-3.77,14.79,2.18,2.42,5.7-3.17,11.12-6.59,16-1.65,2.33-3.8,6-7.61,3.28-3.56-2.55-1.89-5.36.42-8C910.09,405.15,908,401.78,907.16,398.48Z" transform="translate(-262.71 -7.76)"/><path class="cls-55" d="M882.37,375.9c12.25,15.55,0,18-11.23,21-3.77-9.48,1.78-15.47,8-21.23Z" transform="translate(-262.71 -7.76)"/><path class="cls-71" d="M745.27,303.36c.61,4.27-.1,8.48,7.43,7.21,6.63-1.12,9,5.77,10.94,11.09,1.62,4.54-.25,8.85-3.24,12.21s-3.72-1.77-5.82-2.15C753,319.91,737.05,314.19,741.2,300Z" transform="translate(-262.71 -7.76)"/></svg>