<svg id="another" xmlns="http://www.w3.org/2000/svg" viewBox="0 0 554.09 323.73"><defs><style>.cls-1{fill:#9f9995;}.cls-2{fill:#1c1b20;}.cls-3{fill:#7c7572;}.cls-4{fill:#8e8783;}.cls-5{fill:#bbb7b3;}.cls-6{fill:#2c2a2e;}.cls-7{fill:#eae9e5;}.cls-8{fill:#39373a;}.cls-9{fill:#b5afa9;}.cls-10{fill:#96908c;}.cls-11{fill:#aea8a4;}.cls-12{fill:#dad7d7;}.cls-13{fill:#5a5555;}</style></defs><title>jacks</title><g id="xIaWAj.tif"><path class="cls-1" d="M107.81,190.48c9.1-7.83,18.31-15.54,27.21-23.59,1.59-1.44,1.88-4.3,2.77-6.51l15,5.3-1.69,11.19c.08,1.21-.31,2.86.33,3.55a36.89,36.89,0,0,0,4.72,4L153,190.13c6.48,1.16.54,4.8,1.41,7.09l0-.12-3.42,2.49c-6.33,3.19-12.82,6.11-19,9.63-12.64,7.24-24.85,15.27-37.74,22-5.74,3-9.93,10.56-18.22,7.58l-2-18.86H74l2.07.34c5.95,5.31,3.66-5,8-3.46l3.58,7c1.25-1.85,2.21-2.83,2.65-4,1.23-3.3,2.24-6.68,3.33-10,3.41,1.41,6.82,2.79,10.21,4.24,4.44,1.9,3.57-1.48,3.8-3.78l0,0C111.95,206.27,112,195.07,107.81,190.48Zm5,23.77c-.39.22-1,.37-1.11.69s.27.84.44,1.27l1.53-1Z" transform="translate(-52.87 -22.14)"/><path class="cls-2" d="M212.89,191.94c1.29,9.68,2.64,19.36,3.82,29.06a28.42,28.42,0,0,1-.36,5.46l-2.11.49a69,69,0,0,0-8.77.44c-3.69.63-7.29,1.8-10.93,2.74l-22-49.7-5-9.81-3.29-3.69,5.12.31,3.34,1.43a13.91,13.91,0,0,0,1.62.16c.82.78,1.6,2.16,2.47,2.22a85.21,85.21,0,0,0,9.7-.07c1.88-.09,4,.06,5.57-.76,4.75-2.5,9.27-5.41,13.88-8.16a2.26,2.26,0,0,0,.86.79,1.34,1.34,0,0,0,.49,1.17l3.83,18.08Z" transform="translate(-52.87 -22.14)"/><path class="cls-3" d="M195.92,118.73c10.57-2.75,18.08-10.63,27-16.12,4.5-2.76,8.83-5.81,13.24-8.73,2.93.68,8,2.59,8.45,1.85,3-5.27,9.49-3.22,12.9-7h0c2.4-2.17.26-7.68,5.75-7.85.35,0,.6-3.47.89-5.33,3.24-5.78,8.3-8.46,14.79-8.72,6,.78,11.24,2.61,13.63,8.87-2.07.37-5.2,0-6.06,1.22-7.62,10.88-17.68,19-27.77,27.41-6.11,5.11-13.19,6-19.54,9.41a28.44,28.44,0,0,1-3.7-4.18c-.45-.74.13-2.11.24-3.19-1.53,0-3.2-.45-4.54,0-.62.23-1.25,2.78-.8,3.28,4,4.36,1.07,7.45-2.25,9.35-1.34.77-4.38-1.44-7.44-2.59-.11,2.09.29,4.54-.47,6.56-1,2.75-2.61,7-4.57,7.36-4.75.9-4.57.25-4.67,5.17-.06,2.75-1.74,5.46-2.69,8.19-2.09-1.78-4.6-3.26-6.17-5.41-3.26-4.47-9.86-7.24-7.95-14.55Z" transform="translate(-52.87 -22.14)"/><path class="cls-4" d="M360.61,168.78l-3.2-1.9,3.34-11.71c-.75-2.85,2.11-7.2-3.36-8.07l0-.06c4-2.74,1.28-5.54.07-8.32v-8.24l5.44,5,2.13,8.36c.3,1.13.3,3,1,3.28,7.71,3.13,15.49,6.07,23.3,9,5.89,2.18,11.83,4.21,17.74,6.3l.11-.13,22,11.74,1.7,3-.13-.16,1.88,4.43-1.9,2.4v1.64q.21.69.43,1.37L427.25,192c-5.1.37-10.19.78-15.29,1.08-1.7.1-3.41-.06-5.12-.1.91,1.8,1.67,5,2.75,5.15,6.09.61,2.89,4.37,2.82,7.07l-6.47-1.68L392.41,192c1-2.94,3.31-6.1,2.83-8.76A32.26,32.26,0,0,0,389.76,170c-1.25-1.68-5.93-.41-8.65-1.51-3.6-1.46-10.21,2.36-10.63-5.54,0-.21-4.32-1-5.65-.12C363,164.13,362,166.74,360.61,168.78Z" transform="translate(-52.87 -22.14)"/><path class="cls-5" d="M212.89,191.94l-1.79-9.88c3.57-2.93,7.59-5.5,10.39-9,.67-.84-2.74-4.91-4.28-7.5,1.34.05,3-.41,3.94.24,5.26,3.79,6.93,2.05,6.49-3.78a22.4,22.4,0,0,1,.4-4l4.73,3.37c.73,6.89,5.37,10.48,11.53,8.91q.79.08,1.58.11a74,74,0,0,1,6.19,6.39,7.93,7.93,0,0,1,1.49,4.72c-.1,4.13-.64,8.26-1,12.38-.14,4.42,1.23,10.11-6.7,8.06-5-3.44-10.15-5.52-15.88-1.52Z" transform="translate(-52.87 -22.14)"/><path class="cls-6" d="M455.23,141.15C461.1,127.08,466.9,113,473,99c.75-1.73,2.94-2.84,4.46-4.24-2.93,10.13-.89,13.26,11.25,17.23l-4.77,13.5a3.9,3.9,0,0,0-.64.4,9.26,9.26,0,0,0,.59,1.12l-3.23,3.42q0-.83,0-1.66l-1.67-.07,1.67,1.74-8.32,30-2.79-14.22-1.45.05-.73,5.83,0,0Zm25-18.1,2.47-1.58c-1.26-1.78-2.52-3.56-3.84-5.3,0,0-1.2.68-1.16.78C478.53,119,479.41,121,480.27,123.05Z" transform="translate(-52.87 -22.14)"/><path class="cls-1" d="M344.16,165.58c-.73,5.75-5.41,7.23-9.78,7.66s-9.06-.73-13.59-1.19a69.89,69.89,0,0,0,7.37-3.1c.78-.43,1.41-2.84,1.32-2.89-4.66-2.52-9.21-5.5-14.21-7-2.83-.87-6.4.65-9.63,1.09l1.85-9.73,5.3-5.23c4,.71,8.05,1.19,12,2.18,4.76,1.2,11.67-3.45,12.35-8.65l2.75-.1,9,3c.2,6,6.3,2.67,8.52,5.46l0,.06-4.9,8.34C347.1,156.68,343.29,159.21,344.16,165.58Z" transform="translate(-52.87 -22.14)"/><path class="cls-7" d="M503.83,191.78c-2.12,5-.32,8.06,4,11.1,12.55,8.75,24.74,18,37.12,27,1.54,1.12,3.41,2.48,5.14,2.52a51.67,51.67,0,0,1,22.29,5.26l-.41-.1,1.92,1.89-8.36,1-3.4-.22-1.5.64-1.48,6.05L554,243.71a7.15,7.15,0,0,1-2.42-.47q-21.29-13.2-42.51-26.49l-16.86-6.4,9.94-18.57Z" transform="translate(-52.87 -22.14)"/><path class="cls-6" d="M91.09,75.91,100.61,79l3.93,4.61L95.17,92,99,94.1c0,1.82-8.62.36-1.76,5.22,1.95,1.38,1.47,6.17,2.11,9.4l-22.69.83-2.34-2.45c.39-4.78,5.41-10.7-3.27-13.25q-.07-.64-.19-1.28l-4.61-3.82,1.36-3.12,6.75-6.91,3.39-1.5c3.29,2.46,5.87,2.72,6.81-2.17l3.15.44,1.84,2.73Zm-5,6.23.73.68-.68-.73-.74-.69Zm-8.38,7.47,3-.07V82c-.7.09-2,.08-2,.29C78.22,84.7,78,87.16,77.67,89.62Zm12.18-3.38c-.44-.23-.88-.65-1.32-.64s-.86.44-1.3.69c.44.23.89.65,1.32.64S89.42,86.49,89.85,86.24Z" transform="translate(-52.87 -22.14)"/><path class="cls-8" d="M565.57,240.41l8.36-1,9.77,1.24,1.87,2.77.47,3.48-.4,1.62c-4.38,6.15-.19,6.65,4.5,6.82l.18,3.06c-3.86.28-3.86.28-6.62,8.65l-5.11,8.67-3.11-2.14-.66-.37.74.28-.6,3.12-2.84,0-14.54-3.5-.62-7.8c3.62-2.18,7.31-4.26,10.85-6.57,3.24-2.11,5.25-4.29.13-6.92-1.19-.61-1.49-3-2.2-4.54C571.55,244.81,565.08,242.71,565.57,240.41Zm15,7a5.08,5.08,0,0,0-.51,1.13c0,.13.44.54.56.49a4.86,4.86,0,0,0,1-.64Z" transform="translate(-52.87 -22.14)"/><path class="cls-8" d="M488.68,112c-12.14-4-14.18-7.1-11.25-17.23,3.67-8.24,7.37-16.47,11-24.73,2.28-5.2,5.88-5.57,10.39-3.09,3.53,2.52,3.15,5.27,1.72,9.17C496.2,87.9,492.58,100,488.68,112Z" transform="translate(-52.87 -22.14)"/><path class="cls-9" d="M67.63,85.63l-1.36,3.12,4.61,3.82q.12.64.19,1.28c-1.16.4-2.31.89-3.5,1.18-1.39.34-3.88.17-4.09.81-2.94,9-.34,14.09,8.85,17.84l2.09.08h0c3,3.3,4.87,6.45,1.94,11.2-.78,1.26,2,4.71,3.1,7.15l1.63,3.32c-20.88-3-35.13-25.09-24.69-48.23l5.49-3.38Z" transform="translate(-52.87 -22.14)"/><path class="cls-1" d="M535.48,190l-6.62.15c-3.26-1.81-8.09-2.81-9.49-5.56-4.82-9.51-9.87-10.63-17.25-2.59l-6-1.4a49.57,49.57,0,0,0,2.52-5.21,12.53,12.53,0,0,0,.23-3.51l.54-2.81,2.75-7.15,3.91.18.29-.07,1.62,2.51,1.47-2.51,2.47-1.55,3.58,1.54c3.33,7.29,9.18,3.61,14.26,3.28l.6,5c-2.29,3.45-2.52,6,2.57,6.8,1.07.17,1.9,1.78,2.84,2.73C529.26,183.08,535.76,186.67,535.48,190Z" transform="translate(-52.87 -22.14)"/><path class="cls-9" d="M535.48,190c.28-3.37-6.22-7,.32-10.14-.94-.95-1.77-2.56-2.84-2.73-5.09-.83-4.86-3.35-2.57-6.8,2.95-1.23,5.84-2.6,8.85-3.67,3.58-1.27,6.8-3.29,5.76-7.34-.82-3.21-3.33-6-5.18-8.94a42.53,42.53,0,0,0-2.6-3.37c4.49-1.78,3.69-4.67,1.66-7.83.48-2.81-.47-6.53,4.68-2.49,9.12,7.15,8.53,17.5,9.1,26.79C553.43,175.71,546.94,184.91,535.48,190Z" transform="translate(-52.87 -22.14)"/><path class="cls-1" d="M245.84,201.92c7.93,2,6.56-3.64,6.7-8.06l3.35,1.48c3.19,3.15,6,6.92,9.7,9.24,2.83,1.77,6.82,1.68,10.29,2.42a2.19,2.19,0,0,1,.3,1.33l0,2.26A12.61,12.61,0,0,1,276,212c-2.52,4.83,2.57,5.18,4.47,6.19,3.93,2.07,6.06,4.45,5.43,8.94l-5.11,3.12c-.95-1-2.42-1.79-2.76-2.95-2.35-7.88-9.55-9.68-15.56-9.56s-6.57,7-7.38,12.23a9,9,0,0,1-1,2.24l-10-5c2.6-1.76,5.43-3.25,7.75-5.33,3.88-3.48,4.2-7-.91-9.86l-5-8.31Z" transform="translate(-52.87 -22.14)"/><path class="cls-1" d="M239.25,113.79c6.35-3.38,13.42-4.3,19.54-9.41,10.09-8.44,20.15-16.53,27.77-27.41.86-1.22,4-.86,6.06-1.22l-2.24,2.31C284.68,84.74,279.51,92,273.2,98c-15,14.33-30.47,28.09-45.76,42.09-3.59-3.37-3.89-7.53-1.14-11.09,2.26-2.94,6.12-4.6,8.64-7.4C236.88,119.45,237.85,116.43,239.25,113.79Z" transform="translate(-52.87 -22.14)"/><path class="cls-8" d="M172.74,81.62a5.54,5.54,0,0,1,1.56.46l1.47,1.72,10.4,24.9c-.91,9-6.91,1.94-10.26,3.25l-3.28-1.53c-2.61-2-5.86-3.62-7.68-6.21-3.13-4.46-6.49-4.1-10.53-2.06l-3.24-8.56c2.08.06,5.6.85,6,.06,2.85-5.57,8.33-6.16,13.18-8.16C171.5,85,172,82.95,172.74,81.62Z" transform="translate(-52.87 -22.14)"/><path class="cls-1" d="M79.44,132.09c-1.13-2.44-3.88-5.89-3.1-7.15,2.93-4.75,1.08-7.89-1.94-11.2l2.28-4.19,22.69-.83,3.59,4.86c-1.05,1.88-5.36,3.1-.61,6,4.21,2.56,7.87,6,11.78,9.09l-6.52,3.79L96,135.24a24.44,24.44,0,0,0,1.92-4.42c.58-2.58.79-5.24,1.16-7.87-2.73,1.18-7.48,1.93-7.84,3.62C89.61,134.32,84,131.68,79.44,132.09Z" transform="translate(-52.87 -22.14)"/><path class="cls-10" d="M239.25,113.79c-1.4,2.64-2.36,5.67-4.31,7.82-2.52,2.79-6.38,4.46-8.64,7.4-2.74,3.56-2.45,7.72,1.14,11.09l-8.61,10.22-1.3,1.48-1.71,1.76-9.05,9.27a2.26,2.26,0,0,1-.86-.79l-3.67-4.76.34-2.23c10.14.45,6.14-6.35,5.78-11.28,1-2.73,2.63-5.44,2.69-8.19.1-4.92-.08-4.27,4.67-5.17,2-.37,3.54-4.61,4.57-7.36.76-2,.36-4.47.47-6.56,3.05,1.15,6.1,3.36,7.44,2.59,3.32-1.9,6.28-5,2.25-9.35-.46-.5.17-3.05.8-3.28,1.34-.49,3-.08,4.54,0-.11,1.08-.69,2.45-.24,3.19A28.44,28.44,0,0,0,239.25,113.79Z" transform="translate(-52.87 -22.14)"/><path class="cls-2" d="M224.22,238.67l3.1,2.17,3.58,4.41-5,13.26-5.22,6.69c-6.45,1.1-6.75-5.09-9.66-8.17l-5-1.82c-1.68-4-3.34-1.62-5,0h0l-3-3.3,3.08-8.31,1.72-3.2,3.64-5.07,11.52,1.37Zm-11.52,8.86c-.4.23-1,.38-1.14.7s.28.86.46,1.29l1.56-1Zm-4.09,2.73c-.26-.36-.48-1-.8-1s-.84.33-1.26.52l1.16,1.47Z" transform="translate(-52.87 -22.14)"/><path class="cls-10" d="M372.42,263.56l-3.61-3,5.26-10.32L384.31,245c5.57,1.52,10.23.57,13.22-4.89l3.16-3.13,3.31-1.93,3.44,3.24-4.22,4,4.09,1.29,1.83,3.73c3,6.27,1.35,12.19-1.33,18-2.41-1.62-4.91-3.13-7.21-4.89-2.62-2-5.87-6.58-7.45-6C386.06,256.88,376.54,254.45,372.42,263.56Z" transform="translate(-52.87 -22.14)"/><path class="cls-10" d="M360.61,168.78c1.36-2,2.34-4.65,4.22-5.93,1.33-.9,5.64-.08,5.65.12.42,7.9,7,4.08,10.63,5.54,2.71,1.1,7.4-.17,8.65,1.51a32.26,32.26,0,0,1,5.48,13.18c.48,2.66-1.8,5.82-2.83,8.76Z" transform="translate(-52.87 -22.14)"/><path class="cls-10" d="M557.6,273.09l14.54,3.5c.43,1.28.55,3.4,1.35,3.69,7.9,2.95,12.87,9.44,18.68,14.91l-8.27,5.09c-1.61-1.32-4.45-2.48-4.63-4-1.33-11.07-10.79-11.62-18.32-14.57-.8-.31-2.3,1.18-3.48,1.84,5.5,5.71-1.85,9.33-2.29,14.08l-6.15-4.3c.49-1.79,1.87-3.94,1.32-5.3-2.7-6.62,0-10,6.07-12.14C557.06,275.7,557.22,274.07,557.6,273.09Z" transform="translate(-52.87 -22.14)"/><path class="cls-5" d="M284.28,183.62c2.6,1.75,5.21,3.48,7.79,5.26,2.35,1.63,4.66,3.33,7,5-.6,7,.05,14.51-2.21,21-1.67,4.77-7.13,8.22-10.91,12.26.63-4.49-1.51-6.86-5.43-8.94-1.9-1-7-1.36-4.47-6.19,2.95,1.36,5.58,4.25,7.72-1.69,1.31-3.64,7.71-6.4,7.58-9.36-.16-3.78-4.62-7.37-7.23-11l-.57-4.73Z" transform="translate(-52.87 -22.14)"/><path class="cls-11" d="M107.81,190.48c4.19,4.59,4.14,15.79-.09,19.81L106,204.82l-2.64,1.77,4.34,3.74c-.23,2.3.64,5.67-3.8,3.78-3.39-1.45-6.81-2.83-10.21-4.24-1.1,3.35-2.11,6.72-3.33,10-.44,1.18-1.4,2.16-2.65,4l-3.58-7c-4.38-1.57-2.09,8.76-8,3.46l-1.65-1.65Z" transform="translate(-52.87 -22.14)"/><path class="cls-11" d="M407.44,238.3,404,235.07c1.55-7.43-5.07-6.09-8.62-8l-3-4.08L394,215.3l11.94-11.72,6.47,1.68,1.81,3.29c-1.75.8-4.69,1.28-5,2.45-.62,2.41-4.71,6.29,1.48,7.55.54,6.14,4.38,11.9,2.14,18.42-.08.23,1.61,1.06,2.48,1.61l-2.84,5.06L410.73,242Z" transform="translate(-52.87 -22.14)"/><path class="cls-2" d="M488.68,112c3.9-12,7.52-24.06,11.86-35.88,1.43-3.91,1.81-6.65-1.72-9.17,4.15-2.42,7.65-3.62,6.74,3.55L500.43,92l-3.1,8.4L493.92,112l-13.61,38-5,13.48.11-.05-1.45,1.9a4.36,4.36,0,0,1-1.41.34l-1.87-1.91,1.66-3.33,8.32-30h0l3.23-3.42a7.52,7.52,0,0,0,0-1.51Z" transform="translate(-52.87 -22.14)"/><path class="cls-4" d="M372.42,263.56c4.11-9.11,13.64-6.69,20.73-9.16,1.58-.55,4.82,4,7.45,6,2.3,1.77,4.8,3.27,7.21,4.89l-.14,3.3-.66,1.85L380.84,270Z" transform="translate(-52.87 -22.14)"/><path class="cls-4" d="M555.18,297.67c.44-4.74,7.79-8.37,2.29-14.08,1.18-.66,2.68-2.15,3.48-1.84,7.53,2.95,17,3.51,18.32,14.57.18,1.49,3,2.65,4.63,4L566,302.45l-7.16-2.09Z" transform="translate(-52.87 -22.14)"/><path class="cls-11" d="M140.66,84.59c-16.11-2.92-25.49-12.11-28-27.46l8.39,0h0c1.39,7.78,7.56,4.14,11.86,5L136,60.36q.73.16,1.43.4a46.62,46.62,0,0,1-2.48,4c-5.64,7.36-5,9.53,3.65,12.95a48.66,48.66,0,0,1,5.52,3Z" transform="translate(-52.87 -22.14)"/><path class="cls-12" d="M480.31,149.93l13.61-38,0,11.75-2.47,5.76c1.95-.27,4-.21,5.79-.94.94-.39,1.31-2.15,1.93-3.3l23.66-1.53v3.05c-2.45-.24-4.92-.36-7.35-.73-6.09-.92-13.2,3.44-14.87,9.23l.21.38c-8.53,4.8-16,10.45-17,21.26Zm10.45-16.54.58-.45-.49-.54-.75.76Z" transform="translate(-52.87 -22.14)"/><path class="cls-9" d="M493.87,123.73l0-11.75,3.41-11.56c4-1.7,6.47-4,3.1-8.4l5.12-21.57c1.49,2.8,4.62,5.87,4.2,8.34-2.1,12.42-5,24.7-7.92,37-.53,2.27-2.23,4.27-3.39,6.39Z" transform="translate(-52.87 -22.14)"/><path class="cls-10" d="M74.11,220l2,18.86c1,4.44-2.62,5.8-5.28,7.78l-6.41,1.89c-1.89-2.38-3.56-5-5.73-7.09-3.84-3.72-3-7.36.37-10.28C63.84,227.07,69.09,223.64,74.11,220Z" transform="translate(-52.87 -22.14)"/><path class="cls-11" d="M307.49,150.38l-1.85,9.73c3.23-.44,6.8-2,9.63-1.09,5,1.53,9.55,4.51,14.21,7,.09,0-.54,2.47-1.32,2.89a69.89,69.89,0,0,1-7.37,3.1c-16.48-3-26.28-14.41-27.2-31.69,1,1.17,2.68,2.19,3,3.54,1.53,5.85,4.89,5.55,9.12,3.16Z" transform="translate(-52.87 -22.14)"/><path class="cls-7" d="M127.69,108.75c3.06.32,6.16.43,9.17,1a67,67,0,0,1,7.46,2.3l5.13-1.69,6.49,6,8.51.2,1.89.48c-3.45,2-4.58,4,.22,5.71,1.25.45,2.47,1,3.71,1.51l3.9,1.46c-.26,6.56-6.89,3.67-9.65,6.52-1.9-1.31-6.39,1.27-5.67-4.44.2-1.62-3.85-4-6.25-5.61-1.47-1-4.1-.54-5.21-1.7-5.86-6.1-13.36-6.58-21-6.84Z" transform="translate(-52.87 -22.14)"/><path class="cls-8" d="M472.31,160.36l-1.66,3.33-5.3.15c-4.72-1.12-9.45-2.17-14.14-3.39-3.84-1-4.62-2.75-2.33-6.53,2.2-3.63,3.21-8,4.74-12l1.61-.74,12.07,10.9.65,2.23.65-.44L467.33,152l.73-5.83,1.45-.05Z" transform="translate(-52.87 -22.14)"/><path class="cls-10" d="M254.09,232.19a9,9,0,0,0,1-2.24c.81-5.21,1.44-12.11,7.38-12.23s13.21,1.68,15.56,9.56c.34,1.15,1.81,2,2.76,2.95C272.32,236.47,263.32,235.89,254.09,232.19Z" transform="translate(-52.87 -22.14)"/><path class="cls-7" d="M299.21,120.49c5.49-12.49,16.35-17.58,29.09-15.61,3,.46,6.2,0,9,.93,2.53.86,4.61,3.06,6.88,4.66v0l-6.64,2.91-11.83-.7-3.36.06c-5.33-1.28-8,1.63-9.69,6.12Z" transform="translate(-52.87 -22.14)"/><path class="cls-9" d="M299.21,120.49l13.45-1.64c-1.75,1.78-3.57,3.5-5.22,5.37-1.21,1.38-2.18,3-3.26,4.46l1.56,18.39c-4.23,2.39-7.59,2.69-9.12-3.16-.35-1.35-2-2.37-3-3.54C291.72,132.67,294,126.17,299.21,120.49Z" transform="translate(-52.87 -22.14)"/><path class="cls-9" d="M590.34,258.44l-.18-3.06.36-5.2c2-2.36,3.47-3.43,6.13-.22,1.55,1.87,4.82,2.31,7.32,3.39l.1.12,2.89,5.39L606,270.34a32.16,32.16,0,0,0-3.77,4.05c-2.16,3.27-3.84,6.86-6.13,10-2.81,3.88-5.35,2.79-7.27-1.06,3.29-4.6,6.93-9,9.72-13.89,1.23-2.17,4.53-6.11-1.41-7.55Z" transform="translate(-52.87 -22.14)"/><path class="cls-1" d="M588.85,283.35c1.92,3.85,4.46,4.94,7.27,1.06,2.29-3.16,4-6.76,6.13-10a32.16,32.16,0,0,1,3.77-4.05c-.42,10.63-5.24,18.81-13.85,24.87-5.82-5.47-10.79-12-18.68-14.91-.8-.3-.91-2.42-1.35-3.69l2.84,0,3.63-.89,5.11-8.67,4.78.14c-.47,2.19-.57,4.55-1.48,6.54C585.3,277.55,584.13,280.93,588.85,283.35Z" transform="translate(-52.87 -22.14)"/><path class="cls-10" d="M502.12,182c7.38-8,12.42-6.92,17.25,2.59,1.39,2.75,6.23,3.76,9.49,5.56-6,6-13.1,3.47-20,2.44-1.68-.25-3.36-.57-5-.85h-1.68l-4.91-4.87Z" transform="translate(-52.87 -22.14)"/><path class="cls-12" d="M453.61,141.9c-1.53,4-2.54,8.39-4.74,12-2.29,3.78-1.51,5.53,2.33,6.53,4.69,1.22,9.43,2.27,14.14,3.39l-6.52,4a1.22,1.22,0,0,0,.27-1l-2-1.28-4.84-1.8-3.51,3.11-.3-.17-7.08,5.93-2.14-1.8-2,2.9-3.09-.16L427.36,167v-3.29c4-2,8.9,4.95,12.52-1.34,2.28-4,4.68-7.88,7.22-11.69C449.12,147.67,451.43,144.83,453.61,141.9Z" transform="translate(-52.87 -22.14)"/><path class="cls-13" d="M172.74,81.62c-.77,1.33-1.24,3.39-2.37,3.85-4.85,2-10.33,2.59-13.18,8.16-.41.8-3.93,0-6-.06l1.44-3.15,2.77-2L151,88.6l1.35-5.9-4.75-.65-1.9-1,0-.36,5-8.33,5.13,1.32c1.57,6.83,5.07,3.13,8.19,1.5l1.89.24Z" transform="translate(-52.87 -22.14)"/><path class="cls-5" d="M132.88,62.09c-4.3-.81-10.47,2.83-11.86-5a2.36,2.36,0,0,0,.56-.27c.09-.08.09-.27.13-.41l-.67.69-8.39,0,2.48-15c5.18,1.79,9.57,7.29,16,3.39l-1.9,4.69-3.81,3.65,5.35,3.09,1.74,2.1Z" transform="translate(-52.87 -22.14)"/><path class="cls-7" d="M61.86,83.79l-5.49,3.38c-.48-.6-1.51-1.38-1.37-1.76,3.76-10.64,23.25-20,35.57-16.91L84.5,73.45l-6.73,3.75-3.39,1.5Z" transform="translate(-52.87 -22.14)"/><path class="cls-8" d="M500.58,135.28c2-.53,4.29-.6,5.91-1.69,3.3-2.23,5.94-2.56,8.29,1.07l.17-.22c-5.73-1.42-3.88,3.1-4.47,5.71l-4.84,4.9,7.91,7.44-7.63,2.92-7-5.11-4.1-4.19,5.94-10.44Z" transform="translate(-52.87 -22.14)"/><path class="cls-5" d="M290.37,78.06l2.24-2.31c-2.39-6.26-7.67-8.09-13.63-8.87,0-5.84,6-6,8.72-9.31,2.15,1.85,4.61,3.44,6.41,5.59,7.4,8.82,7.19,12.33-.72,15.49C292.59,79,291.38,78.28,290.37,78.06Z" transform="translate(-52.87 -22.14)"/><path class="cls-4" d="M257.54,88.78c-3.42,3.73-9.92,1.68-12.9,7-.42.74-5.52-1.16-8.45-1.85.26-.78.28-1.92.82-2.27q12.88-8.55,25.91-16.87c.17-.11.84.55,1.27.85-.3,1.86-.54,5.32-.89,5.33-5.49.17-3.35,5.67-5.75,7.85a2.35,2.35,0,0,0-.27-.57c-.08-.1-.28-.09-.43-.13Z" transform="translate(-52.87 -22.14)"/><path class="cls-11" d="M374.08,250.26l-5.26,10.32c-8.93-6.88-10.28-16.45-9.51-26.78l6.34-5.56C363.35,237.54,363.54,245.88,374.08,250.26Z" transform="translate(-52.87 -22.14)"/><path class="cls-3" d="M152.8,165.68l-15-5.3-1.31-3.05c2.2,0,6.06,2.91,4.84-3.07-.38-1.87.93-4.08,1.47-6.13l4.89,2.59,6.26,5,9.74,9.37Z" transform="translate(-52.87 -22.14)"/><path class="cls-4" d="M142.78,148.13c-.54,2.05-1.85,4.26-1.47,6.13,1.22,6-2.64,3-4.84,3.07l-8.76-7c3.95-6.49-1.83-9.36-4.93-13.22C131.78,136.56,136.81,143.2,142.78,148.13Z" transform="translate(-52.87 -22.14)"/><path class="cls-7" d="M104.54,83.64,100.61,79c9.74-6.22,11.73-6.2,17.36,4.11,3.18,5.81,4.17,12.82,6.14,19.28L116,100c0-4,.72-8.14-.21-11.9-.88-3.56-2.62-8.5-8.18-4.07l-3.15-.5Z" transform="translate(-52.87 -22.14)"/><path class="cls-7" d="M370.54,216.56c1.33-9.63,9.92-9.77,16.51-12.34.71-.27,2.94,1.7,3.48,3,1,2.51,1.32,5.31,1.92,8l-.43.42c-2.89.25-8.32-7.39-8.09,2.59l-1.47.47-3.27,0Z" transform="translate(-52.87 -22.14)"/><path class="cls-12" d="M175.92,111.95c3.35-1.31,9.35,5.76,10.26-3.25,1.38,2.35,3.43,4.56,4,7.09.84,3.91,3.1,3.45,5.76,2.95l-1.68,5.07L179.94,125l-.31-2.79L177.14,117,176,115.34Z" transform="translate(-52.87 -22.14)"/><path class="cls-7" d="M604,253.35c-2.5-1.08-5.77-1.52-7.32-3.39-2.66-3.21-4.17-2.15-6.13.22l-1.66-1.64c-1-1.74,2.15-6.18-3.28-5.07l-1.87-2.77.63-6.83c2.37,1.06,5.46,1.51,7,3.3C595.72,242.39,604.24,244.51,604,253.35Z" transform="translate(-52.87 -22.14)"/><path class="cls-11" d="M245.84,201.92l.05,1.73-6.09.45,5.59,2.44c-7.5-.77-8.3,3.54-7.87,9.06a29,29,0,0,1-.23,4c-6.37-4.92-6.92-12.05-7.33-19.24C235.68,196.39,240.83,198.48,245.84,201.92Z" transform="translate(-52.87 -22.14)"/><path class="cls-11" d="M116,100l8.11,2.38,3.57,6.34-1.31,4.88c-1.72,2.86.68,8.32-5.34,8.48l-5.18-4.95,1.67-8.51-1.71-5Z" transform="translate(-52.87 -22.14)"/><path class="cls-12" d="M160.95,35.2c-.27-7,5-4,8.34-4.66L171,33.81l3.25,5c7,6.31,6.1,13.81,3.23,21.6L174,52c-1.93-5.83.57-14.71-10-14.53Z" transform="translate(-52.87 -22.14)"/><path class="cls-9" d="M174,52l3.48,8.47c-1.15,3.1-2,6.34-3.61,9.22-.42.77-2.85.45-4.36.62l-5.07-4.75-.12-2.37,3.37-11.06Z" transform="translate(-52.87 -22.14)"/><path class="cls-7" d="M407,162.36,405.71,152c4.85,1.89,9.86,3.48,14.5,5.8,2.69,1.35,4.79,3.89,7.15,5.89V167c-4.14-1.09-8.27-2.25-12.43-3.26-2.58-.63-5.21-1-7.82-1.53Z" transform="translate(-52.87 -22.14)"/><path class="cls-6" d="M520.6,132.25l5.76,1.45,6,1.62-.1,0,0,3.22-.13,3.65L528.53,147h-3c-.89-.34-2.17-1.23-2.62-.92-5.92,4.12-5.48-.34-5.62-4.06Z" transform="translate(-52.87 -22.14)"/><path class="cls-12" d="M362.88,135.46l-5.44-5-.23-2.1c-1.88-7.85-10.23-7.93-14.89-12.44l1.86-5.49v0c12.33,3.77,18,12.88,20.16,24.91Z" transform="translate(-52.87 -22.14)"/><path class="cls-12" d="M149.44,110.38l-5.13,1.69-3.65-27.48,3.48-3.89.77.12.77-.08,0,.36a1.49,1.49,0,0,0,.38,1.09Z" transform="translate(-52.87 -22.14)"/><path class="cls-4" d="M79.44,132.09c4.54-.41,10.17,2.24,11.82-5.52.36-1.69,5.11-2.44,7.84-3.62-.37,2.63-.58,5.29-1.16,7.87A24.44,24.44,0,0,1,96,135.24l-15,.17Z" transform="translate(-52.87 -22.14)"/><path class="cls-3" d="M419.67,340.17l-.85,4L412,345.87l-2-.41c-2.53-.72-5.32-1-7.51-2.27-2.6-1.55-4.68-4-7-6l3.66-3.92,1.08-.22c2.84,4.49,5.95,8.38,12.12,5.49C413.56,344.51,417,340.45,419.67,340.17Z" transform="translate(-52.87 -22.14)"/><path class="cls-7" d="M230.9,245.26l-3.58-4.41c4.68-7.88,4.91-7.89,13.57-.57l6.66,15c-1.08-.2-2.41-.06-3.17-.66a42,42,0,0,1-4.22-4.32C237.6,247.65,238.2,239.16,230.9,245.26Z" transform="translate(-52.87 -22.14)"/><path class="cls-9" d="M206.77,162.82l9.05-9.27a14.86,14.86,0,0,0-.22,4.07,46,46,0,0,0,2.05,5.79c1.45-1.86,3.2-3.58,4.22-5.65.45-.92-.58-2.57-.93-3.88L228,158a22.4,22.4,0,0,0-.4,4c.44,5.83-1.23,7.57-6.49,3.78-.9-.65-2.61-.19-3.94-.24L207.26,164A1.34,1.34,0,0,1,206.77,162.82Z" transform="translate(-52.87 -22.14)"/><path class="cls-10" d="M131.08,45.49c-6.39,3.89-10.78-1.61-16-3.39l2.26-5.2,5.19-3.2,5.61-2.62c-2.47,5.74,2.85,8.59,4.72,12.71Z" transform="translate(-52.87 -22.14)"/><path class="cls-5" d="M122.78,137.14c3.11,3.86,8.88,6.73,4.93,13.22l-15.06-13.12c-.7-6.84,4.31-2.68,6.74-3.5Z" transform="translate(-52.87 -22.14)"/><path class="cls-11" d="M250.9,212c5.11,2.84,4.8,6.38.91,9.86-2.31,2.08-5.15,3.57-7.75,5.33l-5.42-6.06Z" transform="translate(-52.87 -22.14)"/><path class="cls-9" d="M250.9,212l-12.25,9.13-1.37-1.45a29,29,0,0,0,.23-4c-.42-5.52.38-9.84,7.87-9.06l-5.59-2.44,6.09-.45Z" transform="translate(-52.87 -22.14)"/><path class="cls-3" d="M344.16,165.58c-.87-6.37,2.94-8.89,8.33-10.13l8.27-.27-3.34,11.71C353.23,164,348.72,164.54,344.16,165.58Z" transform="translate(-52.87 -22.14)"/><path class="cls-7" d="M404.1,152c-.46.93-.72,2.43-1.42,2.69-5.76,2.08-18.61-5-20.24-11Z" transform="translate(-52.87 -22.14)"/><path class="cls-12" d="M370.54,216.56l8.65,2.14a2,2,0,0,0-.21,1.11l-1.24,3.79-.65-.08c-3.91,1.35-10-2.66-11.45,4.73l-6.34,5.56C360.15,226.16,362.5,219.51,370.54,216.56Z" transform="translate(-52.87 -22.14)"/><path class="cls-12" d="M128.18,31.08l-5.61,2.62-3.38-1.81c1.62-6.06,5.71-9.13,11.83-9.75-.08,9.52,4.69.21,6.68,1.72l0,0,.52,3.16Z" transform="translate(-52.87 -22.14)"/><path class="cls-7" d="M224.22,238.67l-6.33-2-3.65-9.78,2.11-.49a12.71,12.71,0,0,0,2.25.94C225.24,228.8,226.72,232.73,224.22,238.67Z" transform="translate(-52.87 -22.14)"/><path class="cls-7" d="M362.88,135.46l1.44-.08L375.76,142,365,143.82Z" transform="translate(-52.87 -22.14)"/><path class="cls-5" d="M220.94,153.87c.36,1.32,1.38,3,.93,3.88-1,2.07-2.77,3.79-4.22,5.65a46,46,0,0,1-2.05-5.79,14.86,14.86,0,0,1,.22-4.07l1.71-1.76,1.94,1.62A7.93,7.93,0,0,1,220.94,153.87Z" transform="translate(-52.87 -22.14)"/><path class="cls-9" d="M119.39,133.74c-2.43.82-7.44-3.34-6.74,3.5l-5-4.77,6.52-3.79,1.9.06Z" transform="translate(-52.87 -22.14)"/><path class="cls-7" d="M568.34,230.2,580,231.92l-.3,2.39L568,233.59Z" transform="translate(-52.87 -22.14)"/><path class="cls-5" d="M493.87,123.73l4.57-1.58.68,3.11c-.63,1.14-1,2.91-1.93,3.3-1.76.73-3.84.67-5.79.94Z" transform="translate(-52.87 -22.14)"/><path class="cls-9" d="M244.29,170.25c-6.15,1.57-10.8-2-11.53-8.91Z" transform="translate(-52.87 -22.14)"/><path class="cls-8" d="M520.6,132.25,517.3,142l-4.94-1.72,2.59-5.86-.17.22Z" transform="translate(-52.87 -22.14)"/><path class="cls-8" d="M538.89,139.23c2,3.16,2.83,6.06-1.66,7.83l-2-1.27-.15-2.6.47-4.43.68-.14.67.16Z" transform="translate(-52.87 -22.14)"/><path class="cls-7" d="M164.47,65.54l5.07,4.75-2.07.21-4.72-1.33,0-.16Z" transform="translate(-52.87 -22.14)"/><path class="cls-8" d="M77.77,77.21l6.73-3.75A2.16,2.16,0,0,1,84.58,75C83.64,79.93,81.06,79.67,77.77,77.21Z" transform="translate(-52.87 -22.14)"/><path class="cls-7" d="M394,215.3l-1.59,7.65-3.35.71.56-.25-.1-.6-.15-1.87,1.13-2.27,1.54-3,.43-.42A9.89,9.89,0,0,0,394,215.3Z" transform="translate(-52.87 -22.14)"/><path class="cls-4" d="M162.75,69.18l4.72,1.33-1.56,4.95L164,75.22q.15-.62.26-1.25l-1.88-2.14Z" transform="translate(-52.87 -22.14)"/><path class="cls-7" d="M98.9,72.85c-1.25-1.4-2.32-2.07-2.4-2.84s1-1.48,1.51-2.23c.78.65,1.88,1.17,2.23,2C100.46,70.32,99.61,71.32,98.9,72.85Z" transform="translate(-52.87 -22.14)"/><path class="cls-5" d="M119.19,31.89l3.38,1.81-5.19,3.2Z" transform="translate(-52.87 -22.14)"/><path class="cls-2" d="M532.39,135.33l-6-1.62Z" transform="translate(-52.87 -22.14)"/><path class="cls-7" d="M607,258.86l-2.89-5.39Z" transform="translate(-52.87 -22.14)"/><path class="cls-4" d="M399.16,333.24l-3.66,3.92-1.65-2,.13-3.28Z" transform="translate(-52.87 -22.14)"/><path class="cls-2" d="M536.86,138.78l-.67-.16-.68.14a5.69,5.69,0,0,0-1.48.37l-1.76-.63,0-3.22Z" transform="translate(-52.87 -22.14)"/><path class="cls-8" d="M91.09,75.91l-1.51,2.29-1.84-2.73Z" transform="translate(-52.87 -22.14)"/><path class="cls-9" d="M219.47,153.41l-1.94-1.62,1.3-1.48Z" transform="translate(-52.87 -22.14)"/><path class="cls-8" d="M572,237.57l.41.1Z" transform="translate(-52.87 -22.14)"/><path class="cls-10" d="M74.44,218.64l1.65,1.65L74,220A1.18,1.18,0,0,1,74.44,218.64Z" transform="translate(-52.87 -22.14)"/><path class="cls-13" d="M175.78,83.8l-1.47-1.72Z" transform="translate(-52.87 -22.14)"/><path class="cls-4" d="M198,299.26c-16.34-9.8-23-22-20.32-37.29,1.55,3.25,3.26,6.44,4.61,9.77,2,4.84,8.32,9.21,12.23,8.17l4.85-6.41-.13,0,1.68.12,8.4,2c1.57,4.42,4,7.2,9.41,6.83,2.65-.18,5.44,1.53,8.16,2.39-1.27,2.58-2.47,5.2-3.84,7.73-1.64,3-6.88,4.61-3.72,9.51l-16.76-.34Zm15,.16c-.41-.25-.82-.68-1.24-.7s-.89.36-1.34.57c.41.25.82.68,1.24.7S212.61,299.63,213.06,299.42Z" transform="translate(-52.87 -22.14)"/><path class="cls-1" d="M219.34,302.08c-3.16-4.9,2.08-6.49,3.72-9.51,1.37-2.53,2.57-5.15,3.84-7.73-2.73-.86-5.51-2.57-8.16-2.39-5.43.37-7.83-2.41-9.41-6.83l11.9-7.22c6.06-3.5,7.08.8,7.91,5.19a13.93,13.93,0,0,1-.14,3.22c-4.33,1.36-3,3.34-.13,4.46,2.11.82,4.68.47,7,.64l-.08,11.48L234,296.11Z" transform="translate(-52.87 -22.14)"/><path class="cls-5" d="M235.9,281.9c-2.36-.17-4.93.19-7-.64-2.86-1.12-4.19-3.1.13-4.46.4.35,1,1.1,1.19,1,10.09-4.46,12-13.43,4.82-22l5.17-5.53a42,42,0,0,0,4.22,4.32c.76.6,2.1.46,3.17.66,3.32,3.52,3.92,7.41,1.55,11.69Z" transform="translate(-52.87 -22.14)"/><path class="cls-11" d="M235.9,281.9l13.21-15c-.06,11-3.91,20.11-13.29,26.43Z" transform="translate(-52.87 -22.14)"/><path class="cls-10" d="M452.4,270.27c-8.18,17.91-16.4,35.81-24.51,53.75-2.34,5.17-4.34,10.48-6.5,15.73l-1.72.42c-2.63.28-6.11,4.34-7.31-1.66l-.05-3.46L412,330.2l10.46-26.5,1.67-1.68,4.75-13.5.53-4.87,2.72-5.14,3.36-6.7,5.08,1.79C442.78,266.44,447.8,269.08,452.4,270.27Z" transform="translate(-52.87 -22.14)"/><path class="cls-6" d="M428.85,288.52,424.09,302l-3.4-5.14c-.31-1-.35-2.68-1-3a33,33,0,0,0-5.84-1.51A13.88,13.88,0,0,0,414,295c.72,3,2.4,3.79,5.11,2,.41-.27,1.07-.15,1.61-.22l1.72,6.84L412,330.2c-5.54-2.62-10.33-7.79-17.42-5.06L396,318.5c7.22.07,4.85-6,5.64-9.52,1.61-7.14.12-15.27,7.37-20.36,2.26-.92,5.46-1.26,6.52-2.94s.29-4.81,0-7.25c-.2-1.53-1.91-3.54-1.39-4.35,1.68-2.66,4.07-4.88,6.19-7.26l-9.52,1.76-3.11,0,.14-3.3c2.68-5.85,4.34-11.77,1.33-18l3.34-3.64,2.84-5.06,5.1-11.86,7.23,8.49c-4.05,6.3-7.16,12.69-1.94,19.89l-.18,1.91a26.17,26.17,0,0,0-3,3.73c-.17.3,1.08,1.4,1.67,2.13l1.43-2.59c3.61-.66,4.48-2.23,1.68-5,1.18-3.07.42-8.69,6.68-5.08-4.1,6.6.91,9.84,5,13.42l-1.77,3.12c-2.45.71-6.18.7-7.06,2.28-1.7,3-3.34,7.33,1.92,9.53l-2.72,5.14L423,285.49Zm-5-12.2c.42-.2,1.07-.3,1.2-.61s-.24-.85-.39-1.29l-1.58.82Z" transform="translate(-52.87 -22.14)"/><path class="cls-8" d="M410.79,268.58l9.52-1.76c-2.12,2.39-4.51,4.6-6.19,7.26-.52.82,1.2,2.83,1.39,4.35.31,2.44,1.12,5.51,0,7.25s-4.26,2-6.52,2.94l-2-12.76-.26.06Z" transform="translate(-52.87 -22.14)"/><path class="cls-2" d="M407,275.86l2,12.76c-7.25,5.08-5.76,13.21-7.37,20.36-.79,3.52,1.58,9.59-5.64,9.52,2.82-12.93,5.6-25.87,8.54-38.77C404.87,278.33,406.15,277.15,407,275.86Z" transform="translate(-52.87 -22.14)"/><path class="cls-8" d="M394.55,325.14c7.09-2.73,11.89,2.44,17.42,5.06l.35,4.84-12.07-2-1.08.22L394,331.91Z" transform="translate(-52.87 -22.14)"/><path class="cls-2" d="M410.79,268.58l-4.06,7.34.29-5.44.66-1.85Z" transform="translate(-52.87 -22.14)"/><path class="cls-4" d="M167,197.63c-3.94-8-8.37-1-12.59-.41-.87-2.28,5.07-5.92-1.41-7.09l3.11-5.75a36.89,36.89,0,0,1-4.72-4c-.64-.69-.25-2.34-.33-3.55l16.38-6.27,5,9.81c-.22,2.23-1.25,4.78-.5,6.62C174.33,192.7,172.76,196,167,197.63Z" transform="translate(-52.87 -22.14)"/><path class="cls-9" d="M167.5,170.61l-16.38,6.27,1.69-11.19,10.86-.61-.12-.07.66,1.91Z" transform="translate(-52.87 -22.14)"/><path class="cls-11" d="M112.81,214.25l.86,1-1.53,1c-.17-.43-.54-.92-.44-1.27S112.42,214.47,112.81,214.25Z" transform="translate(-52.87 -22.14)"/><path class="cls-4" d="M154.5,197.1l-3.42,2.49Z" transform="translate(-52.87 -22.14)"/><path class="cls-9" d="M167,197.63c5.71-1.63,7.28-4.94,5-10.6-.75-1.84.28-4.39.5-6.62l22,49.7,1.63,11.74-5.78.55c-5-9.2-10.13-18.35-15-27.62C172.41,209.17,169.81,203.36,167,197.63Z" transform="translate(-52.87 -22.14)"/><path class="cls-13" d="M202.58,155l-.34,2.23c-7.35,2.86-14.6,7.5-22.07,7.86-4.15.2-4.43,1.66-5.89,3.67a13.91,13.91,0,0,1-1.62-.16l-3.37-8.33-.12-3.25,2.53-3c5.1-2.35,10.29-4.52,15.2-7.21.87-.48.55-3.13.78-4.77L191.4,136c1.65,1.92,3,3.3,4.14,4.86,1.78,2.48,6.86,4.53,1.28,8.43C196.58,149.44,204.25,149.42,202.58,155Z" transform="translate(-52.87 -22.14)"/><path class="cls-13" d="M196.16,241.86l-1.63-11.74c3.64-.94,7.24-2.1,10.93-2.74a69,69,0,0,1,8.77-.44l3.65,9.78-11.52-1.37c-3.64,0-7.23-.06-3.64,5.07l-1.72,3.2Z" transform="translate(-52.87 -22.14)"/><path class="cls-8" d="M174.28,168.81c1.46-2,1.74-3.47,5.89-3.67,7.47-.36,14.73-5,22.07-7.86l3.67,4.76c-4.61,2.75-9.14,5.67-13.88,8.16-1.56.82-3.69.68-5.57.76a85.21,85.21,0,0,1-9.7.07C175.89,171,175.11,169.59,174.28,168.81Z" transform="translate(-52.87 -22.14)"/><path class="cls-10" d="M207.26,164l9.94,1.54c1.54,2.59,4.95,6.66,4.28,7.5-2.8,3.54-6.82,6.11-10.39,9Z" transform="translate(-52.87 -22.14)"/><path class="cls-8" d="M169.3,160.33l3.37,8.33-3.34-1.43-1.49-6.45A5.79,5.79,0,0,1,169.3,160.33Z" transform="translate(-52.87 -22.14)"/><path class="cls-3" d="M167.84,160.77l1.49,6.45-5.12-.31-.66-1.91Z" transform="translate(-52.87 -22.14)"/><path class="cls-8" d="M202.58,155c1.67-5.63-6-5.61-5.77-5.77,5.58-3.9.5-6-1.28-8.43-1.12-1.56-2.49-2.94-4.14-4.86l-3.71,6.13-6.83-6.78-2.87-10,1.94-.37,14.3-1.19c-1.92,7.31,4.69,10.08,7.95,14.55,1.57,2.16,4.09,3.63,6.17,5.41C208.73,148.7,212.73,155.49,202.58,155Z" transform="translate(-52.87 -22.14)"/><path class="cls-9" d="M420.42,226.72l-5.1,11.86c-.87-.55-2.56-1.39-2.48-1.61,2.25-6.51-1.6-12.28-2.14-18.42a26.64,26.64,0,0,1,3.5-.29c1.38.06,3.91.69,4,.49,1-3.41,1.69-6.91,2.45-10.39,2.61-5.27,10.13-8.56,6.63-16.32l3.89-5.36,4.28.22,0,7c-5,3.24-2.38,7.45-1.46,11.45l-.2,4.84c-5.71,1.27-.67,4.66-1.37,6.91-2,.62-3.88,1.62-5.87,1.77C421.45,219.25,419.46,221.75,420.42,226.72Z" transform="translate(-52.87 -22.14)"/><path class="cls-3" d="M427.25,192c3.5,7.76-4,11-6.63,16.32l-6.4.18-1.81-3.29c.07-2.7,3.27-6.46-2.82-7.07-1.08-.11-1.84-3.36-2.75-5.15,1.71,0,3.42.2,5.12.1C417.05,192.82,422.15,192.42,427.25,192Z" transform="translate(-52.87 -22.14)"/><path class="cls-5" d="M357.21,128.38l.23,2.1q0,4.12,0,8.24L354,140.28l-3.59-1.55a3.11,3.11,0,0,1-.91.17l-8.88-7c1-1.57,2-4.46,3-4.49C348.14,127.25,352.68,128,357.21,128.38Z" transform="translate(-52.87 -22.14)"/><path class="cls-10" d="M354,140.28l3.47-1.56c1.21,2.79,3.91,5.58-.07,8.32-2.22-2.79-8.33.49-8.52-5.46l.63-2.69a3.11,3.11,0,0,0,.91-.17Z" transform="translate(-52.87 -22.14)"/><path class="cls-10" d="M360.75,155.18l-8.27.27,4.9-8.34C362.86,148,360,152.34,360.75,155.18Z" transform="translate(-52.87 -22.14)"/><path class="cls-12" d="M435.41,186.91l-4.28-.22q-.23-.68-.43-1.37,0-.82,0-1.64l1.9-2.4,4.72-.92Z" transform="translate(-52.87 -22.14)"/><path class="cls-13" d="M437.33,180.36l-4.72.92-1.88-4.43,3.25-.28,3,.67a2,2,0,0,1,.36,1.57A2.26,2.26,0,0,1,437.33,180.36Z" transform="translate(-52.87 -22.14)"/><path class="cls-13" d="M429.15,174l1.7,3Z" transform="translate(-52.87 -22.14)"/><path class="cls-9" d="M430.71,183.69q0,.82,0,1.64Z" transform="translate(-52.87 -22.14)"/><path class="cls-8" d="M480.27,123.05c-.86-2-1.75-4-2.53-6.1,0-.1,1.14-.81,1.16-.78,1.32,1.74,2.58,3.52,3.84,5.3Z" transform="translate(-52.87 -22.14)"/><path class="cls-8" d="M483.9,125.46a7.52,7.52,0,0,1,0,1.51,9.26,9.26,0,0,1-.59-1.12A3.9,3.9,0,0,1,483.9,125.46Z" transform="translate(-52.87 -22.14)"/><path class="cls-8" d="M479,128.66l1.67.07Z" transform="translate(-52.87 -22.14)"/><path class="cls-2" d="M479,128.66l1.67.07q0,.83,0,1.66h0Z" transform="translate(-52.87 -22.14)"/><path class="cls-13" d="M357.21,128.38c-4.53-.41-9.06-1.12-13.58-1-1.06,0-2,2.92-3,4.49l-.72,6.71-2.75.1L330.84,132l-1.63-6.71c3.32-4.55,3-8.13-2.61-10.52-.51-.22-.61-1.41-.9-2.14l11.83.7,4.78,2.58C347,120.44,355.33,120.53,357.21,128.38Z" transform="translate(-52.87 -22.14)"/><path class="cls-8" d="M330.84,132l6.28,6.66c-.68,5.2-7.58,9.86-12.35,8.65-3.93-1-8-1.48-12-2.18l1.14-13c3.64,1.1,7.24,2.76,11,3.08C326.76,135.42,328.85,133.18,330.84,132Z" transform="translate(-52.87 -22.14)"/><path class="cls-7" d="M313.93,132.18l-1.14,13-5.3,5.23-1.75-3.33-1.56-18.39Z" transform="translate(-52.87 -22.14)"/><path class="cls-7" d="M339.86,138.59l.72-6.71,8.88,7-.63,2.69Z" transform="translate(-52.87 -22.14)"/><path class="cls-1" d="M509.07,216.74q21.25,13.26,42.51,26.49a7.15,7.15,0,0,0,2.42.47l-.33,3.24-13.11,0c-1.27-.76-2.84-2.43-3.77-2.13-6.59,2.13-13,4.66-19.54,7.07l-6.62-1.75-3.37-1.54-3.29-.11a49.88,49.88,0,0,1-5.6-3.32c-2-1.55-3.74-3.46-5.6-5.21,1.92-1.55,3.62-3.89,5.8-4.48,3.48-.94,4-2.07,4.75-5.86C504.14,225.37,503.28,219.18,509.07,216.74Z" transform="translate(-52.87 -22.14)"/><path class="cls-10" d="M509.07,216.74c-5.79,2.44-4.93,8.63-5.72,12.84-.71,3.79-1.28,4.92-4.75,5.86-2.18.59-3.89,2.93-5.8,4.48,1.85,1.75,3.59,3.66,5.6,5.21a49.88,49.88,0,0,0,5.6,3.32l-3.5.24v.18l-1.52-.33c-7.28-2.42-14.49-5.06-21.87-7.14-3-.85-6.38-.48-9.58-.67l.87-4.91c7.21,1.77,6.57-4.12,7.89-8.09,6.13,2.63,9.09-.41,10.65-6l5.39-11.58-.1.12Z" transform="translate(-52.87 -22.14)"/><path class="cls-13" d="M565.57,240.41c-.5,2.3,6,4.4.2,6.85.71,1.56,1,3.93,2.2,4.54,5.11,2.63,3.11,4.81-.13,6.92-3.54,2.31-7.23,4.39-10.85,6.57l-1.43,0-8.05-11.37c3-1.06,9.6,1.78,7.8-6.15l3.91-.85,1.48-6.05,1.5-.64Z" transform="translate(-52.87 -22.14)"/><path class="cls-3" d="M497.23,186.91l4.91,4.87-9.94,18.57.1-.12-5,0c-.17-4.41-1.12-8.18-6.73-8.06Z" transform="translate(-52.87 -22.14)"/><path class="cls-2" d="M559.2,246.88l-3.91.85-1.61-.78.33-3.24Z" transform="translate(-52.87 -22.14)"/><path class="cls-12" d="M116,100l-.2,3.64a79.66,79.66,0,0,1-6,5.68,73,73,0,0,1-6.82,4.23l-3.59-4.86c-.64-3.23-.16-8-2.11-9.4C90.39,94.46,99,95.92,99,94.1c3.48-1.37,7.22-2.31,10.39-4.21,5.66-3.39,1.4-3.89-1.63-4.55a6.5,6.5,0,0,1-.17-1.27c5.56-4.43,7.3.51,8.18,4.07C116.73,91.89,116,96.05,116,100Z" transform="translate(-52.87 -22.14)"/><path class="cls-12" d="M72.33,113.68c-9.18-3.75-11.79-8.81-8.85-17.84.21-.64,2.7-.47,4.09-.81,1.19-.29,2.33-.78,3.5-1.18,8.68,2.54,3.65,8.47,3.27,13.25L72.64,112Z" transform="translate(-52.87 -22.14)"/><path class="cls-13" d="M107.78,85.34c3,.65,7.29,1.15,1.63,4.55-3.17,1.9-6.91,2.84-10.39,4.21L95.17,92l9.37-8.35-.08-.06Z" transform="translate(-52.87 -22.14)"/><path class="cls-8" d="M61.86,83.79l12.52-5.08-6.75,6.91Z" transform="translate(-52.87 -22.14)"/><path class="cls-8" d="M77.67,89.62c.3-2.46.55-4.92,1-7.35,0-.21,1.32-.2,2-.29v7.57Z" transform="translate(-52.87 -22.14)"/><path class="cls-9" d="M72.64,112l1.7-4.88,2.34,2.45-2.28,4.19h0Z" transform="translate(-52.87 -22.14)"/><path class="cls-8" d="M70.88,92.57l-4.61-3.82Z" transform="translate(-52.87 -22.14)"/><path class="cls-8" d="M89.85,86.24c-.43.25-.86.68-1.29.69s-.88-.41-1.32-.64c.43-.25.86-.68,1.3-.69S89.41,86,89.85,86.24Z" transform="translate(-52.87 -22.14)"/><path class="cls-8" d="M86,82.14l-.69-.74.74.69Z" transform="translate(-52.87 -22.14)"/><path class="cls-8" d="M86.09,82.09l.68.73L86,82.14Z" transform="translate(-52.87 -22.14)"/><path class="cls-11" d="M555.55,265.25l1.43,0,.62,7.8c-.38,1-.54,2.61-1.19,2.84-6,2.12-8.77,5.52-6.07,12.14.55,1.36-.83,3.51-1.32,5.3-10.7-8.05-15.14-18.82-11.59-28.11,5.11,1,10.21,2.05,15.36,2.72C553.58,268.08,554.62,266.21,555.55,265.25Z" transform="translate(-52.87 -22.14)"/><path class="cls-13" d="M588.86,248.54l1.66,1.64-.36,5.2c-4.69-.16-8.88-.66-4.5-6.82a5.86,5.86,0,0,0,1.54-.35Z" transform="translate(-52.87 -22.14)"/><path class="cls-10" d="M578.61,275.76l-3.62.89.6-3.12-.08.09Z" transform="translate(-52.87 -22.14)"/><path class="cls-13" d="M580.59,247.42l1.09,1a4.85,4.85,0,0,1-1,.64c-.13,0-.59-.36-.56-.49A4.92,4.92,0,0,1,580.59,247.42Z" transform="translate(-52.87 -22.14)"/><path class="cls-10" d="M575.58,273.53l-.74-.28.66.37Z" transform="translate(-52.87 -22.14)"/><path class="cls-7" d="M586.06,246.94l1.14,1.27a5.88,5.88,0,0,1-1.54.35Z" transform="translate(-52.87 -22.14)"/><path class="cls-1" d="M72.64,112l1.78,1.78-2.09-.08Z" transform="translate(-52.87 -22.14)"/><path class="cls-11" d="M497.23,186.91,480.6,202.14c-4.47,3.75-14,4.09-8.69,14.21l-7.83-1h-6.78l-1.54-1.74-3.39-3.36.05.06,2.07-1.44c8.41-4.11,9-7.11,5.55-15.19-3.63-8.41-10.12-5-15.9-5.09L441,182.9l3.1-1.58,4.76-5.54,5-2.42,18.7-7.77a4.36,4.36,0,0,0,1.41-.34l1.33.51.12-2.41-.11.05c8.24,3.71,1.4,4.88-1.1,6.91-.9.73-2.21,2.08-2,2.75a4.73,4.73,0,0,0,2.73,2.77c.73.24,2.44-.8,2.87-1.68,2.23-4.53,4.2-9.2,6.26-13.81l2,0,4.9,3.32,1.81,4.75,6.19,3.49a12.53,12.53,0,0,1-.23,3.51,49.57,49.57,0,0,1-2.52,5.21l6,1.4Z" transform="translate(-52.87 -22.14)"/><path class="cls-7" d="M534,139.13a5.69,5.69,0,0,1,1.48-.37l-.47,4.43.15,2.6,2,1.27a42.53,42.53,0,0,1,2.6,3.37c1.85,2.93,4.35,5.73,5.18,8.94,1,4.06-2.18,6.08-5.76,7.34-3,1.06-5.9,2.43-8.85,3.67l-.6-5-3-8.39.16-5,1.57-5,3.61-4.86Z" transform="translate(-52.87 -22.14)"/><path class="cls-2" d="M527,152l-.16,5-11.27,5.1L512,160.53c0-2.87-.63-4.48-3.59-2a2.09,2.09,0,0,0-.8.27l-1.66-3.37,7.63-2.92-7.91-7.44,4.84-4.9,1.89.14L517.3,142c.14,3.72-.3,8.18,5.62,4.06.44-.31,1.73.59,2.62.92Z" transform="translate(-52.87 -22.14)"/><path class="cls-8" d="M515.53,162.07,526.8,157l3,8.39C524.71,165.67,518.86,169.35,515.53,162.07Z" transform="translate(-52.87 -22.14)"/><path class="cls-3" d="M508.36,158.51c3-2.46,3.63-.86,3.59,2l-2.47,1.55h-3.09l-.29.07-.47-.33,1.71-1.48Z" transform="translate(-52.87 -22.14)"/><path class="cls-12" d="M492.7,168.44l6.73.68-.54,2.81Z" transform="translate(-52.87 -22.14)"/><path class="cls-13" d="M506.39,162.08h3.09L508,164.59Z" transform="translate(-52.87 -22.14)"/><path class="cls-13" d="M506.1,162.15l-3.91-.18,0,0,3.42-.12Z" transform="translate(-52.87 -22.14)"/><path class="cls-13" d="M260.76,181.4l3.21-3.17c2.13,2.68,4.33,5.31,6.36,8.07a30.54,30.54,0,0,1,2.15,4l-2.11.62,1.76,1L275.87,207c-3.47-.74-7.46-.66-10.29-2.42-3.71-2.32-6.51-6.09-9.7-9.24l.68-5.09,4.39-4.82Z" transform="translate(-52.87 -22.14)"/><path class="cls-7" d="M275.87,207l-3.74-15.12.23-.22,2-1.2a2.25,2.25,0,0,0,1.42.29l8.3-.86c2.61,3.67,7.07,7.26,7.23,11,.13,3-6.28,5.72-7.58,9.36-2.14,5.94-4.77,3-7.72,1.69a12.61,12.61,0,0,0,.09-1.39l2.11-1.1-2.07-1.16A2.19,2.19,0,0,0,275.87,207Z" transform="translate(-52.87 -22.14)"/><path class="cls-5" d="M276.17,208.32l2.07,1.16-2.11,1.1Z" transform="translate(-52.87 -22.14)"/><path class="cls-3" d="M164.44,116.55l-8.51-.2a69.47,69.47,0,0,1-1.37-6.87c-.25-2.43-.1-4.9-.13-7.35,4-2,7.4-2.39,10.53,2.06,1.82,2.59,5.07,4.17,7.68,6.21l-3.1,3.36C167.4,113.88,163.63,111,164.44,116.55Z" transform="translate(-52.87 -22.14)"/><path class="cls-6" d="M154.43,102.14c0,2.45-.13,4.92.13,7.35a69.47,69.47,0,0,0,1.37,6.87l-6.49-6L146,82.18a7.48,7.48,0,0,0,1.52-.13l4.75.65L151,88.6l1.66,1.83-1.44,3.15Z" transform="translate(-52.87 -22.14)"/><path class="cls-11" d="M169.54,113.77l3.1-3.36,3.28,1.53.09,3.4Z" transform="translate(-52.87 -22.14)"/><path class="cls-5" d="M103,113.58a73,73,0,0,0,6.82-4.23,79.66,79.66,0,0,0,6-5.68l1.71,5-5.88,4.08,4.21,4.43,5.18,4.95-5,6.62-1.9-.06c-3.9-3.07-7.57-6.53-11.78-9.09C97.6,116.68,101.91,115.47,103,113.58Z" transform="translate(-52.87 -22.14)"/><path class="cls-8" d="M275.81,190.74a2.25,2.25,0,0,1-1.42-.29l-1.82-.08-.08-.08a30.54,30.54,0,0,0-2.15-4c-2-2.75-4.23-5.39-6.36-8.07,2.55-.48,5.46-2,7.57-1.24,4.47,1.59,8.52,4.35,12.74,6.63l-.74,1.53C280.54,186.43,273.52,182.16,275.81,190.74Z" transform="translate(-52.87 -22.14)"/><path class="cls-8" d="M260.95,185.42l-4.39,4.82,1.84-5.08Z" transform="translate(-52.87 -22.14)"/><path class="cls-2" d="M260.95,185.42l-2.55-.26,2.36-3.75Z" transform="translate(-52.87 -22.14)"/><path class="cls-8" d="M221.22,268.39l-11.9,7.22-8.4-2-1.68-.12.13,0c.58-4.43,7.06-8.15,1.59-13.3v-5c1.66-1.64,3.32-4,5,0l3.3,4L211,257c2.92,3.08,3.21,9.26,9.66,8.17Z" transform="translate(-52.87 -22.14)"/><path class="cls-7" d="M221.22,268.39l-.57-3.19,5.22-6.69L235,255.8c7.21,8.58,5.27,17.55-4.82,22-.21.09-.78-.65-1.19-1a13.93,13.93,0,0,0,.14-3.22C228.3,269.19,227.28,264.89,221.22,268.39Z" transform="translate(-52.87 -22.14)"/><path class="cls-3" d="M201,255.24v5c-2.2-.8-4.88,4.9-7-.78-.58-1.52-4.13-1.92-6.32-2.83l2.05-5,2.19-1.53-5.69-1.4c-1.74-4.19,1.12-5.32,4.2-6.3l5.78-.55,4.85,1.77-3.08,8.31-2.39,1.81,5.43,1.49Z" transform="translate(-52.87 -22.14)"/><path class="cls-13" d="M235,255.8l-9.13,2.72,5-13.26c7.3-6.1,6.69,2.39,9.26,5Z" transform="translate(-52.87 -22.14)"/><path class="cls-3" d="M202.73,240.42c-3.6-5.14,0-5.12,3.64-5.07Z" transform="translate(-52.87 -22.14)"/><path class="cls-8" d="M201,255.23l-5.43-1.49,2.39-1.81Z" transform="translate(-52.87 -22.14)"/><path class="cls-6" d="M211,257l-1.72,2.15-3.3-4Z" transform="translate(-52.87 -22.14)"/><path class="cls-6" d="M212.7,247.54l.88,1-1.56,1c-.17-.44-.56-.94-.46-1.29S212.3,247.76,212.7,247.54Z" transform="translate(-52.87 -22.14)"/><path class="cls-6" d="M208.61,250.26l-.9,1-1.16-1.47c.42-.2.89-.59,1.26-.52S208.34,249.9,208.61,250.26Z" transform="translate(-52.87 -22.14)"/><path class="cls-5" d="M365.65,228.24c1.41-7.39,7.54-3.38,11.45-4.73l4,3.59-.15,3a51.9,51.9,0,0,1-4.41,3c-1.75,1-3.63,1.65-5.46,2.45l4.42,9.3,5.27-4.52,3.53,4.73-10.23,5.24C363.54,245.88,363.35,237.54,365.65,228.24Z" transform="translate(-52.87 -22.14)"/><path class="cls-13" d="M381,230.07l.15-3c2.75-.92,7.22,2.14,8-3.43l3.35-.71,3,4.08.31,4.18-3-1.34,1.33,5.23,3.78,1.85-.26,3.19c-3,5.47-7.64,6.41-13.22,4.89l-3.53-4.73C382.65,236.92,388,233.6,381,230.07Z" transform="translate(-52.87 -22.14)"/><path class="cls-9" d="M395.69,231.21l-.31-4.18c3.55,2,10.17.62,8.62,8L400.69,237l-2.9-.06L394,235.09Z" transform="translate(-52.87 -22.14)"/><path class="cls-3" d="M407.44,238.3l3.29,3.68-3.42,1.57-4.09-1.29Z" transform="translate(-52.87 -22.14)"/><path class="cls-9" d="M407.31,243.56l3.42-1.57,1.76,1.66-3.34,3.64Z" transform="translate(-52.87 -22.14)"/><path class="cls-7" d="M397.78,236.94l2.9.06-3.16,3.13Z" transform="translate(-52.87 -22.14)"/><path class="cls-13" d="M275.81,190.74c-2.28-8.58,4.73-4.31,7.73-5.59l.57,4.73Z" transform="translate(-52.87 -22.14)"/><path class="cls-1" d="M107.7,210.32l-4.34-3.74,2.64-1.77,1.72,5.48Z" transform="translate(-52.87 -22.14)"/><path class="cls-5" d="M414.22,208.55l6.4-.18c-.76,3.48-1.45,7-2.45,10.39-.06.19-2.58-.44-4-.49a26.64,26.64,0,0,0-3.5.29c-6.19-1.27-2.1-5.15-1.48-7.55C409.53,209.83,412.47,209.34,414.22,208.55Z" transform="translate(-52.87 -22.14)"/><path class="cls-5" d="M484,160.35c-2.06,4.62-4,9.28-6.26,13.81-.43.88-2.14,1.92-2.87,1.68a4.73,4.73,0,0,1-2.73-2.77c-.2-.67,1.12-2,2-2.75,2.5-2,9.35-3.2,1.1-6.91l5-13.48,3.46,7Zm-3.54-.78-.61-1.33c-.24.42-.66.83-.68,1.26s.36.88.57,1.32Z" transform="translate(-52.87 -22.14)"/><path class="cls-13" d="M472.52,165.6l-18.7,7.77a.92.92,0,0,1,.07-.81l4.93-4.7,6.52-4,5.3-.15Z" transform="translate(-52.87 -22.14)"/><path class="cls-5" d="M500.43,92c3.37,4.42.91,6.69-3.1,8.4Z" transform="translate(-52.87 -22.14)"/><path class="cls-5" d="M475.37,163.36l-.12,2.41-1.33-.51Z" transform="translate(-52.87 -22.14)"/><path class="cls-4" d="M145.69,80.73l-.77.08-.77-.12a48.66,48.66,0,0,0-5.52-3c-8.66-3.41-9.3-5.59-3.65-12.95a46.62,46.62,0,0,0,2.48-4L141.34,59c1.47,5.61-1.17,14.1,9.37,13.35Z" transform="translate(-52.87 -22.14)"/><path class="cls-3" d="M141.34,59l-3.89,1.72q-.71-.23-1.43-.4l-.85-5L132.46,59l-1.74-2.1.12-4.82h6.74l6.85,3.32-.34,3.31q-.72,0-1.44,0l-1.59.15Z" transform="translate(-52.87 -22.14)"/><path class="cls-4" d="M132.46,59l2.71-3.69.85,5-3.14,1.73Z" transform="translate(-52.87 -22.14)"/><path class="cls-4" d="M484,160.35l-.24-3.44c1-10.8,8.49-16.46,17-21.26l-5.94,10.44,4.1,4.19L492.29,152c-1.54.14-4.14-.17-4.44.51-1,2.42-1.3,5.19-1.86,7.82Z" transform="translate(-52.87 -22.14)"/><path class="cls-5" d="M490.76,133.4l-.66-.24.75-.76.49.54Z" transform="translate(-52.87 -22.14)"/><path class="cls-6" d="M144.11,58.75l.34-3.31a68.85,68.85,0,0,0-3.06-7.91c-.75-1.44-2.37-2.43-3.6-3.62l.65-.85-.85.64-4.67.09c-1.88-4.12-7.2-7-4.72-12.71l10-4.09,5.21.29.23.07,2.33.74,3.44.59,10.46,6.61c-1.8,1.72-3.49,3.58-5.43,5.13a37.87,37.87,0,0,1-4.81,2.85l4.82,5.56-.59,3.27-1.87,1,2.16.69,1.38,2.79Zm-1.75-27.83c-.4,1-.93,1.74-.76,2.1a2.85,2.85,0,0,0,1.66,1.53c.48.08,1.12-.79,1.69-1.24Zm.91,7.8c.23.4.38,1,.7,1.13s.86-.28,1.29-.45l-1-1.56Z" transform="translate(-52.87 -22.14)"/><path class="cls-8" d="M154.42,48.85l-4.82-5.56a37.87,37.87,0,0,0,4.81-2.85c1.94-1.55,3.63-3.41,5.43-5.13a2.31,2.31,0,0,1,1.11-.1l3,2.26L159.35,44Z" transform="translate(-52.87 -22.14)"/><path class="cls-8" d="M149.38,28.68l-3.44-.59Z" transform="translate(-52.87 -22.14)"/><path class="cls-8" d="M143.61,27.35l-.23-.07.21-1.11Z" transform="translate(-52.87 -22.14)"/><path class="cls-12" d="M137.69,23.86l.66-.7c0,.14,0,.33-.13.41a2.35,2.35,0,0,1-.56.26Z" transform="translate(-52.87 -22.14)"/><path class="cls-12" d="M116,128.73l5-6.62c6-.16,3.62-5.62,5.34-8.48,7.65.26,15.15.75,21,6.84,1.11,1.16,3.74.72,5.21,1.7,2.4,1.59,6.45,4,6.25,5.61-.71,5.71,3.77,3.13,5.67,4.44-1.17,2.46-2.2,5-3.58,7.34-.39.67-1.78.75-2.71,1.1-.1-4.44-1.4-3.73-2.76-.53-1.17,2.75-1.88,5.69-2.79,8.55l0,0-5,2-4.89-2.59c-6-4.92-11-11.56-20-11l-3.39-3.4Z" transform="translate(-52.87 -22.14)"/><path class="cls-5" d="M147.67,150.72l5-2a2.24,2.24,0,0,0,.28.6c.09.1.31.08.47.12l-.71-.76c.91-2.86,1.62-5.8,2.79-8.55,1.36-3.19,2.66-3.91,2.76.53.93-.35,2.32-.43,2.71-1.1,1.38-2.34,2.42-4.88,3.58-7.34,2.76-2.85,9.4,0,9.65-6.52l3.82-.36,2.87,10c-1,.63-2.56,1-3,1.92-2.06,4.28-3.81,8.71-5.68,13.08-1.08-1.29-2.46-2.43-3.18-3.89-2.75-5.64-4.67-4.34-6.36.58L161,150.4l0,0-7.09,5.32Z" transform="translate(-52.87 -22.14)"/><path class="cls-8" d="M177.14,117l2.49,5.21-2.56-.39q.34-.91-.69-1.14l-6.11,3.58c-1.24-.51-2.45-1.06-3.71-1.51-4.8-1.73-3.68-3.67-.22-5.71C170,121.46,173.55,119.18,177.14,117Z" transform="translate(-52.87 -22.14)"/><path class="cls-13" d="M177.14,117c-3.59,2.19-7.18,4.48-10.8.05l-1.89-.48c-.82-5.54,3-2.67,5.1-2.78l6.47,1.57Z" transform="translate(-52.87 -22.14)"/><path class="cls-13" d="M177.07,121.81l2.56.39.31,2.79-1.94.37-3.82.36-3.9-1.46,6.11-3.58A2.89,2.89,0,0,0,177.07,121.81Z" transform="translate(-52.87 -22.14)"/><path class="cls-6" d="M467.33,152l1.27,1.82-.65.44-.65-2.23Z" transform="translate(-52.87 -22.14)"/><path class="cls-2" d="M313.93,132.18l-9.75-3.51c1.08-1.49,2.05-3.08,3.26-4.46,1.64-1.87,3.47-3.59,5.22-5.37,1.68-4.49,4.36-7.41,9.69-6.12-5.7,9.11-4.11,12,6.87,12.6l1.63,6.71c-2,1.15-4.08,3.39-6,3.23C321.17,134.93,317.57,133.28,313.93,132.18Z" transform="translate(-52.87 -22.14)"/><path class="cls-8" d="M329.21,125.32c-11-.58-12.56-3.49-6.87-12.6l3.36-.06c.29.74.38,1.92.9,2.14C332.18,117.2,332.53,120.78,329.21,125.32Zm-6.56-3.59.58-.42c-.16-.17-.44-.51-.47-.48a6.27,6.27,0,0,0-.75.68Z" transform="translate(-52.87 -22.14)"/><path class="cls-12" d="M588.49,267.23c.53-.15,1.12-.53,1.58-.42,4.26,1.07,6.15-1.2,7.08-4.89,5.94,1.43,2.64,5.38,1.41,7.55-2.78,4.89-6.42,9.29-9.72,13.89-4.72-2.42-3.55-5.81-1.83-9.59C587.92,271.78,588,269.42,588.49,267.23Z" transform="translate(-52.87 -22.14)"/><path class="cls-6" d="M453.89,172.56a.92.92,0,0,0-.07.81l-5,2.42-7.56-3,.13-.18,7.08-5.93Z" transform="translate(-52.87 -22.14)"/><path class="cls-3" d="M453.89,172.56l-5.41-5.88.3.17,3.51-3.11,4.84,1.8,2,1.28a1.22,1.22,0,0,1-.27,1Z" transform="translate(-52.87 -22.14)"/><path class="cls-7" d="M437,177.24l-3-.67.21-3,3.09.16,1.64.3Z" transform="translate(-52.87 -22.14)"/><path class="cls-11" d="M438.91,174l-1.64-.3,2-2.9,2.14,1.8-.13.18Z" transform="translate(-52.87 -22.14)"/><path class="cls-6" d="M452.29,163.73l-3.51,3.11Z" transform="translate(-52.87 -22.14)"/><path class="cls-9" d="M459.09,166.82l-2-1.28Z" transform="translate(-52.87 -22.14)"/><path class="cls-8" d="M144.11,58.75l11.38-2.13L160,63.27l-2.33,2.2-3.75.77,3.91,2.7a4.62,4.62,0,0,0-.34,1.31l-1.24,1.4-.34,2-.1,0L150.7,72.4c-10.53.75-7.89-7.75-9.37-13.35l-.27-.1.81.1.78-.26Q143.38,58.79,144.11,58.75Z" transform="translate(-52.87 -22.14)"/><path class="cls-7" d="M164.29,74q-.11.63-.26,1.25c-3.12,1.62-6.62,5.33-8.19-1.5l.1,0Z" transform="translate(-52.87 -22.14)"/><path class="cls-8" d="M152.63,90.43,151,88.6l4.43-.21Z" transform="translate(-52.87 -22.14)"/><path class="cls-11" d="M147.57,82.05a7.48,7.48,0,0,1-1.52.13,1.49,1.49,0,0,1-.38-1.09Z" transform="translate(-52.87 -22.14)"/><path class="cls-8" d="M132.91,43.79l4.67-.09.2.21c1.23,1.19,2.85,2.18,3.6,3.62a68.85,68.85,0,0,1,3.06,7.91l-6.85-3.32c-1.23-5.7-4.21-2.76-6.88-1.39a10.37,10.37,0,0,1-1.53-.55l1.9-4.69Z" transform="translate(-52.87 -22.14)"/><path class="cls-11" d="M121,57.15l.67-.69c0,.14,0,.33-.13.41a2.36,2.36,0,0,1-.56.27Z" transform="translate(-52.87 -22.14)"/><path class="cls-6" d="M512.36,140.3l-1.89-.14c.59-2.61-1.26-7.13,4.47-5.71Z" transform="translate(-52.87 -22.14)"/><path class="cls-3" d="M257.54,88.78l-.7-.71c.15,0,.35,0,.43.13a2.35,2.35,0,0,1,.27.57Z" transform="translate(-52.87 -22.14)"/><path class="cls-12" d="M153.93,155.7l7.09-5.32c2.54,2.46,2.63,7.89,8.16,6.69l.12,3.25a5.79,5.79,0,0,0-1.46.45L163.55,165l.12.07Z" transform="translate(-52.87 -22.14)"/><path class="cls-6" d="M107.78,85.34l-3.32-1.77,3.15.5A6.5,6.5,0,0,0,107.78,85.34Z" transform="translate(-52.87 -22.14)"/><path class="cls-3" d="M389.05,223.66c-.74,5.58-5.2,2.52-8,3.43l-4-3.59.65.08L379,219.8a2,2,0,0,1,.21-1.11l3.27,0,1.82,2.37-.19,0,1.87,2.6,3.54-.85.1.6Z" transform="translate(-52.87 -22.14)"/><path class="cls-9" d="M392,215.66l-1.54,3-6.54-.42C383.71,208.28,389.13,215.91,392,215.66Z" transform="translate(-52.87 -22.14)"/><path class="cls-8" d="M383.94,218.26l6.54.42-1.13,2.27-5.07.15-1.82-2.37Z" transform="translate(-52.87 -22.14)"/><path class="cls-9" d="M115.85,117.17l-4.21-4.43,5.88-4.08Z" transform="translate(-52.87 -22.14)"/><path class="cls-10" d="M159.35,44,164,37.45c10.62-.19,8.12,8.7,10,14.53l-6.3.12C167.86,46.37,163,45.82,159.35,44Z" transform="translate(-52.87 -22.14)"/><path class="cls-7" d="M159.35,44c3.67,1.78,8.52,2.33,8.39,8.06l-3.37,11.06-4.33.11-4.54-6.65-1.38-2.79-.28-1.72.59-3.27Z" transform="translate(-52.87 -22.14)"/><path class="cls-2" d="M160,63.27l4.33-.11.12,2.37L162.72,69l-3.15.2-1.88-3.74Z" transform="translate(-52.87 -22.14)"/><path class="cls-8" d="M527,152l-1.42-5h3Z" transform="translate(-52.87 -22.14)"/><path class="cls-11" d="M534,139.13l-1.88,3,.13-3.65Z" transform="translate(-52.87 -22.14)"/><path class="cls-4" d="M400.24,333l12.07,2,.05,3.46C406.19,341.4,403.08,337.51,400.24,333Z" transform="translate(-52.87 -22.14)"/><path class="cls-13" d="M379,219.8l-1.24,3.79Z" transform="translate(-52.87 -22.14)"/><path class="cls-3" d="M535.19,145.79l-.15-2.6Z" transform="translate(-52.87 -22.14)"/><path class="cls-12" d="M159.57,69.21l3.15-.2,0,.16-.35,2.65-6.13-.19,1.24-1.4,2-.51Z" transform="translate(-52.87 -22.14)"/><path class="cls-11" d="M384.29,221.09l5.07-.15.15,1.87-3.54.85-1.87-2.6Z" transform="translate(-52.87 -22.14)"/><path class="cls-13" d="M156.28,71.64l6.13.19L164.29,74l-8.35-.28Z" transform="translate(-52.87 -22.14)"/><path class="cls-9" d="M189.67,251.63l-2.05,5q2.55,8.62,5.09,17.24c.6,2,1.21,4,1.82,6.07-3.91,1-10.25-3.33-12.23-8.17-1.36-3.33-3.06-6.52-4.61-9.77-.19-6.06-.07-11.9,8.42-11.72Z" transform="translate(-52.87 -22.14)"/><path class="cls-8" d="M189.67,251.63l-3.55-1.39a2.5,2.5,0,0,1,.05-1.55l5.69,1.4Z" transform="translate(-52.87 -22.14)"/><path class="cls-12" d="M194.53,279.91c-.61-2-1.22-4-1.82-6.07q-2.55-8.62-5.09-17.24c2.19.91,5.74,1.3,6.32,2.83,2.16,5.68,4.84,0,7,.78,5.47,5.15-1,8.87-1.59,13.3Z" transform="translate(-52.87 -22.14)"/><path class="cls-1" d="M213.06,299.42c-.44.21-.9.59-1.33.57s-.83-.45-1.24-.7c.45-.21.9-.59,1.34-.57S212.65,299.17,213.06,299.42Z" transform="translate(-52.87 -22.14)"/><path class="cls-12" d="M199.25,273.45l1.68.12Z" transform="translate(-52.87 -22.14)"/><path class="cls-4" d="M476.27,227.75c-1.32,4-.69,9.86-7.89,8.09l-.87,4.91L452.4,270.27c-4.61-1.19-9.62-3.82-11.87,3.34l-5.08-1.79,1.78-5.12,1.77-3.12,8.64-19.89,3.19-13.38,1.45-3.34V227l1.85-1.75a41.12,41.12,0,0,0,5.09,4.54c2.09,1.34,5.52,3.65,6.6,2.92,3.34-2.26,1.16-4.3-1.51-5.93-.55-.34-.25-2.08-.35-3.17h0l1.81-.06,8.2,1.95,1.9,1.46A1.46,1.46,0,0,1,476.27,227.75Z" transform="translate(-52.87 -22.14)"/><path class="cls-3" d="M555.55,265.25c-.92,1-2,2.83-2.76,2.72-5.15-.67-10.25-1.76-15.36-2.72-1.84-1.67-3.4-4-5.56-4.9-10.37-4.11-20.91-7.8-31.39-11.65l3.5-.24,3.29.11,3.37,1.54,6.62,1.75c6.06,5.88,13,1.17,19.45,1.21,1.27,0,2.57-4,3.86-6.14l13.11,0,1.61.78c1.81,7.93-4.77,5.09-7.8,6.15Z" transform="translate(-52.87 -22.14)"/><path class="cls-3" d="M499,248.56l1.52.33A2.25,2.25,0,0,1,499,248.56Z" transform="translate(-52.87 -22.14)"/><path class="cls-2" d="M437.24,266.7l-1.78,5.12-3.36,6.7c-5.26-2.2-3.62-6.5-1.92-9.53C431.06,267.4,434.79,267.41,437.24,266.7Z" transform="translate(-52.87 -22.14)"/><path class="cls-2" d="M428.85,288.52l-5.85-3,6.38-1.83Z" transform="translate(-52.87 -22.14)"/><path class="cls-2" d="M422.43,303.71l-1.72-6.84v0l3.4,5.14Z" transform="translate(-52.87 -22.14)"/><path class="cls-13" d="M452.29,227l-1.45,3.34c-2.38.12-4.77.23-7.15.37-2.1.13-4.92,1.24-6.18.28-5.94-4.49-7.17-2.63-6.17,3.79.08.55-1.48,1.35-2.28,2l-1.39-1.58-7.23-8.49c-1-5,1-7.48,6.14-7.88,2-.16,3.92-1.16,5.87-1.77,3.23,1.83,6.4,3.79,9.71,5.44S448.9,225.5,452.29,227Z" transform="translate(-52.87 -22.14)"/><path class="cls-8" d="M427.65,235.21l1.39,1.58,6.64,8.48,3.3,5.13-5-.23c-6.26-3.61-5.5,2-6.68,5.08a7.31,7.31,0,0,1-1.64-.15C420.49,247.9,423.6,241.51,427.65,235.21Z" transform="translate(-52.87 -22.14)"/><path class="cls-2" d="M434,250.17l5,.23-3.3-5.13,12-1.58L439,263.58C434.94,260,429.94,256.77,434,250.17Z" transform="translate(-52.87 -22.14)"/><path class="cls-2" d="M420.71,296.87c-.54.06-1.2,0-1.61.22-2.71,1.74-4.39,1-5.11-2a13.88,13.88,0,0,1-.13-2.63,33,33,0,0,1,5.84,1.51c.64.29.68,1.94,1,3Z" transform="translate(-52.87 -22.14)"/><path class="cls-8" d="M425.68,260.28l-1.43,2.59c-.59-.73-1.84-1.82-1.67-2.13a26.17,26.17,0,0,1,3-3.73Z" transform="translate(-52.87 -22.14)"/><path class="cls-2" d="M425.68,260.28l-.14-3.26.18-1.91a7.31,7.31,0,0,0,1.64.15C430.16,258,429.28,259.62,425.68,260.28Z" transform="translate(-52.87 -22.14)"/><path class="cls-2" d="M423.81,276.32l-.77-1.08,1.58-.82c.15.44.53,1,.39,1.29S424.23,276.13,423.81,276.32Z" transform="translate(-52.87 -22.14)"/><path class="cls-6" d="M172.19,150.34c1.86-4.37,3.62-8.8,5.68-13.08.44-.91,2-1.29,3-1.92l6.83,6.78c-.23,1.65.09,4.3-.78,4.77-4.91,2.69-10.1,4.86-15.2,7.21Z" transform="translate(-52.87 -22.14)"/><path class="cls-9" d="M172.19,150.34l-.48,3.77-2.53,3c-5.53,1.2-5.63-4.24-8.16-6.69l0,0,1.67-3.38c1.68-4.92,3.6-6.22,6.36-.58C169.73,147.91,171.11,149,172.19,150.34Z" transform="translate(-52.87 -22.14)"/><path class="cls-10" d="M452.29,227c-3.39-1.47-6.84-2.81-10.15-4.46s-6.48-3.62-9.71-5.44c.69-2.26-4.35-5.65,1.37-6.91l8.48-3a7.62,7.62,0,0,1,1.43-.09l8.72,3.18-.05-.06,1.43,7.25.09.55-1.62,9Z" transform="translate(-52.87 -22.14)"/><path class="cls-13" d="M434,205.32c-.92-4-3.54-8.21,1.46-11.45l8.21-3.76,2.16,1.9,4.84,3.42.08,6.46c-1.83-.79-4.08-1.14-5.42-2.44-4.08-4-5.46-2-6.19,2.34l-3.44,3.72Z" transform="translate(-52.87 -22.14)"/><path class="cls-6" d="M443.67,190.11l-8.21,3.76,0-7,1.92-6.55a2.26,2.26,0,0,0,0-1.54l6.75,2.5L441,182.9l3.18,5.67A3.84,3.84,0,0,0,443.67,190.11Z" transform="translate(-52.87 -22.14)"/><path class="cls-1" d="M434,205.32l1.72.19,6.57,1.7-8.48,3Z" transform="translate(-52.87 -22.14)"/><path class="cls-7" d="M354,140.28l-3.59-1.55Z" transform="translate(-52.87 -22.14)"/><path class="cls-12" d="M444.07,181.32l-6.75-2.5a2,2,0,0,0-.36-1.57l2-3.24,2.36-1.22,7.56,3Z" transform="translate(-52.87 -22.14)"/><path class="cls-4" d="M540.57,246.93c-1.29,2.15-2.59,6.15-3.86,6.14-6.47,0-13.39,4.67-19.45-1.21,6.5-2.4,13-4.94,19.54-7.07C537.73,244.5,539.29,246.17,540.57,246.93Z" transform="translate(-52.87 -22.14)"/><path class="cls-10" d="M510.64,250.12l-3.37-1.54Z" transform="translate(-52.87 -22.14)"/><path class="cls-12" d="M474,225.5l-8.2-1.95-1.72-8.24,7.83,1c-5.32-10.11,4.22-10.46,8.69-14.21,5.61-.13,6.56,3.64,6.73,8.06l-7.64,4.68q3.25,3.27,6.51,6.54a2.79,2.79,0,0,0,.72.38c-1.56,5.54-4.52,8.58-10.65,6a1.46,1.46,0,0,0-.38-.79Z" transform="translate(-52.87 -22.14)"/><path class="cls-7" d="M486.92,221.8a2.79,2.79,0,0,1-.72-.38q-3.27-3.26-6.51-6.54l7.64-4.68,5,0Z" transform="translate(-52.87 -22.14)"/><path class="cls-3" d="M443.67,190.11a3.84,3.84,0,0,1,.49-1.53c5.78.1,12.27-3.33,15.9,5.09,3.48,8.07,2.86,11.08-5.55,15.19l-3.75-7-.08-6.46c1-4.84-1.79-4.31-4.84-3.42Z" transform="translate(-52.87 -22.14)"/><path class="cls-10" d="M464.09,215.32l1.72,8.24-1.81.06a2.33,2.33,0,0,0-.28-.56c-.08-.09-.28-.08-.43-.12l.7.7c.09,1.09-.21,2.83.35,3.17,2.67,1.63,4.85,3.67,1.51,5.93-1.08.73-4.52-1.58-6.6-2.92a41.12,41.12,0,0,1-5.09-4.54l1.21-6.59,2-3.37Z" transform="translate(-52.87 -22.14)"/><path class="cls-8" d="M450.75,201.89l3.75,7-2.07,1.44-8.72-3.18-4.56-5.32c.72-4.31,2.11-6.31,6.19-2.34C446.67,200.75,448.92,201.1,450.75,201.89Z" transform="translate(-52.87 -22.14)"/><path class="cls-12" d="M486,160.38c.56-2.63.82-5.4,1.86-7.82.29-.68,2.89-.37,4.44-.51-.28,3.91,5.53,8.54-1.39,11.65Z" transform="translate(-52.87 -22.14)"/><path class="cls-6" d="M453.81,217.47l-1.43-7.25,3.39,3.36Z" transform="translate(-52.87 -22.14)"/><path class="cls-3" d="M453.81,217.47l2-3.89,1.54,1.74-2,3.37a2.07,2.07,0,0,1-1.44-.67Z" transform="translate(-52.87 -22.14)"/><path class="cls-8" d="M508.36,158.51l-1,1.83-.17-1.72.39.15A2.09,2.09,0,0,1,508.36,158.51Z" transform="translate(-52.87 -22.14)"/><path class="cls-1" d="M507.18,158.63l.17,1.72-1.71,1.48-3.42.12Z" transform="translate(-52.87 -22.14)"/><path class="cls-8" d="M272.13,191.88l-1.76-1,2.11-.62.08.08a1.91,1.91,0,0,0-.2,1.28Z" transform="translate(-52.87 -22.14)"/><path class="cls-13" d="M272.36,191.65a1.91,1.91,0,0,1,.2-1.28l1.82.08Z" transform="translate(-52.87 -22.14)"/><path class="cls-7" d="M381,230.07c7.07,3.53,1.7,6.85-.18,10.22l-5.27,4.52-4.42-9.3c1.83-.81,3.71-1.5,5.46-2.45A51.9,51.9,0,0,0,381,230.07Z" transform="translate(-52.87 -22.14)"/><path class="cls-12" d="M395.69,231.21,394,235.09l-1.33-5.23Z" transform="translate(-52.87 -22.14)"/><path class="cls-11" d="M480.46,159.57l-.72,1.25c-.21-.44-.58-.89-.57-1.32s.43-.84.68-1.26Z" transform="translate(-52.87 -22.14)"/><path class="cls-4" d="M130.85,52.11a5.45,5.45,0,0,1-.42-.93c0-.12.18-.3.29-.45,2.66-1.37,5.64-4.31,6.88,1.39Z" transform="translate(-52.87 -22.14)"/><path class="cls-4" d="M142.66,58.79l-.78.26-.81-.1Z" transform="translate(-52.87 -22.14)"/><path class="cls-8" d="M142.36,30.92l2.6,2.39c-.57.45-1.21,1.33-1.69,1.24A2.85,2.85,0,0,1,141.6,33C141.42,32.65,142,31.94,142.36,30.92Z" transform="translate(-52.87 -22.14)"/><path class="cls-8" d="M143.27,38.72l1-.87,1,1.56c-.44.17-.94.55-1.29.45S143.5,39.12,143.27,38.72Z" transform="translate(-52.87 -22.14)"/><path class="cls-8" d="M153.83,52.11l.28,1.72L152,53.15Z" transform="translate(-52.87 -22.14)"/><path class="cls-8" d="M137.58,43.7l.85-.64-.65.85Z" transform="translate(-52.87 -22.14)"/><path class="cls-12" d="M162.66,147,161,150.4Z" transform="translate(-52.87 -22.14)"/><path class="cls-12" d="M152.68,148.69l.71.76c-.16,0-.38,0-.47-.12a2.24,2.24,0,0,1-.28-.6Z" transform="translate(-52.87 -22.14)"/><path class="cls-12" d="M177.07,121.81a2.89,2.89,0,0,1-.69-1.14Q177.41,120.91,177.07,121.81Z" transform="translate(-52.87 -22.14)"/><path class="cls-2" d="M322.64,121.74l-.65-.23a6.27,6.27,0,0,1,.75-.68s.31.31.47.48Z" transform="translate(-52.87 -22.14)"/><path class="cls-6" d="M157.69,65.47l1.88,3.74-.06.52-1.66-.8-3.91-2.7Z" transform="translate(-52.87 -22.14)"/><path class="cls-3" d="M157.85,68.93l1.66.8-2,.51A4.62,4.62,0,0,1,157.85,68.93Z" transform="translate(-52.87 -22.14)"/><path class="cls-8" d="M384.1,221.05l1.87,2.6Z" transform="translate(-52.87 -22.14)"/><path class="cls-6" d="M447.64,243.7l-12,1.58L429,236.79c.8-.68,2.37-1.49,2.28-2-1-6.42.23-8.29,6.17-3.79,1.26,1,4.08-.15,6.18-.28,2.38-.14,4.77-.25,7.15-.37Z" transform="translate(-52.87 -22.14)"/><path class="cls-2" d="M453.9,218a2.07,2.07,0,0,0,1.44.67l-1.21,6.59L452.28,227Z" transform="translate(-52.87 -22.14)"/><path class="cls-10" d="M474,225.5l1.9,1.46Z" transform="translate(-52.87 -22.14)"/><path class="cls-3" d="M439.15,201.78l4.56,5.32a7.62,7.62,0,0,0-1.43.09l-6.57-1.7Z" transform="translate(-52.87 -22.14)"/><path class="cls-11" d="M445.83,192c3-.88,5.84-1.42,4.84,3.42Z" transform="translate(-52.87 -22.14)"/><path class="cls-4" d="M464,223.63l-.7-.7c.15,0,.35,0,.43.12a2.33,2.33,0,0,1,.28.56Z" transform="translate(-52.87 -22.14)"/></g></svg>